<svg xmlns="http://www.w3.org/2000/svg" xmlns:xlink="http://www.w3.org/1999/xlink" viewBox="0 0 778.43 392.23"><defs><style>.a,.af{fill:none;}.a{stroke:#fff;stroke-width:9px;}.a,.aa,.af,.f,.g,.h,.l,.m,.n,.o,.p,.q,.r,.s,.t,.v,.w,.x,.y,.z{stroke-linecap:round;stroke-linejoin:round;}.b,.c,.i,.u{fill:#fff;}.c,.e,.i,.u{stroke-miterlimit:10;}.c{stroke-width:6px;stroke:url(#a);}.d{fill:url(#b);}.e,.f,.g,.h,.l,.m,.n,.o,.p,.q,.r,.s,.t{stroke:#fef6f6;}.e,.i{stroke-width:4px;}.e{fill:url(#c);}.f,.g,.h{stroke-width:2px;}.f{fill:url(#d);}.g{fill:url(#e);}.h{fill:url(#f);}.i{stroke:url(#g);}.j{fill:url(#h);}.k{fill:url(#i);}.l{fill:url(#j);}.m{fill:url(#k);}.n{fill:url(#l);}.o{fill:url(#m);}.p{fill:url(#n);}.q{fill:url(#o);}.r{fill:url(#p);}.s{fill:url(#q);}.t{fill:url(#r);}.u{stroke:url(#s);}.aa,.v,.w,.x,.y,.z{stroke-width:0.75px;}.v{fill:url(#t);stroke:url(#u);}.w{fill:url(#v);stroke:url(#w);}.x{fill:url(#x);stroke:url(#y);}.y{fill:url(#z);stroke:url(#aa);}.z{fill:url(#ab);stroke:url(#ac);}.aa{fill:url(#ad);stroke:url(#ae);}.ab{fill:url(#af);}.ac{fill:url(#ag);}.ad{fill:url(#ah);}.ae{fill:url(#ai);}.af{stroke-width:5px;stroke:url(#aj);}.ag{fill:url(#ak);}.ah{fill:url(#al);}.ai{fill:url(#am);}.aj{fill:url(#an);}.ak{fill:url(#ao);}.al{fill:#0a564d;}.am{fill:url(#ap);}.an{fill:url(#aq);}.ao{fill:url(#ar);}</style><linearGradient id="a" x1="113.28" y1="215.73" x2="538.59" y2="215.73" gradientUnits="userSpaceOnUse"><stop offset="0" stop-color="#11cebb"/><stop offset="0.12" stop-color="#11c3b4"/><stop offset="0.34" stop-color="#10a7a1"/><stop offset="0.57" stop-color="#0f8288"/></linearGradient><linearGradient id="b" x1="140.84" y1="169.63" x2="344.36" y2="169.63" xlink:href="#a"/><linearGradient id="c" x1="154.87" y1="121.87" x2="328.57" y2="121.87" gradientUnits="userSpaceOnUse"><stop offset="0" stop-color="#fac4d2"/><stop offset="1" stop-color="#d795d2"/></linearGradient><linearGradient id="d" x1="156.63" y1="140.29" x2="214.53" y2="140.29" xlink:href="#c"/><linearGradient id="e" x1="156.63" y1="150.82" x2="196.98" y2="150.82" xlink:href="#c"/><linearGradient id="f" x1="156.63" y1="161.35" x2="214.53" y2="161.35" xlink:href="#c"/><linearGradient id="g" x1="326.57" y1="275.1" x2="511.28" y2="275.1" xlink:href="#a"/><linearGradient id="h" x1="341.03" y1="232.69" x2="495.26" y2="232.69" xlink:href="#a"/><linearGradient id="i" x1="341.03" y1="282.54" x2="379.98" y2="282.54" xlink:href="#a"/><linearGradient id="j" x1="348.82" y1="251.39" x2="372.19" y2="251.39" xlink:href="#c"/><linearGradient id="k" x1="348.82" y1="259.18" x2="372.19" y2="259.18" xlink:href="#c"/><linearGradient id="l" x1="348.82" y1="266.96" x2="372.19" y2="266.96" xlink:href="#c"/><linearGradient id="m" x1="348.82" y1="274.75" x2="372.19" y2="274.75" xlink:href="#c"/><linearGradient id="n" x1="348.82" y1="282.54" x2="372.19" y2="282.54" xlink:href="#c"/><linearGradient id="o" x1="348.82" y1="290.33" x2="372.19" y2="290.33" xlink:href="#c"/><linearGradient id="p" x1="348.82" y1="298.12" x2="372.19" y2="298.12" xlink:href="#c"/><linearGradient id="q" x1="348.82" y1="305.91" x2="372.19" y2="305.91" xlink:href="#c"/><linearGradient id="r" x1="348.82" y1="313.7" x2="372.19" y2="313.7" xlink:href="#c"/><linearGradient id="s" x1="381.81" y1="282.54" x2="494.98" y2="282.54" xlink:href="#a"/><linearGradient id="t" x1="389.32" y1="252.16" x2="440.73" y2="252.16" xlink:href="#a"/><linearGradient id="u" x1="388.95" y1="252.16" x2="441.11" y2="252.16" xlink:href="#a"/><linearGradient id="v" x1="389.32" y1="259.95" x2="414.25" y2="259.95" xlink:href="#a"/><linearGradient id="w" x1="388.95" y1="259.95" x2="414.62" y2="259.95" xlink:href="#a"/><linearGradient id="x" x1="389.32" y1="267.74" x2="414.25" y2="267.74" xlink:href="#a"/><linearGradient id="y" x1="388.95" y1="267.74" x2="414.62" y2="267.74" xlink:href="#a"/><linearGradient id="z" x1="389.32" y1="275.53" x2="428.27" y2="275.53" xlink:href="#a"/><linearGradient id="aa" x1="388.95" y1="275.53" x2="428.64" y2="275.53" xlink:href="#a"/><linearGradient id="ab" x1="389.32" y1="283.32" x2="428.27" y2="283.32" xlink:href="#a"/><linearGradient id="ac" x1="388.95" y1="283.32" x2="428.64" y2="283.32" xlink:href="#a"/><linearGradient id="ad" x1="389.32" y1="291.11" x2="404.9" y2="291.11" xlink:href="#a"/><linearGradient id="ae" x1="388.95" y1="291.11" x2="405.28" y2="291.11" xlink:href="#a"/><linearGradient id="af" x1="387.76" y1="313.7" x2="489.02" y2="313.7" xlink:href="#a"/><linearGradient id="ag" x1="100.49" y1="370.13" x2="551.38" y2="370.13" xlink:href="#a"/><linearGradient id="ah" x1="107.61" y1="38.35" x2="124.94" y2="38.35" xlink:href="#a"/><linearGradient id="ai" x1="499.88" y1="46.88" x2="509.28" y2="46.88" xlink:href="#a"/><linearGradient id="aj" x1="552.09" y1="317.26" x2="771.68" y2="317.26" xlink:href="#a"/><linearGradient id="ak" x1="528.3" y1="327.01" x2="687.18" y2="327.01" xlink:href="#a"/><linearGradient id="al" x1="593.49" y1="343.06" x2="650.06" y2="343.06" xlink:href="#a"/><linearGradient id="am" x1="2735.57" y1="-681.6" x2="2744.93" y2="-681.6" gradientTransform="translate(1483.12 2905.91) rotate(-95.23)" xlink:href="#a"/><linearGradient id="an" x1="2708.92" y1="-540.6" x2="2722.62" y2="-540.6" gradientTransform="translate(1483.12 2905.91) rotate(-95.23)" xlink:href="#a"/><linearGradient id="ao" x1="3006.96" y1="225.79" x2="2903.97" y2="274.76" gradientTransform="matrix(-1, 0, 0, 1, 3051.16, 0)" xlink:href="#a"/><linearGradient id="ap" x1="2974.7" y1="254.22" x2="3051.16" y2="254.22" gradientTransform="matrix(-1, 0, 0, 1, 3051.16, 0)" gradientUnits="userSpaceOnUse"><stop offset="0" stop-color="#0f8288"/><stop offset="0.25" stop-color="#109f9b"/><stop offset="0.54" stop-color="#10b9ad"/><stop offset="0.8" stop-color="#11c8b7"/><stop offset="1" stop-color="#11cebb"/></linearGradient><linearGradient id="aq" x1="21.66" y1="330.58" x2="84.98" y2="330.58" xlink:href="#a"/><linearGradient id="ar" x1="24.77" y1="360.05" x2="80.3" y2="360.05" xlink:href="#a"/></defs><title>about</title><rect class="a" x="105.24" y="357.22" width="450.9" height="21.05" rx="2.75" ry="2.75"/><circle class="b" cx="121.03" cy="35.97" r="8.66"/><circle class="b" cx="509.33" cy="44.5" r="4.7"/><path class="b" d="M549.64,79.26c5.79,0,5.8-9,0-9s-5.8,9,0,9Z"/><path class="b" d="M72,98.26c5.8,0,5.81-9,0-9s-5.8,9,0,9Z"/><path class="b" d="M190.33,49.14c5.79,0,5.8-9,0-9s-5.8,9,0,9Z"/><path class="b" d="M159.63,9c5.79,0,5.8-9,0-9s-5.8,9,0,9Z"/><path class="b" d="M549.64,49c5.79,0,5.8-9,0-9s-5.8,9,0,9Z"/><path class="b" d="M107.78,69.13c5.79,0,5.8-9,0-9s-5.8,9,0,9Z"/><path class="a" d="M559.34,270.76s10.46-43.37,82.42,4.12c49.71,32.81,33,102.24,132.17,102.24l-119.12-2.81"/><path class="a" d="M547.23,274.67v-6.38h19.19c0,1.56.06,3.08,0,4.6-.06,1.29.32,1.91,1.75,1.9,9.39,0,18.77,0,28.16-.07a2.4,2.4,0,0,0,1.75-1.25,65.4,65.4,0,0,0,2.2-6.55c.91-3.15,2.76-4.87,6.05-5.22a49.54,49.54,0,0,1,5-.13c8.55,0,17.09-.06,25.64,0a17,17,0,0,1,5,1,4.79,4.79,0,0,1,3,3.73c.54,2.17,1.42,4.25,2,6.41.43,1.54,1.26,2,2.86,2,9.8-.07,19.61,0,29.41,0,3.91,0,7.52.85,9.78,4.21a17.46,17.46,0,0,1,2.55,6.49c.44,2.52.15,5.17.15,7.76q0,35.82,0,71.64a23.46,23.46,0,0,1-.29,4.6c-.91,4.41-4.26,7.28-9.83,7.65-8,.53-16.08.61-24.12.78a8.48,8.48,0,0,0-4.69,1.36c-8.92,5.72-18.61,9.18-29.34,8.34a50.33,50.33,0,0,1-23.68-8.46A7.5,7.5,0,0,0,596,378q-25.21-.12-50.42,0c-4.86,0-8.9-1.59-11.1-6.09a14.91,14.91,0,0,1-1.37-6.25c-.09-26.13,0-52.25-.09-78.37,0-7.42,5-12.78,12.4-12.47C545.93,274.79,546.42,274.72,547.23,274.67Zm79.13,106.09c21.9.13,40.13-18,40.21-40a40.07,40.07,0,0,0-80.14-.29C586.19,362.3,604.37,380.63,626.36,380.76Zm-67.69-46.08c0-5.79,0-11.57,0-17.35a12.6,12.6,0,0,0-.2-2.61,5,5,0,0,0-7.44-3.11c-2.09,1.27-2.51,3.25-2.52,5.43q0,17.52,0,35a10.36,10.36,0,0,0,.4,2.93,4.31,4.31,0,0,0,3.25,3.11c3.61.88,6.45-1.37,6.49-5.23C558.71,346.83,558.67,340.75,558.67,334.68Z"/><circle class="b" cx="559.34" cy="236.82" r="4.68"/><circle class="b" cx="701.98" cy="248.35" r="6.85"/><path class="b" d="M660.73,262.08c5.79,0,5.8-9,0-9s-5.8,9,0,9Z"/><path class="b" d="M618.06,241.32c5.79,0,5.8-9,0-9s-5.8,9,0,9Z"/><path class="b" d="M598.35,230.43c5.79,0,5.8-9,0-9s-5.8,9,0,9Z"/><path class="a" d="M69,332.34s69.76-11.46,71.35-42.37-25.8-7-31.22-10.51,34.73-44.92,22.62-48.1-16.88,10.83-18.16,2.55,23.9-37.91,9.56-44.6-13.06,11.15-15.93,2.23,6.69-37.27-11.46-45.24-10.73,19.75-10.73,19.75,7.86,36.64,4.35,34.09-9.23-18.79-14-17.84S69,204.45,76.67,214.72s3.82,13.14-11.79,8S48,233,56.92,247.92s12.42,26.74-3.82,15.92S23.47,252.07,27,275.64,41.31,304.63,69,332.34Z"/><path class="a" d="M52.64,314.7S5.86,307,4.8,286.29s17.3-4.7,20.93-7.05S2.45,249.12,10.56,247s11.32,7.26,12.18,1.71-16-25.42-6.41-29.91,8.76,7.48,10.68,1.5-4.48-25,7.69-30.34,7.19,13.25,7.19,13.25S36.62,227.76,39,226.05s6.2-12.6,9.4-12,4.27,14.86-.85,21.74-2.57,8.81,7.9,5.39,11.32,6.83,5.34,16.87S52.43,276,63.32,268.77s19.87-7.9,17.52,7.91S71.23,296.12,52.64,314.7Z"/><polygon class="a" points="26.41 337.12 85.06 337.12 89.73 337.12 89.73 319.28 26.41 319.28 26.41 337.12"/><polygon class="a" points="77.95 378.23 36.85 378.23 29.52 337.12 85.06 337.12 77.95 378.23"/><rect class="a" x="121.03" y="74.76" width="419.32" height="277.21" rx="12" ry="12"/><rect class="c c-about" x="116.28" y="77.13" width="419.32" height="277.21" rx="12" ry="12"/><rect class="d" x="140.84" y="105.2" width="203.52" height="128.85" rx="5" ry="5"/><rect class="e" x="154.87" y="119.24" width="173.69" height="4.26" rx="1" ry="1"/><line class="f" x1="156.63" y1="140.29" x2="214.53" y2="140.29"/><line class="g" x1="156.63" y1="150.82" x2="196.98" y2="150.82"/><line class="h" x1="156.63" y1="161.35" x2="214.53" y2="161.35"/><rect class="i" x="328.57" y="217.89" width="180.71" height="114.41" rx="5" ry="5"/><rect class="j" x="341.03" y="230.35" width="154.23" height="4.67" rx="1" ry="1"/><rect class="k" x="341.03" y="243.6" width="38.95" height="77.89" rx="2" ry="2"/><line class="l" x1="348.82" y1="251.39" x2="372.19" y2="251.39"/><line class="m" x1="348.82" y1="259.18" x2="372.19" y2="259.18"/><line class="n" x1="348.82" y1="266.96" x2="372.19" y2="266.96"/><line class="o" x1="348.82" y1="274.75" x2="372.19" y2="274.75"/><line class="p" x1="348.82" y1="282.54" x2="372.19" y2="282.54"/><line class="q" x1="348.82" y1="290.33" x2="372.19" y2="290.33"/><line class="r" x1="348.82" y1="298.12" x2="372.19" y2="298.12"/><line class="s" x1="348.82" y1="305.91" x2="372.19" y2="305.91"/><line class="t" x1="348.82" y1="313.7" x2="372.19" y2="313.7"/><rect class="u" x="382.31" y="243.6" width="112.16" height="77.89" rx="2" ry="2"/><line class="v" x1="389.32" y1="252.16" x2="440.73" y2="252.16"/><line class="w" x1="389.32" y1="259.95" x2="414.25" y2="259.95"/><line class="x" x1="389.32" y1="267.74" x2="414.25" y2="267.74"/><line class="y" x1="389.32" y1="275.53" x2="428.27" y2="275.53"/><line class="z" x1="389.32" y1="283.32" x2="428.27" y2="283.32"/><line class="aa" x1="389.32" y1="291.11" x2="404.9" y2="291.11"/><rect class="ab" x="387.76" y="311.36" width="101.26" height="4.67" rx="1" ry="1"/><rect class="ac" x="100.49" y="359.6" width="450.9" height="21.05" rx="2.75" ry="2.75"/><circle class="ad" cx="116.28" cy="38.35" r="8.66"/><circle class="ae" cx="504.58" cy="46.88" r="4.7"/><path d="M544.89,78.63a1.5,1.5,0,0,0,0-3,1.5,1.5,0,0,0,0,3Z"/><path d="M67.28,99.14c3.86,0,3.87-6,0-6s-3.86,6,0,6Z"/><path d="M185.58,50c3.86,0,3.86-6,0-6s-3.87,6,0,6Z"/><path d="M154.87,9.88c3.87,0,3.87-6,0-6s-3.86,6,0,6Z"/><path d="M544.89,49.88c3.86,0,3.86-6,0-6s-3.87,6,0,6Z"/><path d="M103,68.51a1.5,1.5,0,0,0,0-3,1.5,1.5,0,0,0,0,3Z"/><path class="af" d="M554.59,273.13s10.46-43.37,82.42,4.13c49.71,32.8,33,102.23,132.17,102.23l-119.12-2.81"/><path class="ag" d="M542.48,277.05v-6.39h19.19c0,1.57.05,3.09,0,4.6-.06,1.3.32,1.92,1.75,1.91,9.39,0,18.77,0,28.16-.08a2.4,2.4,0,0,0,1.75-1.24,68.23,68.23,0,0,0,2.2-6.56c.91-3.14,2.76-4.87,6.05-5.21,1.66-.17,3.35-.13,5-.14,8.55,0,17.09-.06,25.63.05a17.09,17.09,0,0,1,5.06,1,4.78,4.78,0,0,1,3,3.73c.54,2.16,1.42,4.24,2,6.4.42,1.55,1.25,2,2.85,2,9.81-.07,19.61,0,29.42-.05,3.91,0,7.52.86,9.78,4.22a17.33,17.33,0,0,1,2.55,6.49c.44,2.51.14,5.16.15,7.75q0,35.83,0,71.65a22.71,22.71,0,0,1-.28,4.6c-.92,4.4-4.26,7.27-9.83,7.64-8,.54-16.08.62-24.12.79a8.55,8.55,0,0,0-4.69,1.35c-8.93,5.72-18.62,9.19-29.34,8.35a50.47,50.47,0,0,1-23.68-8.46,7.54,7.54,0,0,0-3.85-1.16q-25.21-.11-50.43,0c-4.86,0-8.89-1.58-11.09-6.09a14.87,14.87,0,0,1-1.37-6.25c-.09-26.12,0-52.25-.09-78.37,0-7.41,5-12.77,12.4-12.47C541.18,277.16,541.67,277.09,542.48,277.05ZM621.6,383.13a40,40,0,1,0-39.93-40.26C581.44,364.67,599.62,383,621.6,383.13Zm-67.68-46.08c0-5.78,0-11.56,0-17.35a12.65,12.65,0,0,0-.2-2.61,5,5,0,0,0-7.44-3.1c-2.09,1.26-2.51,3.25-2.52,5.42q0,17.54,0,35a10.69,10.69,0,0,0,.41,2.93,4.32,4.32,0,0,0,3.25,3.12c3.61.87,6.45-1.37,6.48-5.23C554,349.2,553.92,343.13,553.92,337.05Z"/><path class="ah" d="M622.05,314.83a28.24,28.24,0,1,0,28,28.38A28.38,28.38,0,0,0,622.05,314.83Z"/><circle class="ai" cx="554.59" cy="239.19" r="4.68"/><circle class="aj" cx="697.23" cy="250.72" r="6.85"/><path d="M656,261.45a1.5,1.5,0,0,0,0-3,1.5,1.5,0,0,0,0,3Z"/><path d="M613.31,240.69a1.5,1.5,0,0,0,0-3,1.5,1.5,0,0,0,0,3Z"/><path d="M593.6,231.3c3.86,0,3.86-6,0-6s-3.87,6,0,6Z"/><path class="ak" d="M64.27,334.72s69.77-11.47,71.36-42.37-25.8-7-31.22-10.51,34.73-44.92,22.62-48.1-16.88,10.83-18.16,2.54,23.9-37.91,9.56-44.59-13.06,11.14-15.93,2.23,6.69-37.28-11.47-45.24S80.3,168.43,80.3,168.43s7.87,36.63,4.36,34.09-9.24-18.8-14-17.84-6.38,22.15,1.27,32.42,3.82,13.13-11.79,8-16.88,10.2-8,25.17S64.59,277,48.35,266.22,18.72,254.44,22.22,278,36.56,307,64.27,334.72Z"/><path class="al" d="M57.58,339.18A206.65,206.65,0,0,0,79,299.61c2.94-6.93,5.42-14.05,7.73-21.23s4.07-14.54,5.66-21.92a189.12,189.12,0,0,0,4-45.09,140,140,0,0,0-8.46-44.21,209.67,209.67,0,0,1,3.62,44.24l0,2.76-.17,2.76c-.11,1.84-.16,3.68-.3,5.51-.32,3.67-.6,7.34-1.11,11-.85,7.31-2,14.59-3.56,21.8s-3.18,14.4-5.2,21.5-4.26,14.15-6.63,21.17A414.88,414.88,0,0,1,57.58,339.18Z"/><path class="al" d="M52.17,284.39a35.29,35.29,0,0,0,1,4.12,36.51,36.51,0,0,0,1.59,4,32.59,32.59,0,0,0,4.72,7.27A33.45,33.45,0,0,0,66,305.63a32.2,32.2,0,0,0,3.86,2.26c.68.32,1.36.65,2.07.92a21.32,21.32,0,0,0,2.34.78,2.7,2.7,0,0,0,.79.09,48.66,48.66,0,0,0,7.5-.92,51.11,51.11,0,0,0,7.17-2,41.5,41.5,0,0,0,6.76-3.07,30.84,30.84,0,0,0,6-4.35c-2.41.57-4.67,1.23-7,1.67s-4.59.89-6.88,1.22-4.58.61-6.86.84-4.64.37-6.75.43l.79.09c-.37-.12-1-.34-1.55-.57s-1.13-.46-1.69-.71c-1.11-.55-2.23-1.1-3.3-1.76A47,47,0,0,1,63,296.18c-.51-.4-1-.86-1.45-1.28a16.43,16.43,0,0,1-1.43-1.34l-1.41-1.37-1.34-1.47c-1-1-1.73-2-2.64-3.07S53.11,285.47,52.17,284.39Z"/><path class="al" d="M68.73,242a45,45,0,0,0,3.52,7.25c1.35,2.3,2.81,4.52,4.34,6.68a132.08,132.08,0,0,0,9.9,12.32l.06.06a3,3,0,0,0,2.41,1,31.39,31.39,0,0,0,3.83-.51,38.18,38.18,0,0,0,10.68-3.68,25.87,25.87,0,0,0,6.09-4.56,16.36,16.36,0,0,0,3.77-6.43,26.79,26.79,0,0,1-5.56,4.13,37.66,37.66,0,0,1-6.17,2.51,54.21,54.21,0,0,1-6.46,1.54,59.62,59.62,0,0,1-6.5.83l2.46,1c-3.42-3.91-7-7.76-10.7-11.43-1.86-1.85-3.75-3.66-5.69-5.44S70.81,243.77,68.73,242Z"/><path class="al" d="M76.7,202.52a40,40,0,0,0,2.66,8.28c1.11,2.67,2.36,5.25,3.65,7.8,2.63,5.08,5.51,10,8.62,14.78a3.07,3.07,0,0,0,4.26.9,3.16,3.16,0,0,0,.53-.42,88.41,88.41,0,0,0,6-6.81,75.12,75.12,0,0,0,5.18-7.42,48.52,48.52,0,0,0,4.09-8.15c1-2.87,1.94-5.91,1.67-9a34.45,34.45,0,0,1-4.4,7.5c-1.68,2.32-3.48,4.56-5.35,6.74s-3.75,4.35-5.71,6.46S94,227.49,92,229.5l4.79.48c-3.11-4.71-6.34-9.37-9.71-13.92q-2.53-3.41-5.16-6.77C80.18,207.05,78.39,204.87,76.7,202.52Z"/><path class="am" d="M47.89,317.07S1.11,309.39,0,288.67,17.35,284,21,281.62-2.3,251.5,5.81,249.36s11.32,7.27,12.18,1.71-16-25.42-6.41-29.9,8.76,7.47,10.68,1.49-4.49-25,7.69-30.33,7.19,13.24,7.19,13.24-5.27,24.57-2.92,22.86,6.2-12.6,9.4-12,4.27,14.85-.85,21.74-2.57,8.8,7.9,5.39S62,250.43,56,260.47s-8.33,17.93,2.56,10.67,19.87-7.89,17.52,7.91S66.48,298.49,47.89,317.07Z"/><path class="al" d="M52.38,320.07c-4-9.27-7.44-18.58-10.57-28a253.56,253.56,0,0,1-7.67-28.53c-1-4.8-1.8-9.65-2.43-14.51-.36-2.43-.57-4.87-.81-7.31-.11-1.22-.15-2.45-.24-3.67s-.18-2.45-.21-3.68a160.44,160.44,0,0,1,1.64-29.67,86.85,86.85,0,0,0-6.48,29.64,110.2,110.2,0,0,0,.26,15.31,124.34,124.34,0,0,0,2.19,15.14,146.42,146.42,0,0,0,9.25,29A123.7,123.7,0,0,0,52.38,320.07Z"/><path class="al" d="M56,283.33c-1.44,1.37-2.61,2.75-4,3.95a46.72,46.72,0,0,1-3.92,3.37,37.71,37.71,0,0,1-4.11,2.7c-.69.41-1.42.74-2.12,1.09-.36.15-.72.32-1.07.45s-.76.28-.91.34l.79-.09c-1.33,0-2.92-.11-4.4-.21s-3-.23-4.55-.38-3.07-.32-4.64-.51-3.14-.47-4.86-.68a17.57,17.57,0,0,0,3.84,3.36,24.26,24.26,0,0,0,4.51,2.37,30.71,30.71,0,0,0,4.86,1.51,28.82,28.82,0,0,0,5.15.7,2.73,2.73,0,0,0,.76-.08h0a16.1,16.1,0,0,0,1.69-.55c.51-.2,1-.44,1.46-.66a20.61,20.61,0,0,0,2.68-1.6,21.4,21.4,0,0,0,4.46-4.19,20.37,20.37,0,0,0,3-5.17,21.8,21.8,0,0,0,.89-2.81A19.1,19.1,0,0,0,56,283.33Z"/><path class="al" d="M44.9,254.92c-1.58,1-3,2.12-4.41,3.21s-2.74,2.25-4,3.44a85,85,0,0,0-7.31,7.52l2.47-1c-1.25-.07-2.8-.27-4.19-.47s-2.86-.46-4.25-.82A30.29,30.29,0,0,1,19,265.42,19.46,19.46,0,0,1,15,263a10.24,10.24,0,0,0,2.23,4.69,16.78,16.78,0,0,0,4.07,3.4,22.9,22.9,0,0,0,4.8,2.09,19.64,19.64,0,0,0,2.51.64,20.58,20.58,0,0,0,2.68.38,3,3,0,0,0,2.39-1l.07-.08a63.33,63.33,0,0,0,6.51-8.41A47.77,47.77,0,0,0,43,260.11,25.23,25.23,0,0,0,44.9,254.92Z"/><path class="al" d="M39.56,228.43l-3.94,4.3c-1.28,1.42-2.51,2.88-3.71,4.36-2.38,3-4.61,6-6.68,9.19L30,245.8l-3.9-4.12L22.2,237.5c-1.31-1.39-2.58-2.81-3.8-4.28a26.07,26.07,0,0,1-3.4-4.79,13.58,13.58,0,0,0,.67,6.25,29.77,29.77,0,0,0,2.53,5.7,43.34,43.34,0,0,0,3.39,5.13,51.25,51.25,0,0,0,4,4.65,3.08,3.08,0,0,0,4.36.05,3.56,3.56,0,0,0,.43-.53A83.44,83.44,0,0,0,36,239.63a55.48,55.48,0,0,0,2.2-5.4A23.36,23.36,0,0,0,39.56,228.43Z"/><polygon class="an" points="21.66 339.5 80.31 339.5 84.98 339.5 84.98 321.66 21.66 321.66 21.66 339.5"/><polygon class="ao" points="73.19 380.6 32.1 380.6 24.77 339.5 80.31 339.5 73.19 380.6"/></svg>