<svg xmlns="http://www.w3.org/2000/svg" xmlns:xlink="http://www.w3.org/1999/xlink" viewBox="0 0 100 220">
  <defs>
    <linearGradient id="d-1" x1="27.59" y1="163.17" x2="106.09" y2="199.77" gradientUnits="userSpaceOnUse">
      <stop offset="0"/>
      <stop offset="1" stop-color="#44484b"/>
    </linearGradient>
    <linearGradient id="d-2" x1="0.59" y1="110.59" x2="100.59" y2="110.59" gradientUnits="userSpaceOnUse">
      <stop offset="0" stop-color="#11cebb"/>
      <stop offset="1" stop-color="#11a9bb"/>
    </linearGradient>
  </defs>
  <path class="logo-path1"  d="M53.91,110.59,6.83,207.67c-3,6.76-.35,11.5,5.36,12.92H88.25c8.92,0,14.89-8.44,11.26-15.93Z" transform="translate(-0.59 -0.59)"/>
  <path class="logo-path2"  d="M6.83,207.67l47.08-97.08,45.6-94.07C103.14,9,97.17.59,88.25.59H12.19A11.46,11.46,0,0,0,.59,11.92V206.75c0,7.4,5.15,13.93,11.6,13.84C6.48,219.17,3.85,214.43,6.83,207.67Z" transform="translate(-0.59 -0.59)"/>
</svg>