<?xml version="1.0" encoding="utf-8"?>
<!-- Generator: Adobe Illustrator 22.0.0, SVG Export Plug-In . SVG Version: 6.00 Build 0)  -->
<svg version="1.1" id="Capa_1" xmlns="http://www.w3.org/2000/svg" xmlns:xlink="http://www.w3.org/1999/xlink" x="0px" y="0px"
	 viewBox="0 0 375.9 215.1" enable-background="new 0 0 375.9 215.1" xml:space="preserve">
<g>
	<g>
		<g>
			<path fill="#0E8778" d="M0.1,46.3C10.9,71.7,21.7,97,32.5,122.4c1.6,3.6,3.1,7.3,4.7,10.9c0.2,0.5,0.8,0.7,1.3,0.7
				c32.8,0,65.6,0,98.3,0c7.2,0,14.5,0,21.7,0c1.1,0,3.6,0.5,4.6,0c0.8-0.4-0.6-0.1-0.9-0.6c0.2,0.4,0.6,0.8,0.9,1.2
				c3.3,5.4,7.7,10.4,11.4,15.4c6.2,8.3,12.3,16.6,18.5,24.9c9.7,13.1,19.4,26.2,29.1,39.3c0.4,0.5,1,0.9,1.7,0.7
				c34.2-11.7,68.3-23.4,102.5-35c4.8-1.7,9.7-3.3,14.5-5c1.8-0.6,1-3.5-0.8-2.9c-34.2,11.7-68.3,23.4-102.5,35
				c-4.8,1.7-9.7,3.3-14.5,5c0.6,0.2,1.1,0.5,1.7,0.7c-13.7-18.5-27.3-36.9-41-55.4c-6.1-8.2-11.9-16.6-18.2-24.6
				c-2.6-3.3-9-1.7-12.8-1.7c-28,0-56.1,0-84.1,0c-9.2,0-19.2-1.1-28.4,0c-0.6,0.1-1.1-0.1-1.7,0c1.7-0.2,1.3,1.4,0.5-1
				c-1.3-4.1-3.5-8.2-5.2-12.2C23.4,93.5,13.1,69.1,2.7,44.8C2,43-0.6,44.5,0.1,46.3L0.1,46.3z"/>
		</g>
	</g>
	<g>
		<g>
			<path fill="#0E8778" d="M34.1,2.3C44.9,27.7,55.7,53,66.5,78.4c1.6,3.6,3.1,7.3,4.7,10.9c0.2,0.5,0.8,0.7,1.3,0.7
				c32.8,0,65.6,0,98.3,0c7.2,0,14.5,0,21.7,0c1.1,0,3.6,0.5,4.6,0c0.8-0.4-0.6-0.1-0.9-0.6c0.2,0.4,0.6,0.8,0.9,1.2
				c3.3,5.4,7.7,10.4,11.4,15.4c6.2,8.3,12.3,16.6,18.5,24.9c9.7,13.1,19.4,26.2,29.1,39.3c0.4,0.5,1,0.9,1.7,0.7
				c34.2-11.7,68.3-23.4,102.5-35c4.8-1.7,9.7-3.3,14.5-5c1.8-0.6,1-3.5-0.8-2.9c-34.2,11.7-68.3,23.4-102.5,35
				c-4.8,1.7-9.7,3.3-14.5,5c0.6,0.2,1.1,0.5,1.7,0.7c-13.7-18.5-27.3-36.9-41-55.4c-6.1-8.2-11.9-16.6-18.2-24.6
				c-2.6-3.3-9-1.7-12.8-1.7c-28,0-56.1,0-84.1,0c-9.2,0-19.2-1.1-28.4,0c-0.6,0.1-1.1-0.1-1.7,0c1.7-0.2,1.3,1.4,0.5-1
				c-1.3-4.1-3.5-8.2-5.2-12.2C57.4,49.5,47.1,25.1,36.7,0.8C36-1,33.4,0.5,34.1,2.3L34.1,2.3z"/>
		</g>
	</g>
</g>
</svg>
