<?xml version="1.0" encoding="utf-8"?>
<!-- Generator: Adobe Illustrator 22.0.0, SVG Export Plug-In . SVG Version: 6.00 Build 0)  -->
<svg version="1.1" id="Capa_1" xmlns="http://www.w3.org/2000/svg" xmlns:xlink="http://www.w3.org/1999/xlink" x="0px" y="0px"
	 viewBox="0 0 826.5 98.3" enable-background="new 0 0 826.5 98.3" xml:space="preserve">
<g>
	<g>
		<path fill="#0E8778" d="M2.5,87.4c18-23,43.9-41.8,70.1-54.2c25-11.8,52.7-17.7,80.4-16c16.6,1,33,4.7,48.6,10.5
			c20,7.4,38,18.7,57,28.3c61.8,31.3,130.7,53.5,200,36.3C492,84,523,67.9,551.5,48.8c13.4-9,26.1-18.8,40.6-26.1
			c13-6.5,26.8-11.5,40.9-14.8c29.3-6.9,60.1-6.5,89.1,1.6c32.1,9,60.7,27.3,83.5,51.4c6.5,6.8,12.4,14.1,18,21.7
			c1.1,1.5,3.7,0,2.6-1.5C806,53.5,780,30.2,748.7,16C721.3,3.5,691-1.8,660.9,0.5c-28.6,2.2-56.7,11-81.4,25.6
			c-15.4,9.1-29.3,20.4-44.5,29.7c-15.5,9.5-31.7,17.9-48.6,24.5c-30.9,12.1-63.9,17.3-97,14.6c-37.7-3.1-74.2-15.6-108.4-31.3
			C244.9,47,212,23.7,172.2,16.6c-28.1-5-57-2.6-83.9,6.9C55.3,35.2,24,56.8,1.6,83.8c-0.4,0.5-0.8,1-1.2,1.5
			C-0.8,86.8,1.3,88.9,2.5,87.4L2.5,87.4z"/>
	</g>
</g>
</svg>
