<?xml version="1.0" encoding="utf-8"?>
<!-- Generator: Adobe Illustrator 22.0.0, SVG Export Plug-In . SVG Version: 6.00 Build 0)  -->
<svg version="1.1" id="Capa_1" xmlns="http://www.w3.org/2000/svg" xmlns:xlink="http://www.w3.org/1999/xlink" x="0px" y="0px"
	 viewBox="0 0 876 370" enable-background="new 0 0 876 370" xml:space="preserve">
<g>
	<defs>
		<rect id="SVGID_1_" width="876" height="370"/>
	</defs>
	<clipPath id="SVGID_2_">
		<use xlink:href="#SVGID_1_"  overflow="visible"/>
	</clipPath>
	<g clip-path="url(#SVGID_2_)">
		<g>
			<g>
				
					<rect x="52" y="123.3" transform="matrix(0.7071 -0.7071 0.7071 0.7071 -391.3702 206.056)" fill="#0E8778" width="2" height="904.4"/>
			</g>
			<g>
				
					<rect x="63.7" y="111.6" transform="matrix(0.7071 -0.7071 0.7071 0.7071 -379.7076 210.8867)" fill="#0E8778" width="2" height="904.4"/>
			</g>
			<g>
				
					<rect x="75.4" y="99.9" transform="matrix(0.7071 -0.7071 0.7071 0.7071 -368.045 215.7176)" fill="#0E8778" width="2" height="904.4"/>
			</g>
			<g>
				
					<rect x="87" y="88.3" transform="matrix(0.7071 -0.7071 0.7071 0.7071 -356.3824 220.5483)" fill="#0E8778" width="2" height="904.4"/>
			</g>
			<g>
				
					<rect x="98.7" y="76.6" transform="matrix(0.7071 -0.7071 0.7071 0.7071 -344.7198 225.3792)" fill="#0E8778" width="2" height="904.4"/>
			</g>
			<g>
				
					<rect x="110.4" y="64.9" transform="matrix(0.7071 -0.7071 0.7071 0.7071 -333.0573 230.2099)" fill="#0E8778" width="2" height="904.4"/>
			</g>
			<g>
				
					<rect x="122" y="53.3" transform="matrix(0.7071 -0.7071 0.7071 0.7071 -321.3946 235.0409)" fill="#0E8778" width="2" height="904.4"/>
			</g>
			<g>
				
					<rect x="133.7" y="41.6" transform="matrix(0.7071 -0.7071 0.7071 0.7071 -309.7321 239.8716)" fill="#0E8778" width="2" height="904.4"/>
			</g>
			<g>
				
					<rect x="145.3" y="30" transform="matrix(0.7071 -0.7071 0.7071 0.7071 -298.0694 244.7025)" fill="#0E8778" width="2" height="904.4"/>
			</g>
			<g>
				
					<rect x="157" y="18.3" transform="matrix(0.7071 -0.7071 0.7071 0.7071 -286.4069 249.5332)" fill="#0E8778" width="2" height="904.4"/>
			</g>
			<g>
				
					<rect x="168.7" y="6.6" transform="matrix(0.7071 -0.7071 0.7071 0.7071 -274.7441 254.3641)" fill="#0E8778" width="2" height="904.4"/>
			</g>
			<g>
				
					<rect x="180.3" y="-5" transform="matrix(0.7071 -0.7071 0.7071 0.7071 -263.0817 259.1948)" fill="#0E8778" width="2" height="904.4"/>
			</g>
			<g>
				
					<rect x="192" y="-16.7" transform="matrix(0.7071 -0.7071 0.7071 0.7071 -251.4189 264.0257)" fill="#0E8778" width="2" height="904.4"/>
			</g>
			<g>
				
					<rect x="203.7" y="-28.4" transform="matrix(0.7071 -0.7071 0.7071 0.7071 -239.7565 268.8564)" fill="#0E8778" width="2" height="904.4"/>
			</g>
			<g>
				
					<rect x="215.3" y="-40" transform="matrix(0.7071 -0.7071 0.7071 0.7071 -228.0937 273.6873)" fill="#0E8778" width="2" height="904.4"/>
			</g>
			<g>
				
					<rect x="227" y="-51.7" transform="matrix(0.7071 -0.7071 0.7071 0.7071 -216.4311 278.518)" fill="#0E8778" width="2" height="904.4"/>
			</g>
			<g>
				
					<rect x="238.6" y="-63.3" transform="matrix(0.7071 -0.7071 0.7071 0.7071 -204.7682 283.3487)" fill="#0E8778" width="2" height="904.4"/>
			</g>
			<g>
				
					<rect x="250.3" y="-75" transform="matrix(0.7071 -0.7071 0.7071 0.7071 -193.1058 288.1794)" fill="#0E8778" width="2" height="904.4"/>
			</g>
			<g>
				
					<rect x="262" y="-86.7" transform="matrix(0.7071 -0.7071 0.7071 0.7071 -181.443 293.0103)" fill="#0E8778" width="2" height="904.4"/>
			</g>
			<g>
				
					<rect x="273.6" y="-98.3" transform="matrix(0.7071 -0.7071 0.7071 0.7071 -169.7805 297.8413)" fill="#0E8778" width="2" height="904.4"/>
			</g>
			<g>
				
					<rect x="285.3" y="-110" transform="matrix(0.7071 -0.7071 0.7071 0.7071 -158.1178 302.6722)" fill="#0E8778" width="2" height="904.4"/>
			</g>
			<g>
				
					<rect x="297" y="-121.7" transform="matrix(0.7071 -0.7071 0.7071 0.7071 -146.4554 307.503)" fill="#0E8778" width="2" height="904.4"/>
			</g>
			<g>
				
					<rect x="308.6" y="-133.3" transform="matrix(0.7071 -0.7071 0.7071 0.7071 -134.7926 312.3339)" fill="#0E8778" width="2" height="904.4"/>
			</g>
			<g>
				
					<rect x="320.3" y="-145" transform="matrix(0.7071 -0.7071 0.7071 0.7071 -123.1302 317.1646)" fill="#0E8778" width="2" height="904.4"/>
			</g>
			<g>
				
					<rect x="331.9" y="-156.6" transform="matrix(0.7071 -0.7071 0.7071 0.7071 -111.4674 321.9955)" fill="#0E8778" width="2" height="904.4"/>
			</g>
			<g>
				
					<rect x="343.6" y="-168.3" transform="matrix(0.7071 -0.7071 0.7071 0.7071 -99.805 326.8262)" fill="#0E8778" width="2" height="904.4"/>
			</g>
			<g>
				
					<rect x="355.3" y="-180" transform="matrix(0.7071 -0.7071 0.7071 0.7071 -88.1422 331.6571)" fill="#0E8778" width="2" height="904.4"/>
			</g>
			<g>
				
					<rect x="366.9" y="-191.6" transform="matrix(0.7071 -0.7071 0.7071 0.7071 -76.4796 336.4879)" fill="#0E8778" width="2" height="904.4"/>
			</g>
			<g>
				
					<rect x="378.6" y="-203.3" transform="matrix(0.7071 -0.7071 0.7071 0.7071 -64.817 341.3187)" fill="#0E8778" width="2" height="904.4"/>
			</g>
			<g>
				
					<rect x="390.3" y="-215" transform="matrix(0.7071 -0.7071 0.7071 0.7071 -53.1544 346.1495)" fill="#0E8778" width="2" height="904.4"/>
			</g>
			<g>
				
					<rect x="401.9" y="-226.6" transform="matrix(0.7071 -0.7071 0.7071 0.7071 -41.4918 350.9803)" fill="#0E8778" width="2" height="904.4"/>
			</g>
			<g>
				
					<rect x="413.6" y="-238.3" transform="matrix(0.7071 -0.7071 0.7071 0.7071 -29.8292 355.8111)" fill="#0E8778" width="2" height="904.4"/>
			</g>
			<g>
				
					<rect x="425.3" y="-249.9" transform="matrix(0.7071 -0.7071 0.7071 0.7071 -18.1666 360.6419)" fill="#0E8778" width="2" height="904.4"/>
			</g>
			<g>
				
					<rect x="436.9" y="-261.6" transform="matrix(0.7071 -0.7071 0.7071 0.7071 -6.504 365.4727)" fill="#0E8778" width="2" height="904.4"/>
			</g>
			<g>
				
					<rect x="448.6" y="-273.3" transform="matrix(0.7071 -0.7071 0.7071 0.7071 5.1586 370.3035)" fill="#0E8778" width="2" height="904.4"/>
			</g>
			<g>
				
					<rect x="460.2" y="-284.9" transform="matrix(0.7071 -0.7071 0.7071 0.7071 16.8212 375.1343)" fill="#0E8778" width="2" height="904.4"/>
			</g>
			<g>
				
					<rect x="471.9" y="-296.6" transform="matrix(0.7071 -0.7071 0.7071 0.7071 28.4838 379.9651)" fill="#0E8778" width="2" height="904.4"/>
			</g>
			<g>
				
					<rect x="483.6" y="-308.3" transform="matrix(0.7071 -0.7071 0.7071 0.7071 40.1464 384.796)" fill="#0E8778" width="2" height="904.4"/>
			</g>
			<g>
				
					<rect x="495.2" y="-319.9" transform="matrix(0.7071 -0.7071 0.7071 0.7071 51.809 389.6268)" fill="#0E8778" width="2" height="904.4"/>
			</g>
			<g>
				
					<rect x="506.9" y="-331.6" transform="matrix(0.7071 -0.7071 0.7071 0.7071 63.4716 394.4576)" fill="#0E8778" width="2" height="904.4"/>
			</g>
			<g>
				
					<rect x="518.6" y="-343.2" transform="matrix(0.7071 -0.7071 0.7071 0.7071 75.1342 399.2884)" fill="#0E8778" width="2" height="904.4"/>
			</g>
			<g>
				
					<rect x="530.2" y="-354.9" transform="matrix(0.7071 -0.7071 0.7071 0.7071 86.7968 404.1192)" fill="#0E8778" width="2" height="904.4"/>
			</g>
			<g>
				
					<rect x="541.9" y="-366.6" transform="matrix(0.7071 -0.7071 0.7071 0.7071 98.4594 408.95)" fill="#0E8778" width="2" height="904.4"/>
			</g>
			<g>
				
					<rect x="553.5" y="-378.2" transform="matrix(0.7071 -0.7071 0.7071 0.7071 110.122 413.7808)" fill="#0E8778" width="2" height="904.4"/>
			</g>
			<g>
				
					<rect x="565.2" y="-389.9" transform="matrix(0.7071 -0.7071 0.7071 0.7071 121.7849 418.6117)" fill="#0E8778" width="2" height="904.4"/>
			</g>
			<g>
				
					<rect x="576.9" y="-401.6" transform="matrix(0.7071 -0.7071 0.7071 0.7071 133.4475 423.4425)" fill="#0E8778" width="2" height="904.4"/>
			</g>
			<g>
				
					<rect x="588.5" y="-413.2" transform="matrix(0.7071 -0.7071 0.7071 0.7071 145.1101 428.2733)" fill="#0E8778" width="2" height="904.4"/>
			</g>
			<g>
				
					<rect x="600.2" y="-424.9" transform="matrix(0.7071 -0.7071 0.7071 0.7071 156.7726 433.1041)" fill="#0E8778" width="2" height="904.4"/>
			</g>
			<g>
				
					<rect x="611.9" y="-436.5" transform="matrix(0.7071 -0.7071 0.7071 0.7071 168.4352 437.9349)" fill="#0E8778" width="2" height="904.4"/>
			</g>
			<g>
				
					<rect x="623.5" y="-448.2" transform="matrix(0.7071 -0.7071 0.7071 0.7071 180.0978 442.7655)" fill="#0E8778" width="2" height="904.4"/>
			</g>
			<g>
				
					<rect x="635.2" y="-459.9" transform="matrix(0.7071 -0.7071 0.7071 0.7071 191.7604 447.5963)" fill="#0E8778" width="2" height="904.4"/>
			</g>
			<g>
				
					<rect x="646.8" y="-471.5" transform="matrix(0.7071 -0.7071 0.7071 0.7071 203.423 452.4271)" fill="#0E8778" width="2" height="904.4"/>
			</g>
			<g>
				
					<rect x="658.5" y="-483.2" transform="matrix(0.7071 -0.7071 0.7071 0.7071 215.0858 457.2582)" fill="#0E8778" width="2" height="904.4"/>
			</g>
			<g>
				
					<rect x="670.2" y="-494.9" transform="matrix(0.7071 -0.7071 0.7071 0.7071 226.7484 462.0891)" fill="#0E8778" width="2" height="904.4"/>
			</g>
			<g>
				
					<rect x="681.8" y="-506.5" transform="matrix(0.7071 -0.7071 0.7071 0.7071 238.411 466.9199)" fill="#0E8778" width="2" height="904.4"/>
			</g>
			<g>
				
					<rect x="693.5" y="-518.2" transform="matrix(0.7071 -0.7071 0.7071 0.7071 250.0736 471.7507)" fill="#0E8778" width="2" height="904.4"/>
			</g>
			<g>
				
					<rect x="705.2" y="-529.8" transform="matrix(0.7071 -0.7071 0.7071 0.7071 261.7362 476.5815)" fill="#0E8778" width="2" height="904.4"/>
			</g>
			<g>
				
					<rect x="716.8" y="-541.5" transform="matrix(0.7071 -0.7071 0.7071 0.7071 273.3988 481.4123)" fill="#0E8778" width="2" height="904.4"/>
			</g>
			<g>
				
					<rect x="728.5" y="-553.2" transform="matrix(0.7071 -0.7071 0.7071 0.7071 285.0614 486.2431)" fill="#0E8778" width="2" height="904.4"/>
			</g>
			<g>
				
					<rect x="740.1" y="-564.8" transform="matrix(0.7071 -0.7071 0.7071 0.7071 296.724 491.0739)" fill="#0E8778" width="2" height="904.4"/>
			</g>
			<g>
				
					<rect x="751.8" y="-576.5" transform="matrix(0.7071 -0.7071 0.7071 0.7071 308.3866 495.9047)" fill="#0E8778" width="2" height="904.4"/>
			</g>
			<g>
				
					<rect x="763.5" y="-588.2" transform="matrix(0.7071 -0.7071 0.7071 0.7071 320.0492 500.7355)" fill="#0E8778" width="2" height="904.4"/>
			</g>
			<g>
				
					<rect x="775.1" y="-599.8" transform="matrix(0.7071 -0.7071 0.7071 0.7071 331.7118 505.5663)" fill="#0E8778" width="2" height="904.4"/>
			</g>
			<g>
				
					<rect x="786.8" y="-611.5" transform="matrix(0.7071 -0.7071 0.7071 0.7071 343.3744 510.3971)" fill="#0E8778" width="2" height="904.4"/>
			</g>
		</g>
		<g>
			
				<rect x="798.5" y="-623.1" transform="matrix(0.7071 -0.7071 0.7071 0.7071 355.037 515.2279)" fill="#0E8778" width="2" height="904.4"/>
		</g>
	</g>
</g>
</svg>
