<?xml version="1.0" encoding="utf-8"?>
<!-- Generator: Adobe Illustrator 22.0.0, SVG Export Plug-In . SVG Version: 6.00 Build 0)  -->
<svg version="1.1" xmlns="http://www.w3.org/2000/svg" xmlns:xlink="http://www.w3.org/1999/xlink"
	 viewBox="0 0 1019.4 498.9" enable-background="new 0 0 1019.4 498.9" xml:space="preserve">
<path id="plane-path" fill="none" stroke="#191919" stroke-linecap="round" stroke-linejoin="round" stroke-dasharray="5,5" stroke-miterlimit="10" d="
	M83.6,77.7c0,0,147-107.4,255,51c92,135,173.2,286.5,355,212c249-102,274,116,274,116"/>
<g class="plane-svg">
	<path fill="#11a9bb" stroke="#0C5449" stroke-width="2" stroke-miterlimit="10" d="M74.4,87.8c15-10.3,30.1-20.6,45.1-30.9
		c0,0,0,0,0.1,0c-8.6,14.1-17.2,28.3-25.9,42.5C87.2,95.6,80.8,91.7,74.4,87.8z"/>
	<path fill="#11a9bb" stroke="#0C5449" stroke-width="2" stroke-miterlimit="10" d="M51.8,74.2c21.7-5.7,43.4-11.4,65-17.1
		c0,0,0,0,0,0.1c-0.6,0.3-1.2,0.6-1.8,0.9c-2.1,1-4.2,2-6.3,3c-2,0.9-3.9,1.9-5.9,2.8c-2.1,1-4.1,2-6.2,3c-2.4,1.1-4.8,2.3-7.2,3.4
		c-2.1,1-4.2,2-6.2,3c-3,1.4-6,2.8-8.9,4.2c-1.5,0.7-3.1,1.5-4.6,2.2c-1.6,0.7-3.1,1.5-4.7,2.2c-0.1,0.1-0.3,0-0.5,0
		c-2.4-1.4-4.7-2.8-7.1-4.3c-1.8-1.1-3.6-2.2-5.4-3.2C52,74.3,51.9,74.3,51.8,74.2z"/>
	<path fill="#11a9bb" stroke="#0C5449" stroke-width="2" stroke-miterlimit="10" d="M68.1,101.8c-1-6.5-2-12.9-3-19.3
		c17.1-8.2,34.3-16.3,51.4-24.5c0,0,0,0,0,0.1c-0.7,0.5-1.4,1-2.2,1.5c-1.9,1.3-3.8,2.6-5.6,3.8c-2.3,1.5-4.5,3.1-6.8,4.6
		c-4,2.7-7.9,5.4-11.9,8.1c-1.6,1.1-3.2,2.2-4.8,3.3c-2.3,1.6-4.7,3.2-7,4.7c-1.5,1-3.1,2.1-4.6,3.2c-0.1,0.1-0.2,0.2-0.3,0.4
		c-1,2.8-2.1,5.5-3.1,8.3c-0.7,1.8-1.4,3.6-2.1,5.5C68.2,101.7,68.1,101.7,68.1,101.8z"/>
	<path fill="#11a9bb" stroke="#0C5449" stroke-width="2" stroke-miterlimit="10" d="M73.9,88.3c2,1.2,4,2.4,6,3.6
		c-3.7,3.3-7.4,6.6-11,10c0,0,0,0-0.1,0C70.5,97.4,72.2,92.9,73.9,88.3z"/>
    <animateMotion dur="1.7s" begin="1.4s" repeatCount="1" fill="freeze" rotate="auto" path="M83.6,77.7c0,0,147-107.4,255,51c92,135,173.2,286.5,355,212c249-102,274,116,274,116">
    </animateMotion>
</g>

</svg>
