<?xml version="1.0" encoding="utf-8"?>
<!-- Generator: Adobe Illustrator 22.0.0, SVG Export Plug-In . SVG Version: 6.00 Build 0)  -->
<svg version="1.1" id="Capa_1" xmlns="http://www.w3.org/2000/svg" xmlns:xlink="http://www.w3.org/1999/xlink" x="0px" y="0px"
	 viewBox="0 0 931.2 437" enable-background="new 0 0 931.2 437" xml:space="preserve">
<g>
	
		<path fill="none" stroke="#000000" stroke-linecap="round" stroke-linejoin="round" stroke-miterlimit="10" stroke-dasharray="12,12,12,12,12,12" d="
		M0.5,36.1c0,0,147-107.4,255,51c92,135,173.2,286.5,355,212c249-102,274,116,274,116"/>
	<g>
		<path fill="#0E8778" stroke="#0C5449" stroke-width="2" stroke-miterlimit="10" d="M885.5,404.3c14.9,10.5,29.7,21.1,44.6,31.6
			c0,0,0,0,0,0.1c-16.2-3.2-32.5-6.4-48.8-9.6C882.6,419,884,411.6,885.5,404.3z"/>
		<path fill="#0E8778" stroke="#0C5449" stroke-width="2" stroke-miterlimit="10" d="M890.5,378.4c12.9,18.4,25.7,36.7,38.6,55.1
			c0,0,0,0-0.1,0c-0.5-0.5-1-0.9-1.5-1.4c-1.7-1.6-3.3-3.2-5-4.9c-1.6-1.5-3.1-3-4.7-4.6c-1.6-1.6-3.3-3.2-4.9-4.8
			c-1.9-1.9-3.8-3.7-5.7-5.6c-1.7-1.6-3.3-3.2-5-4.8c-2.4-2.3-4.7-4.6-7.1-6.9c-1.2-1.2-2.5-2.4-3.7-3.6c-1.2-1.2-2.5-2.4-3.7-3.7
			c-0.1-0.1-0.1-0.3-0.1-0.4c0.5-2.7,1-5.4,1.5-8.1c0.4-2.1,0.8-4.1,1.2-6.2C890.4,378.6,890.4,378.5,890.5,378.4z"/>
		<path fill="#0E8778" stroke="#0C5449" stroke-width="2" stroke-miterlimit="10" d="M870.1,403.2c5.7-3.2,11.4-6.3,17.1-9.5
			c13.6,13.2,27.2,26.5,40.8,39.7c0,0,0,0,0,0.1c-0.7-0.5-1.4-1-2.2-1.5c-1.9-1.3-3.7-2.6-5.6-3.9c-2.2-1.6-4.5-3.2-6.7-4.8
			c-3.9-2.8-7.8-5.5-11.7-8.3c-1.6-1.1-3.2-2.2-4.8-3.3c-2.3-1.6-4.6-3.3-6.9-4.9c-1.5-1.1-3-2.2-4.6-3.2c-0.1-0.1-0.3-0.1-0.4-0.1
			c-3,0-5.9,0-8.9-0.1c-1.9,0-3.9,0-5.8,0C870.3,403.2,870.3,403.2,870.1,403.2z"/>
		<path fill="#0E8778" stroke="#0C5449" stroke-width="2" stroke-miterlimit="10" d="M884.8,404c-0.4,2.3-0.9,4.6-1.3,6.9
			c-4.4-2.3-8.8-4.6-13.2-6.9c0,0,0,0,0-0.1C875.2,403.9,880,404,884.8,404z"/>
	</g>
</g>
</svg>
