<?xml version="1.0" encoding="utf-8"?>
<svg version="1.1" xmlns="http://www.w3.org/2000/svg" xmlns:xlink="http://www.w3.org/1999/xlink" x="0px" y="0px"
	 viewBox="0 0 87.5 150.5" enable-background="new 0 0 87.5 150.5" xml:space="preserve">
<g>
  			<linearGradient id="SVGID_86_" gradientUnits="userSpaceOnUse">
				<stop  offset="0" style="stop-color:#11CEBB"/>
				<stop  offset="0.1238" style="stop-color:#11C3B4"/>
				<stop  offset="0.3396" style="stop-color:#10A7A1"/>
				<stop  offset="0.5652" style="stop-color:#0F8288"/>
			</linearGradient>
	<g>
		<path fill="url(#SVGID_86_)" d="M46.1,120.9c0,0-45-7.4-46-27.3s16.6-4.5,20.1-6.8s-22.4-29-14.6-31s10.9,7,11.7,1.6
			c0.8-5.3-15.4-24.4-6.2-28.8s8.4,7.2,10.3,1.4c1.8-5.8-4.3-24,7.4-29.2s6.9,12.7,6.9,12.7s-5.1,23.6-2.8,22c2.3-1.6,6-12.1,9-11.5
			c3.1,0.6,4.1,14.3-0.8,20.9s-2.5,8.5,7.6,5.2s10.9,6.6,5.1,16.2s-8,17.2,2.5,10.3c10.5-7,19.1-7.6,16.8,7.6S63.9,103,46.1,120.9z"
			/>
		<g>
			<path fill="#0A564D" d="M50.4,123.8c-5.6-7.9-10-16.6-13.8-25.5c-1.9-4.5-3.5-9.1-5-13.7c-1.5-4.6-2.6-9.4-3.6-14.1
				c-1.9-9.5-3-19.3-2.6-29.1c0.3-9.7,2.1-19.5,5.5-28.5c-1.8,9.5-2.6,19-2.3,28.5l0,1.8l0.1,1.8c0.1,1.2,0.1,2.4,0.2,3.6
				c0.2,2.4,0.4,4.7,0.7,7.1c0.5,4.7,1.3,9.4,2.3,14.1c0.9,4.7,2.1,9.3,3.4,13.9c1.3,4.6,2.7,9.1,4.3,13.7
				C42.6,106.2,46.2,115.1,50.4,123.8z"/>
			<path fill="#0A564D" d="M53.9,88.4c-0.2,0.9-0.4,1.8-0.6,2.7c-0.3,0.8-0.6,1.7-1,2.6c-0.8,1.7-1.8,3.2-3,4.7
				c-1.2,1.4-2.7,2.7-4.2,3.8c-0.8,0.5-1.6,1-2.5,1.5c-0.4,0.2-0.9,0.4-1.3,0.6c-0.5,0.2-0.9,0.3-1.5,0.5c-0.2,0-0.3,0.1-0.5,0.1
				c-1.7-0.1-3.2-0.3-4.8-0.6c-1.6-0.3-3.1-0.7-4.6-1.3c-1.5-0.5-3-1.2-4.4-2c-1.4-0.8-2.7-1.7-3.9-2.8c1.6,0.4,3,0.8,4.5,1.1
				c1.5,0.3,3,0.6,4.4,0.8c1.5,0.2,3,0.4,4.4,0.5c1.5,0.1,3,0.2,4.4,0.3l-0.5,0.1c0.2-0.1,0.7-0.2,1-0.4c0.4-0.1,0.7-0.3,1.1-0.5
				c0.7-0.4,1.4-0.7,2.1-1.1c1.4-0.8,2.7-1.8,4-2.8c0.3-0.3,0.6-0.6,0.9-0.8c0.3-0.3,0.6-0.6,0.9-0.9l0.9-0.9l0.9-0.9
				c0.6-0.6,1.1-1.3,1.7-2C52.8,89.9,53.3,89.1,53.9,88.4z"/>
			<path fill="#0A564D" d="M43.2,61.1c-0.6,1.7-1.4,3.2-2.3,4.7c-0.9,1.5-1.8,2.9-2.8,4.3c-2,2.8-4.1,5.4-6.4,7.9l0,0
				c-0.4,0.5-1,0.7-1.6,0.6c-0.9-0.1-1.7-0.2-2.5-0.3c-0.8-0.1-1.6-0.3-2.4-0.6c-1.6-0.4-3.1-1-4.5-1.8c-1.4-0.8-2.8-1.8-3.9-2.9
				c-1.1-1.2-2-2.6-2.4-4.1c1.2,1.1,2.3,2,3.6,2.7c1.3,0.7,2.6,1.2,4,1.6c1.4,0.4,2.8,0.7,4.2,1c1.4,0.2,2.9,0.5,4.2,0.5l-1.6,0.7
				c2.2-2.5,4.5-5,6.9-7.4c1.2-1.2,2.4-2.4,3.7-3.5C40.6,63.4,41.8,62.2,43.2,61.1z"/>
			<path fill="#0A564D" d="M38,35.6c-0.3,1.9-1,3.6-1.7,5.3c-0.7,1.7-1.5,3.4-2.4,5c-1.7,3.3-3.6,6.4-5.6,9.5
				c-0.6,0.9-1.8,1.2-2.7,0.6c-0.1-0.1-0.2-0.2-0.3-0.3c-1.4-1.4-2.6-2.9-3.9-4.4c-1.2-1.5-2.3-3.1-3.3-4.8c-1-1.7-1.9-3.4-2.6-5.3
				c-0.7-1.8-1.3-3.8-1.1-5.8c0.7,1.8,1.7,3.3,2.8,4.8c1.1,1.5,2.2,2.9,3.5,4.3c1.2,1.4,2.4,2.8,3.7,4.2c1.2,1.4,2.5,2.8,3.8,4
				l-3.1,0.3c2-3,4.1-6,6.3-9c1.1-1.5,2.2-2.9,3.3-4.4C35.8,38.6,37,37.2,38,35.6z"/>
		</g>
	</g>
	<g>
		<path fill="#11CEBB" d="M56.6,109.5c0,0,30.2-5,30.9-18.3c0.7-13.4-11.2-3-13.5-4.5c-2.3-1.5,15-19.4,9.8-20.8
			c-5.2-1.4-7.3,4.7-7.9,1.1c-0.6-3.6,10.3-16.4,4.1-19.3c-6.2-2.9-5.6,4.8-6.9,1c-1.2-3.9,2.9-16.1-5-19.6s-4.6,8.5-4.6,8.5
			s3.4,15.8,1.9,14.7c-1.5-1.1-4-8.1-6.1-7.7c-2.1,0.4-2.8,9.6,0.6,14c3.3,4.4,1.7,5.7-5.1,3.5s-7.3,4.4-3.4,10.9
			c3.9,6.5,5.4,11.6-1.7,6.9S36.9,74.8,38.4,85S44.6,97.5,56.6,109.5z"/>
		<g>
			<path fill="#0A564D" d="M53.7,111.4c2.5-6,4.8-12,6.8-18c2-6.1,3.7-12.2,4.9-18.4c0.7-3.1,1.2-6.2,1.6-9.4
				c0.2-1.6,0.4-3.1,0.5-4.7c0.1-0.8,0.1-1.6,0.2-2.4c0.1-0.8,0.1-1.6,0.1-2.4c0.3-6.3-0.1-12.7-1.1-19.1c2.5,6,3.9,12.5,4.2,19.1
				c0.2,3.3,0.1,6.6-0.2,9.9c-0.3,3.3-0.7,6.5-1.4,9.8c-1.3,6.4-3.4,12.7-6,18.7C60.8,100.5,57.7,106.3,53.7,111.4z"/>
			<path fill="#0A564D" d="M51.4,87.8c0.9,0.9,1.7,1.8,2.5,2.5c0.8,0.8,1.7,1.5,2.5,2.2c0.9,0.7,1.7,1.2,2.7,1.7
				c0.4,0.3,0.9,0.5,1.4,0.7c0.2,0.1,0.5,0.2,0.7,0.3c0.2,0.1,0.5,0.2,0.6,0.2l-0.5-0.1c0.9,0,1.9-0.1,2.8-0.1c1-0.1,2-0.1,2.9-0.2
				c1-0.1,2-0.2,3-0.3c1-0.1,2-0.3,3.1-0.4c-0.7,0.8-1.6,1.6-2.5,2.2c-0.9,0.6-1.9,1.1-2.9,1.5c-1,0.4-2.1,0.7-3.1,1
				c-1.1,0.2-2.1,0.4-3.3,0.5c-0.2,0-0.3,0-0.5-0.1l0,0c-0.5-0.1-0.8-0.2-1.1-0.4c-0.3-0.1-0.6-0.3-0.9-0.4c-0.6-0.3-1.2-0.6-1.7-1
				c-1.1-0.8-2.1-1.7-2.9-2.7c-0.8-1-1.5-2.1-1.9-3.3c-0.3-0.6-0.4-1.2-0.6-1.8C51.5,89,51.4,88.4,51.4,87.8z"/>
			<path fill="#0A564D" d="M58.6,69.4c1,0.7,1.9,1.4,2.8,2.1c0.9,0.7,1.8,1.5,2.6,2.2c1.7,1.5,3.2,3.2,4.7,4.9l-1.6-0.7
				c0.8,0,1.8-0.2,2.7-0.3c0.9-0.1,1.8-0.3,2.7-0.5c0.9-0.2,1.8-0.5,2.7-0.9c0.9-0.4,1.7-0.9,2.6-1.5c-0.2,1.1-0.7,2.1-1.4,3
				c-0.7,0.9-1.7,1.6-2.6,2.2c-1,0.6-2,1-3.1,1.3c-0.5,0.2-1.1,0.3-1.6,0.4c-0.6,0.1-1.1,0.2-1.7,0.2c-0.6,0-1.2-0.2-1.5-0.6l0-0.1
				c-1.5-1.7-3-3.5-4.2-5.4c-0.6-1-1.2-2-1.7-3C59.3,71.7,58.8,70.6,58.6,69.4z"/>
			<path fill="#0A564D" d="M62,52.4l2.5,2.8c0.8,0.9,1.6,1.9,2.4,2.8c1.5,1.9,3,3.9,4.3,5.9l-3.1-0.3l2.5-2.7l2.5-2.7
				c0.8-0.9,1.7-1.8,2.4-2.8c0.8-0.9,1.6-1.9,2.2-3.1c0.3,1.3-0.1,2.7-0.4,4c-0.4,1.3-1,2.5-1.6,3.7c-0.6,1.2-1.4,2.3-2.2,3.3
				c-0.8,1-1.6,2-2.6,3c-0.8,0.8-2,0.8-2.8,0c-0.1-0.1-0.2-0.2-0.3-0.3c-1.3-2.1-2.6-4.2-3.6-6.5c-0.5-1.1-1-2.3-1.4-3.5
				C62.5,54.9,62.1,53.7,62,52.4z"/>
		</g>
	</g>
	<g>
		<polygon fill="#9B9B9B" points="73.5,124 35.7,124 32.7,124 32.7,112.5 73.5,112.5 		"/>
		<polygon fill="#CED4D8" points="40.3,150.5 66.8,150.5 71.5,124 35.7,124 		"/>
	</g>
</g>
</svg>
