<?xml version="1.0" encoding="utf-8"?>
<!-- Generator: Adobe Illustrator 22.0.0, SVG Export Plug-In . SVG Version: 6.00 Build 0)  -->
<svg version="1.1" id="Capa_8" xmlns="http://www.w3.org/2000/svg" xmlns:xlink="http://www.w3.org/1999/xlink" x="0px" y="0px"
	 viewBox="0 0 1366 768" enable-background="new 0 0 1366 768" xml:space="preserve">
<path opacity="0.52" fill="#E4EDF4" d="M188,594c0,0-1.1-466.6,189.5-471c190.6-4.4,201.5,311,350.5,311s166.5-184,216.9-219
	c29.7-20.6,96.4-32.9,133.6,72.3S1161.7,583,1223,594H188z"/>
<path fill="#FFFFFF" d="M0,595c0,0,1304-20,1366,4C1366,599,576,695,0,595z"/>
<g>
	<path fill="#FFFFFF" d="M1323.1,434.1c0,0-9.7-11.6-31,42.2c-21.3,53.8,27.5,97.6,27.5,97.6s58.9-44.5,39.5-94.9
		C1339.7,428.6,1323.1,434.1,1323.1,434.1z"/>
	<g>
		<path d="M1321.1,560.3c-0.1,3.5-0.4,7-0.8,10.5l-1,10.3c-0.3,3.4-0.6,6.9-0.6,10.3c0,1.7,0,3.4,0.3,5.1c0.3,1.7,0.7,3.3,2,4.5
			c-0.8-0.3-1.6-0.9-2.1-1.7c-0.3-0.4-0.5-0.8-0.7-1.2c-0.2-0.4-0.4-0.8-0.6-1.3c-0.7-1.7-1-3.5-1.2-5.3c-0.5-3.6-0.4-7.2-0.1-10.7
			c0.3-3.5,0.9-7,1.7-10.5C1318.8,567,1319.8,563.6,1321.1,560.3z"/>
	</g>
</g>
<g>
	<path fill="#FFFFFF" d="M380.2,272c0,0-18.4-22.1-58.8,80.2s52.2,185.3,52.2,185.3s111.8-84.6,75-180.2S380.2,272,380.2,272z"/>
	<g>
		<path d="M376.5,511.8c-0.6,6.7-1.4,13.2-2.1,19.8c-0.8,6.6-1.5,13.1-2,19.7c-0.6,6.5-1,13.1-0.9,19.6c0.1,3.3,0.2,6.5,0.9,9.7
			c0.3,1.6,0.7,3.1,1.4,4.6c0.6,1.5,1.6,2.8,2.9,3.9c-0.8-0.3-1.5-0.8-2.1-1.4c-0.6-0.6-1.2-1.2-1.7-2c-1-1.4-1.7-3-2.3-4.6
			c-1.1-3.2-1.7-6.6-2.1-10c-0.7-6.7-0.5-13.5,0.1-20.2c0.6-6.7,1.6-13.3,3-19.8C372.6,524.6,374.3,518.1,376.5,511.8z"/>
	</g>
</g>
<g>
	<path fill="#137277" d="M884.5,101.5l12-8.9c1.2-0.7,2.8-0.7,4,0l185,108.7c1.2,0.7,2,2,2,3.4v403.7c0,1.5-0.9,2.9-2.2,3.6
		l-14.8,7.4"/>
	<path fill="#11A9BB" d="M882.5,512.7l185,105.4c2.7,1.5,6-0.4,6-3.5l1-401.8c0-1.4-0.7-2.8-2-3.5L888.5,102c-2.7-1.6-6,0.4-6,3.4
		l-2,403.7C880.5,510.6,881.3,511.9,882.5,512.7z"/>
	<path fill="#11A9BB" d="M1080.7,341.9l2.4-1.2c1.1-0.5,2.3,0.2,2.3,1.4v81.6c0,1.8-0.9,3.4-2.4,4.4l-1.8,1.2c-0.8,0.5-1.8,0-1.8-1
		v-84.4C1079.5,343,1080,342.3,1080.7,341.9z"/>
	<path fill="#137277" d="M988.5,545.5v15.7c0,1.9-2.1,3.1-3.8,2.2l-38.9-22.2c-0.8-0.4-1.3-1.3-1.3-2.2l1-16.3c0-1.9,2-3.1,3.7-2.2
		l36.7,20.6C987.5,542,988.5,543.6,988.5,545.5z"/>
	<path fill="#FFFFFF" d="M892.2,139.2l173.6,106.6c1.6,0.9,2.6,2.7,2.6,4.5l0.5,315.6c0,4-4.3,6.5-7.7,4.5l-166.8-93.4
		c-6.1-3.5-9.9-10-9.9-17.1V143.7C884.5,139.7,888.8,137.2,892.2,139.2z"/>
	<path fill="#137277" d="M989.5,180.5c-3-2-27-16-27-16"/>
	<g>
		<path fill="#137277" d="M904.6,136.6c0.1,2.7,2,4.5,4.2,3.9c2.2-0.6,3.9-2.9,3.7-5.2c-0.2-2.3-2.1-4-4.2-3.9
			C906.1,131.6,904.4,133.9,904.6,136.6z"/>
	</g>
	<g>
		<path fill="#137277" d="M892.6,129.6c0.1,2.7,2,4.5,4.2,3.9c2.2-0.6,3.9-2.9,3.7-5.2c-0.2-2.3-2.1-4-4.2-3.9
			S892.4,126.9,892.6,129.6z"/>
	</g>
	<path fill="#E2EBF2" d="M894.9,188.2l160.4,98.7c3.3,2,7.4-0.4,7.4-4.3v-25.1c0-2.3-1.2-4.4-3.1-5.6l-159.7-97.6
		c-3.3-2-7.4,0.4-7.4,4.3v25.3C892.5,185.6,893.4,187.3,894.9,188.2z"/>
	<path fill="#B9C1C6" d="M895.9,470.7l157.4,89.9c3.2,1.8,7.2-0.6,7.1-4.4l-0.8-24.4c-0.1-2.2-1.3-4.3-3.2-5.4L898,436.6
		c-3.2-1.8-7.2,0.6-7,4.4l0.7,22.7C891.8,466.6,893.4,469.3,895.9,470.7z"/>
	<path fill="#E2EBF2" d="M982.5,271.7l68.6,39.5c2,1.1,4.4-0.3,4.4-2.5v-6.6c0-2.7-1.5-5.2-3.8-6.5l-66.3-37.8
		c-2-1.1-4.4,0.3-4.4,2.5v8.8C981,270.3,981.5,271.2,982.5,271.7z"/>
	<path fill="#E2EBF2" d="M979.5,295.6l68.6,39.5c2,1.1,4.4-0.3,4.4-2.5v-9.2c0-1.1-0.6-2-1.5-2.5l-68.6-39.1c-2-1.1-4.4,0.3-4.4,2.5
		v8.8C978,294.1,978.5,295.1,979.5,295.6z"/>
	<path fill="#E2EBF2" d="M899.9,376.5l55,31.7c1.6,0.9,3.5-0.2,3.5-2v-7.4c0-0.8-0.5-1.6-1.2-2l-55-31.4c-1.6-0.9-3.5,0.2-3.5,2v7.1
		C898.8,375.3,899.2,376.1,899.9,376.5z"/>
	<g>
		<g>
			<path fill="#D8D8D8" d="M907.1,266.7l29.3,17.3c2.6,1.4,5.5-0.1,5.5-3.1v-34.5c0-2.4-1.3-4.6-3.4-5.8l-28-15.9
				c-2.6-1.5-5,0.4-5.1,3.3l-0.4,35C904.9,264.5,905.7,266,907.1,266.7z"/>
		</g>
		
			<linearGradient id="SVGID_1_" gradientUnits="userSpaceOnUse" x1="861.6321" y1="218.0027" x2="851.2569" y2="284.5691" gradientTransform="matrix(-1 0 0 1 1787.9886 0)">
			<stop  offset="0" style="stop-color:#11CEBB"/>
			<stop  offset="0.601" style="stop-color:#0F8288"/>
		</linearGradient>
		<path fill="url(#SVGID_1_)" d="M940.4,284c1.3-1.1,1.4-2.8,1.3-4.6l-0.4-35.2c0-0.9-0.5-1.7-1.2-2.2c-5.5-3.3-27.9-16.1-29.7-17
			c-1.4-0.7-2.7-0.4-3.5-0.2c-0.1,0-0.1-0.1,0-0.1l6.3-4.1c0.4-0.3,0.8-0.5,1.2-0.6c1.3-0.5,2.7-0.4,3.9,0.2l0,0
			c0.4,0.2,0.8,0.4,1.1,0.6l29.6,17.4c0.9,0.5,1.4,1.5,1.4,2.5l-0.5,35.3c0,0.9-0.5,1.8-1.2,2.3L940.4,284z"/>
	</g>
	<g>
		<g>
			<path fill="#D8D8D8" d="M950.7,367.1l29.3,17.3c2.6,1.4,5.5-0.1,5.5-3.1v-34.5c0-2.4-1.3-4.6-3.4-5.8l-28-15.9
				c-2.6-1.5-5,0.4-5.1,3.3l-0.4,35C948.6,365,949.4,366.4,950.7,367.1z"/>
		</g>
		
			<linearGradient id="SVGID_2_" gradientUnits="userSpaceOnUse" x1="817.9655" y1="318.4596" x2="807.5903" y2="385.026" gradientTransform="matrix(-1 0 0 1 1787.9886 0)">
			<stop  offset="0" style="stop-color:#11CEBB"/>
			<stop  offset="0.601" style="stop-color:#0F8288"/>
		</linearGradient>
		<path fill="url(#SVGID_2_)" d="M984,384.5c1.3-1.1,1.4-2.8,1.3-4.6l-0.4-35.2c0-0.9-0.5-1.7-1.2-2.2c-5.5-3.3-27.9-16.1-29.7-17
			c-1.4-0.7-2.7-0.4-3.5-0.2c-0.1,0-0.1-0.1,0-0.1l6.3-4.1c0.4-0.3,0.8-0.5,1.2-0.6c1.3-0.5,2.7-0.4,3.9,0.2l0,0
			c0.4,0.2,0.8,0.4,1.1,0.6l29.6,17.4c0.9,0.5,1.4,1.5,1.4,2.5l-0.5,35.3c0,0.9-0.5,1.8-1.2,2.3L984,384.5z"/>
	</g>
	<g>
		<g>
			<path fill="#D8D8D8" d="M900.1,339.2l29.3,17.3c2.6,1.4,5.5-0.1,5.5-3.1v-34.5c0-2.4-1.3-4.6-3.4-5.8l-28-15.9
				c-2.6-1.5-5,0.4-5.1,3.3l-0.4,35C897.9,337.1,898.7,338.5,900.1,339.2z"/>
		</g>
		
			<linearGradient id="SVGID_3_" gradientUnits="userSpaceOnUse" x1="868.6321" y1="290.5301" x2="858.2569" y2="357.0966" gradientTransform="matrix(-1 0 0 1 1787.9886 0)">
			<stop  offset="0" style="stop-color:#11CEBB"/>
			<stop  offset="0.601" style="stop-color:#0F8288"/>
		</linearGradient>
		<path fill="url(#SVGID_3_)" d="M933.4,356.5c1.3-1.1,1.4-2.8,1.3-4.6l-0.4-35.2c0-0.9-0.5-1.7-1.2-2.2c-5.5-3.3-27.9-16.1-29.7-17
			c-1.4-0.7-2.7-0.4-3.5-0.2c-0.1,0-0.1-0.1,0-0.1l6.3-4.1c0.4-0.3,0.8-0.5,1.2-0.6c1.3-0.5,2.7-0.4,3.9,0.2v0
			c0.4,0.2,0.8,0.4,1.1,0.6l29.6,17.4c0.9,0.5,1.4,1.5,1.4,2.5l-0.5,35.3c0,0.9-0.5,1.8-1.2,2.3L933.4,356.5z"/>
	</g>
	<g>
		<g>
			<path fill="#D8D8D8" d="M1006.6,401.6l29.3,17.3c2.6,1.4,5.5-0.1,5.5-3.1v-34.5c0-2.4-1.3-4.6-3.4-5.8l-28-15.9
				c-2.6-1.5-5,0.4-5.1,3.3l-0.4,35C1004.5,399.4,1005.3,400.9,1006.6,401.6z"/>
		</g>
		
			<linearGradient id="SVGID_4_" gradientUnits="userSpaceOnUse" x1="762.0742" y1="352.9037" x2="751.699" y2="419.4701" gradientTransform="matrix(-1 0 0 1 1787.9886 0)">
			<stop  offset="0" style="stop-color:#11CEBB"/>
			<stop  offset="0.601" style="stop-color:#0F8288"/>
		</linearGradient>
		<path fill="url(#SVGID_4_)" d="M1039.9,418.9c1.3-1.1,1.4-2.8,1.3-4.6l-0.4-35.2c0-0.9-0.5-1.7-1.2-2.2
			c-5.5-3.3-27.9-16.1-29.7-17c-1.4-0.7-2.7-0.4-3.5-0.2c-0.1,0-0.1-0.1,0-0.1l6.3-4.1c0.4-0.3,0.8-0.5,1.2-0.6
			c1.3-0.5,2.7-0.4,3.9,0.2l0,0c0.4,0.2,0.8,0.4,1.1,0.6l29.6,17.4c0.9,0.5,1.4,1.5,1.4,2.5l-0.5,35.3c0,0.9-0.5,1.8-1.2,2.3
			L1039.9,418.9z"/>
	</g>
	<g>
		<path fill="#913F02" d="M1020,478.3l-52.2-30.9c-0.5-0.3-0.8-0.8-0.8-1.4l-4.9-45.2c0-1.3,6.3-3,7.4-2.4l0,0l76.4,44.1
			c1,0.6,1.6,1.6,1.6,2.7v47.2c0,0.6-0.3,1.2-0.9,1.5l-3.2,1.8c-0.2,0.1-0.7,0.3-1.1,0.3c-0.2,0-0.5,0-0.7,0l-0.7-0.2
			c-1.8-0.5-1.7,1-1.8,2.2l-0.4,13.2c0.1,1.6-0.5,2.5-2.1,2.7l-0.9,0.2c-1.3,0.2-2.1,0.2-2.5-1.1l-11.8-32.9
			C1021.1,479.2,1020.6,478.7,1020,478.3z"/>
		<path fill="#CC5C00" d="M964.5,401.4l76.2,43.9c1.1,0.7,1.8,1.9,1.8,3.2v47c0,0.4-0.4,0.7-0.8,0.5l-5.4-2.3
			c-0.4-0.2-0.8,0.1-0.8,0.5l-0.9,19c0,0.6-0.8,0.8-1.1,0.3l-17.4-31.5c-0.1-0.1-0.1-0.2-0.2-0.2l-49.7-29.4
			c-2.6-1.5-4.2-4.3-4.2-7.3v-44.1c0-0.5,0.5-0.7,0.9-0.5L964.5,401.4z"/>
		<g>
			<path fill="#FFFFFF" d="M974.8,435.8c0.4,4.4,3,6.7,5.8,5.1c2.8-1.5,4.9-5.3,4.7-8.7c-0.2-3.5-2.8-5.9-5.8-5.5
				C976.5,427.3,974.4,431.4,974.8,435.8z"/>
		</g>
		<g>
			<path fill="#FFFFFF" d="M993.6,447c0.4,4.4,3,6.7,5.8,5.1c2.8-1.5,4.9-5.3,4.7-8.7c-0.2-3.5-2.8-5.9-5.8-5.5
				C995.3,438.4,993.2,442.5,993.6,447z"/>
		</g>
		<g>
			<path fill="#FFFFFF" d="M1013.9,457.6c0.4,4.4,3,6.7,5.8,5.1c2.8-1.5,4.9-5.3,4.7-8.7c-0.2-3.5-2.8-5.9-5.8-5.5
				C1015.6,449,1013.5,453.1,1013.9,457.6z"/>
		</g>
	</g>
	<path opacity="0.13" fill="#9B9B9B" d="M989.3,629.6c0,0-114.9-44.3-80.4-10.7s177.7,75.2,140.4,47.6
		C1000.5,630.3,998.8,641.7,989.3,629.6z"/>
</g>
<g>
	<g>
		<path fill="#11CEBB" d="M158.8,557.3c0,0-67.1-11-68.6-40.8s24.8-6.7,30-10.1c5.2-3.4-33.4-43.2-21.8-46.3s16.2,10.4,17.5,2.5
			c1.2-8-23-36.5-9.2-42.9s12.6,10.7,15.3,2.1s-6.4-35.9,11-43.5s10.3,19,10.3,19s-7.6,35.2-4.2,32.8c3.4-2.5,8.9-18.1,13.5-17.2
			c4.6,0.9,6.1,21.3-1.2,31.2c-7.4,9.9-3.7,12.6,11.3,7.7c15-4.9,16.2,9.8,7.7,24.2c-8.6,14.4-12,25.7,3.7,15.3
			c15.6-10.4,28.5-11.3,25.1,11.3C195.9,525.5,185.4,530.7,158.8,557.3z"/>
		<g>
			<g>
				<path fill="#0A564D" d="M165.2,561.6c-4-6-7.6-12.3-10.9-18.7c-3.3-6.4-6.3-13-9-19.7c-2.7-6.7-5.1-13.5-7.3-20.4
					c-2.1-6.9-3.9-13.9-5.4-21c-1.5-7.1-2.5-14.3-3.2-21.5c-0.7-7.2-1-14.5-0.8-21.7c0.1-7.2,0.9-14.5,2.1-21.6l1-5.3
					c0.4-1.8,0.8-3.5,1.3-5.3c0.8-3.5,2-6.9,3.1-10.4l-1,5.3c-0.2,0.9-0.4,1.8-0.5,2.6l-0.4,2.7c-0.3,1.8-0.6,3.5-0.8,5.3l-0.6,5.3
					c-0.7,7.1-1,14.2-0.9,21.3l0,2.7l0.1,2.7c0.1,1.8,0.1,3.6,0.3,5.3c0.3,3.5,0.5,7.1,1,10.6c0.4,3.5,0.9,7.1,1.4,10.6l0.9,5.3
					c0.3,1.8,0.7,3.5,1,5.2c1.4,7,3.1,13.9,5.1,20.8c1.9,6.9,4.2,13.6,6.6,20.4C153.1,535.6,158.7,548.8,165.2,561.6z"/>
			</g>
			<g>
				<path fill="#0A564D" d="M170.4,508.9c-0.4,1.3-0.7,2.6-1.2,3.8c-0.3,0.6-0.5,1.2-0.8,1.9c-0.3,0.6-0.6,1.2-0.9,1.8
					c-1.2,2.4-2.9,4.6-4.7,6.7c-1.8,2.1-4,3.9-6.3,5.4c-1.1,0.8-2.4,1.5-3.6,2.1c-0.6,0.3-1.3,0.6-1.9,0.9c-0.7,0.3-1.3,0.5-2.1,0.7
					c-0.2,0-0.3,0.1-0.5,0.1c-2.5-0.1-4.8-0.4-7.1-0.8c-2.3-0.4-4.6-1-6.8-1.7c-2.2-0.7-4.4-1.6-6.5-2.7c-2.1-1-4.1-2.3-5.9-3.8
					c2.2,0.7,4.4,1.5,6.6,2c2.2,0.6,4.4,1.1,6.6,1.5c2.2,0.4,4.4,0.7,6.6,1c2.2,0.2,4.5,0.4,6.6,0.5l-0.5,0.1
					c0.4-0.1,1.1-0.3,1.6-0.6c0.6-0.2,1.1-0.5,1.7-0.7c1.1-0.5,2.2-1.1,3.3-1.8c2.1-1.3,4.2-2.8,6-4.5c0.5-0.4,0.9-0.9,1.4-1.3
					c0.5-0.4,0.9-0.9,1.3-1.4l1.3-1.4l1.2-1.5c0.9-1,1.6-2.1,2.4-3.1c0.4-0.5,0.7-1.1,1.1-1.6C169.7,510,170,509.5,170.4,508.9z"/>
			</g>
			<g>
				<path fill="#0A564D" d="M154.5,468.2c-1,2.3-2.4,4.5-3.8,6.7c-1.4,2.1-2.9,4.2-4.4,6.2c-3,4.1-6.3,7.9-9.7,11.7l0,0
					c-0.4,0.5-1,0.7-1.6,0.6c-1.3-0.1-2.4-0.2-3.6-0.5c-1.2-0.2-2.3-0.5-3.5-0.8c-2.3-0.6-4.5-1.4-6.7-2.5c-2.1-1.1-4.1-2.4-5.9-4.1
					c-1.7-1.7-3.1-3.7-3.9-5.8c1.5,1.7,3.2,3.2,5.1,4.3c1.9,1.1,3.9,2,5.9,2.7c2,0.7,4.2,1.2,6.3,1.7c2.1,0.4,4.4,0.7,6.4,0.9
					l-1.6,0.7c3.3-3.8,6.7-7.5,10.2-11.1c1.7-1.8,3.5-3.6,5.3-5.4L154.5,468.2z"/>
			</g>
			<g>
				<path fill="#0A564D" d="M146.8,430.2c-0.6,2.7-1.8,5.2-3,7.7c-1.2,2.5-2.4,4.9-3.8,7.3c-1.3,2.4-2.7,4.8-4.1,7.1
					c-1.4,2.3-2.9,4.7-4.4,7c-0.6,0.9-1.8,1.2-2.7,0.6c-0.1-0.1-0.2-0.2-0.3-0.3c-2-2.1-3.9-4.2-5.7-6.5c-1.8-2.2-3.5-4.5-5.1-7
					c-0.8-1.2-1.5-2.5-2.2-3.7c-0.7-1.3-1.3-2.6-1.9-3.9c-1.1-2.7-2.1-5.5-2-8.4c0.9,2.7,2.3,5.1,3.8,7.5c1.5,2.3,3.2,4.5,4.9,6.7
					c1.8,2.1,3.5,4.3,5.4,6.4c1.8,2.1,3.7,4.2,5.6,6.1l-3.1,0.3c3-4.5,6-9.1,9.2-13.5l4.7-6.7C143.8,434.7,145.4,432.5,146.8,430.2z
					"/>
			</g>
		</g>
	</g>
	<g>
		<path fill="#11CEBB" d="M174.5,540.4c0,0,45-7.4,46-27.3c1-19.9-16.6-4.5-20.1-6.8c-3.5-2.3,22.4-29,14.6-31
			c-7.8-2.1-10.9,7-11.7,1.6c-0.8-5.3,15.4-24.5,6.2-28.8s-8.4,7.2-10.3,1.4c-1.8-5.8,4.3-24-7.4-29.2s-6.9,12.7-6.9,12.7
			s5.1,23.6,2.8,22c-2.3-1.6-6-12.1-9-11.5s-4.1,14.3,0.8,20.9c4.9,6.6,2.5,8.5-7.6,5.2c-10.1-3.3-10.9,6.6-5.1,16.2
			c5.8,9.7,8,17.2-2.5,10.3c-10.5-7-19.1-7.6-16.8,7.6S156.7,522.5,174.5,540.4z"/>
		<g>
			<g>
				<path fill="#0A564D" d="M170.2,543.2c4.1-8.7,7.7-17.6,10.9-26.6c1.5-4.5,3-9.1,4.3-13.7c1.3-4.6,2.4-9.2,3.4-13.9
					c1-4.6,1.7-9.3,2.3-14.1c0.3-2.4,0.5-4.7,0.7-7.1c0.1-1.2,0.1-2.4,0.2-3.6l0.1-1.8l0-1.8c0.3-9.5-0.6-19-2.3-28.5
					c3.4,9.1,5.1,18.8,5.5,28.5c0.4,9.8-0.6,19.5-2.6,29.1c-1,4.8-2.2,9.5-3.7,14.1c-1.5,4.6-3.1,9.2-5,13.7
					C180.3,526.7,175.8,535.3,170.2,543.2z"/>
			</g>
			<g>
				<path fill="#0A564D" d="M166.7,507.9c0.6,0.7,1.1,1.4,1.7,2.1c0.6,0.7,1.1,1.4,1.7,2l0.9,0.9l0.9,0.9c0.3,0.3,0.6,0.6,0.9,0.9
					c0.3,0.3,0.6,0.6,0.9,0.8c1.3,1.1,2.6,2,4,2.8c0.7,0.4,1.4,0.8,2.1,1.1c0.4,0.2,0.7,0.3,1.1,0.5c0.3,0.1,0.8,0.3,1,0.4l-0.5-0.1
					c1.4,0,2.9-0.1,4.4-0.3c1.5-0.1,3-0.3,4.4-0.5c1.5-0.2,3-0.5,4.4-0.8c1.5-0.3,3-0.7,4.5-1.1c-1.2,1.1-2.5,2-3.9,2.8
					c-1.4,0.8-2.9,1.5-4.4,2c-1.5,0.5-3.1,1-4.6,1.3c-1.6,0.3-3.1,0.5-4.8,0.6c-0.2,0-0.4,0-0.5-0.1c-0.6-0.2-1-0.3-1.5-0.5
					c-0.5-0.2-0.9-0.4-1.3-0.6c-0.9-0.4-1.7-0.9-2.5-1.5c-1.6-1.1-3-2.4-4.2-3.8c-1.2-1.5-2.3-3-3-4.7c-0.4-0.8-0.7-1.7-1-2.6
					C167.1,509.7,166.9,508.8,166.7,507.9z"/>
			</g>
			<g>
				<path fill="#0A564D" d="M177.4,480.6c1.3,1.1,2.6,2.3,3.9,3.4c1.3,1.1,2.5,2.3,3.7,3.5c2.4,2.4,4.7,4.8,6.9,7.4l-1.6-0.7
					c1.3-0.1,2.8-0.3,4.2-0.5c1.4-0.3,2.8-0.6,4.2-1c1.4-0.4,2.7-1,4-1.6c1.3-0.7,2.4-1.6,3.6-2.7c-0.4,1.5-1.3,2.9-2.4,4.1
					c-1.1,1.2-2.5,2.1-3.9,2.9c-1.4,0.8-3,1.4-4.5,1.8c-0.8,0.2-1.6,0.4-2.4,0.6c-0.8,0.2-1.6,0.3-2.5,0.3c-0.6,0-1.2-0.2-1.5-0.6
					l0,0c-2.3-2.5-4.4-5.2-6.4-7.9c-1-1.4-1.9-2.8-2.8-4.3C178.8,483.8,178,482.2,177.4,480.6z"/>
			</g>
			<g>
				<path fill="#0A564D" d="M182.5,455.1c1.1,1.5,2.2,2.9,3.4,4.4c1.1,1.4,2.2,2.9,3.3,4.4c2.2,2.9,4.3,5.9,6.3,9l-3.1-0.3
					c1.3-1.3,2.5-2.7,3.8-4c1.3-1.4,2.5-2.8,3.7-4.2c1.2-1.4,2.4-2.8,3.5-4.3c1.1-1.5,2.1-3,2.8-4.8c0.2,2-0.4,3.9-1.1,5.8
					c-0.7,1.9-1.6,3.6-2.6,5.3c-1,1.7-2.1,3.3-3.3,4.8c-1.2,1.5-2.5,3-3.9,4.4c-0.8,0.8-2,0.8-2.8,0c-0.1-0.1-0.2-0.2-0.3-0.3
					c-2-3.1-3.9-6.3-5.6-9.5c-0.8-1.6-1.6-3.3-2.4-5C183.6,458.7,182.8,457,182.5,455.1z"/>
			</g>
		</g>
	</g>
	<g>
		<polygon fill="#9B9B9B" points="199.8,561.9 143.4,561.9 138.9,561.9 138.9,544.8 199.8,544.8 		"/>
		<polygon fill="#CED4D8" points="150.2,601.5 189.7,601.5 196.8,561.9 143.4,561.9 		"/>
	</g>
</g>
<g>
	<g>
		<path fill="#11CEBB" d="M860.9,562.1c0,0-47.7-7.8-48.8-29c-1.1-21.1,17.6-4.8,21.3-7.2c3.7-2.4-23.7-30.7-15.5-32.9
			c8.3-2.2,11.5,7.4,12.4,1.7c0.9-5.7-16.3-25.9-6.5-30.5c9.8-4.6,8.9,7.6,10.9,1.5c2-6.1-4.6-25.5,7.8-30.9
			c12.4-5.4,7.3,13.5,7.3,13.5s-5.4,25-3,23.3c2.4-1.7,6.3-12.8,9.6-12.2c3.3,0.7,4.4,15.1-0.9,22.2c-5.2,7-2.6,9,8.1,5.5
			c10.7-3.5,11.5,7,5.4,17.2s-8.5,18.3,2.6,10.9c11.1-7.4,20.2-8,17.9,8.1C887.2,539.5,879.8,543.2,860.9,562.1z"/>
		<g>
			<g>
				<path fill="#0A564D" d="M865.5,565.2c-5.9-8.4-10.6-17.6-14.5-27.1c-2-4.7-3.7-9.6-5.3-14.5c-1.5-4.9-2.8-9.9-3.9-15
					c-2-10.1-3.1-20.5-2.7-30.8c0.3-10.3,2.2-20.6,5.7-30.2c-1.9,10.1-2.8,20.2-2.6,30.2l0,1.9l0.1,1.9c0.1,1.3,0.1,2.5,0.2,3.8
					c0.2,2.5,0.4,5,0.7,7.5c0.6,5,1.4,10,2.4,14.9c1,4.9,2.2,9.8,3.6,14.7c1.3,4.9,2.9,9.7,4.6,14.5
					C857.2,546.5,861,556,865.5,565.2z"/>
			</g>
			<g>
				<path fill="#0A564D" d="M869.2,527.7c-0.2,0.9-0.4,1.9-0.7,2.8c-0.3,0.9-0.7,1.8-1.1,2.7c-0.8,1.8-2,3.4-3.2,4.9
					c-1.3,1.5-2.8,2.8-4.5,4c-0.8,0.6-1.7,1.1-2.6,1.5c-0.5,0.2-0.9,0.4-1.4,0.6c-0.5,0.2-0.9,0.4-1.6,0.5c-0.2,0-0.3,0.1-0.5,0.1
					c-1.8-0.1-3.4-0.3-5.1-0.6c-1.7-0.3-3.3-0.8-4.9-1.3c-1.6-0.5-3.1-1.2-4.6-2.1c-1.5-0.8-2.9-1.8-4.1-2.9
					c1.6,0.4,3.2,0.9,4.8,1.2c1.6,0.3,3.1,0.6,4.7,0.9c1.6,0.2,3.1,0.4,4.7,0.6c1.5,0.1,3.2,0.3,4.6,0.3L853,541
					c0.3-0.1,0.7-0.2,1.1-0.4c0.4-0.1,0.8-0.3,1.2-0.5c0.8-0.4,1.5-0.8,2.3-1.2c1.5-0.9,2.9-1.9,4.3-3c0.3-0.3,0.7-0.6,1-0.9
					c0.3-0.3,0.7-0.6,1-0.9l1-1l0.9-1c0.7-0.7,1.2-1.4,1.8-2.1C868,529.2,868.5,528.5,869.2,527.7z"/>
			</g>
			<g>
				<path fill="#0A564D" d="M857.8,498.8c-0.6,1.7-1.5,3.3-2.5,4.9c-0.9,1.6-1.9,3.1-3,4.5c-2.1,2.9-4.4,5.7-6.8,8.4l0,0
					c-0.4,0.5-1,0.7-1.6,0.6c-1-0.1-1.8-0.2-2.6-0.3c-0.8-0.2-1.7-0.3-2.5-0.6c-1.6-0.5-3.3-1.1-4.8-1.9c-1.5-0.8-2.9-1.8-4.2-3.1
					c-1.2-1.3-2.1-2.8-2.6-4.4c1.2,1.2,2.4,2.1,3.8,2.9c1.4,0.7,2.8,1.3,4.2,1.8c1.4,0.5,2.9,0.8,4.4,1.1c1.5,0.3,3.1,0.5,4.5,0.6
					l-1.6,0.7c2.3-2.7,4.8-5.3,7.3-7.8c1.3-1.3,2.5-2.5,3.9-3.7C855.1,501.2,856.4,500,857.8,498.8z"/>
			</g>
			<g>
				<path fill="#0A564D" d="M852.4,471.8c-0.3,2-1.1,3.8-1.9,5.6c-0.8,1.8-1.6,3.6-2.5,5.3c-1.8,3.5-3.8,6.8-5.9,10.1
					c-0.6,0.9-1.8,1.2-2.7,0.6c-0.1-0.1-0.2-0.2-0.3-0.3c-1.5-1.5-2.8-3-4.1-4.6c-1.3-1.6-2.5-3.3-3.5-5c-1.1-1.7-2-3.6-2.8-5.5
					c-0.7-1.9-1.4-4-1.2-6.1c0.7,1.9,1.8,3.6,3,5.2c1.1,1.6,2.4,3.1,3.6,4.6c1.3,1.5,2.6,3,3.9,4.4c1.3,1.5,2.7,2.9,4,4.3l-3.1,0.3
					c2.1-3.2,4.3-6.4,6.6-9.5c1.1-1.6,2.3-3.1,3.5-4.6C850,474.9,851.3,473.4,852.4,471.8z"/>
			</g>
		</g>
	</g>
	<g>
		<path fill="#11CEBB" d="M872.1,550.1c0,0,32-5.3,32.7-19.4c0.7-14.2-11.8-3.2-14.3-4.8c-2.5-1.6,15.9-20.6,10.4-22
			c-5.5-1.5-7.7,5-8.3,1.2c-0.6-3.8,10.9-17.4,4.4-20.4c-6.6-3.1-6,5.1-7.3,1c-1.3-4.1,3.1-17.1-5.3-20.7c-8.3-3.6-4.9,9.1-4.9,9.1
			s3.6,16.8,2,15.6s-4.2-8.6-6.4-8.2c-2.2,0.4-2.9,10.2,0.6,14.9c3.5,4.7,1.8,6-5.4,3.7c-7.2-2.3-7.7,4.7-3.6,11.5s5.7,12.3-1.8,7.3
			c-7.4-5-13.6-5.4-12,5.4S859.4,537.4,872.1,550.1z"/>
		<g>
			<g>
				<path fill="#0A564D" d="M869,552.1c2.7-6.3,5.2-12.7,7.3-19.1c2.1-6.4,3.9-12.9,5.3-19.5c0.7-3.3,1.2-6.6,1.7-9.9
					c0.2-1.7,0.4-3.3,0.5-5c0.1-0.8,0.1-1.7,0.2-2.5c0.1-0.8,0.1-1.7,0.1-2.5c0.3-6.7-0.2-13.5-1.2-20.3c2.6,6.4,4,13.3,4.3,20.3
					c0.2,3.5,0.1,7-0.2,10.4c-0.1,1.7-0.4,3.5-0.6,5.2c-0.3,1.7-0.6,3.4-0.9,5.1c-1.4,6.8-3.6,13.5-6.3,19.8
					C876.5,540.5,873.2,546.6,869,552.1z"/>
			</g>
			<g>
				<path fill="#0A564D" d="M866.5,527c1,1,1.7,1.9,2.7,2.7c0.8,0.9,1.8,1.6,2.7,2.3c0.9,0.7,1.9,1.3,2.8,1.9c0.5,0.3,1,0.5,1.5,0.8
					c0.2,0.1,0.5,0.2,0.7,0.3c0.2,0.1,0.5,0.2,0.6,0.2l-0.5-0.1c0.9,0,2-0.1,3-0.2c1-0.1,2.1-0.2,3.1-0.3c1-0.1,2.1-0.2,3.2-0.4
					c1.1-0.1,2.1-0.4,3.3-0.5c-0.8,0.9-1.7,1.6-2.6,2.2c-1,0.6-2,1.2-3.1,1.6c-1.1,0.4-2.2,0.8-3.3,1c-1.1,0.2-2.2,0.4-3.5,0.5
					c-0.2,0-0.3,0-0.5-0.1l0,0c-0.5-0.1-0.8-0.2-1.1-0.4c-0.3-0.1-0.7-0.3-1-0.4c-0.6-0.3-1.2-0.7-1.8-1.1c-1.1-0.8-2.2-1.8-3-2.8
					c-0.8-1.1-1.6-2.2-2.1-3.5c-0.3-0.6-0.4-1.3-0.6-1.9C866.7,528.3,866.6,527.7,866.5,527z"/>
			</g>
			<g>
				<path fill="#0A564D" d="M874.1,507.6c1.1,0.7,2,1.5,3,2.2c0.9,0.8,1.9,1.6,2.7,2.4c1.8,1.6,3.4,3.4,5,5.2l-1.6-0.7
					c0.9-0.1,1.9-0.2,2.9-0.3c1-0.2,2-0.3,2.9-0.6c1-0.3,1.9-0.6,2.8-1c0.9-0.4,1.8-1,2.7-1.7c-0.2,1.1-0.8,2.2-1.6,3.2
					c-0.8,0.9-1.8,1.7-2.8,2.3c-1,0.6-2.1,1.1-3.3,1.4c-0.6,0.2-1.1,0.3-1.7,0.4c-0.6,0.1-1.1,0.2-1.8,0.3c-0.6,0-1.2-0.2-1.5-0.6
					l0-0.1c-1.6-1.8-3.1-3.7-4.5-5.7c-0.7-1-1.3-2.1-1.9-3.2C875,510,874.4,508.8,874.1,507.6z"/>
			</g>
			<g>
				<path fill="#0A564D" d="M877.8,489.5c0.9,1,1.8,2,2.6,3c0.9,1,1.7,2,2.5,3c1.6,2,3.1,4.1,4.5,6.3l-3.1-0.3
					c0.9-0.9,1.8-1.9,2.7-2.8c0.9-0.9,1.8-1.9,2.7-2.9c0.9-1,1.7-1.9,2.6-3c0.8-1,1.6-2,2.3-3.3c0.3,1.4-0.1,2.9-0.5,4.2
					c-0.4,1.4-1.1,2.7-1.8,3.9c-0.7,1.2-1.5,2.4-2.3,3.5c-0.9,1.1-1.7,2.1-2.7,3.2c-0.8,0.8-2,0.8-2.8,0c-0.1-0.1-0.2-0.2-0.3-0.3
					c-1.4-2.2-2.7-4.5-3.8-6.9c-0.6-1.2-1.1-2.4-1.5-3.7C878.3,492.2,877.9,490.9,877.8,489.5z"/>
			</g>
		</g>
	</g>
	<g>
		<polygon fill="#9B9B9B" points="890,565.4 849.9,565.4 846.7,565.4 846.7,553.2 890,553.2 		"/>
		<polygon fill="#CED4D8" points="854.8,593.5 882.9,593.5 887.9,565.4 849.9,565.4 		"/>
	</g>
</g>
<g>
	<path fill="#11A9BB" d="M1151.2,539.8c0,0,53.8,1.9,72.6-16.9c18.8-18.8,27.5-31.8,21.7-46.3c-5.8-14.5-30.4-1.4-39-5.8
		c-8.7-4.3-17.3-21.7,8.7-31.8c26-10.1,40.5-26,24.6-31.8s-30.4-2.9-5.8-23.1c24.6-20.2,26-49.1,8.7-52
		c-17.3-2.9-44.8,54.9-50.6,53.5c-5.8-1.4-21.7-28.9-31.8-4.3c-10.1,24.6,10.1,75.2-15.9,59.3c-26-15.9-59.3-33.2-57.8,4.3
		C1089,508.5,1151.2,539.8,1151.2,539.8z"/>
	<g>
		<g>
			<path fill="#09494C" d="M1141.4,599.5c0.7-12.4,2.1-24.7,3.8-37c1.7-12.3,3.8-24.5,6.2-36.7c2.4-12.2,5.2-24.3,8.3-36.3
				c1.5-6,3.3-12,5.1-18c1.8-6,3.7-11.9,5.7-17.8c2-5.9,4.2-11.7,6.4-17.6c2.3-5.8,4.6-11.6,7.2-17.3c5.1-11.4,10.7-22.6,17.3-33.2
				c6.5-10.7,13.8-20.9,22.3-30.1c8.5-9.2,18.1-17.4,29-23.4c-10.1,7.2-18.8,16-26.4,25.6c-3.8,4.8-7.4,9.7-10.7,14.9
				c-3.3,5.1-6.5,10.4-9.5,15.7c-1.5,2.7-2.9,5.4-4.3,8.1c-1.4,2.7-2.8,5.5-4.1,8.2c-2.7,5.5-5.1,11.1-7.5,16.8
				c-4.8,11.3-9.1,22.8-13.1,34.5c-4,11.6-7.6,23.4-11,35.2c-1.7,5.9-3.3,11.9-4.9,17.8c-1.5,6-3.1,11.9-4.5,17.9
				c-2.9,12-5.6,24-8.2,36.1C1146,575.2,1143.6,587.3,1141.4,599.5z"/>
		</g>
		<g>
			<path fill="#09494C" d="M1168.9,368.2c1.9,5,3.5,10,5.1,15.1c1.6,5.1,3.1,10.1,4.5,15.2c1.4,5.1,2.8,10.2,4.1,15.3
				c1.3,5.1,2.6,10.2,3.8,15.4l-4.3-2.6c5.8-1.6,11.6-3.1,17.5-4.5c5.8-1.4,11.7-2.8,17.6-4.1c5.9-1.3,11.8-2.5,17.7-3.6
				c5.9-1.1,11.9-2.1,17.9-2.9c-5.6,2.3-11.3,4.4-17,6.3c-5.7,2-11.4,3.8-17.2,5.6c-5.7,1.8-11.5,3.5-17.3,5.1
				c-5.8,1.6-11.6,3.2-17.4,4.7l0,0c-1.9,0.5-3.7-0.6-4.2-2.5c0,0,0-0.1,0-0.1c-1.2-5.2-2.2-10.3-3.3-15.5c-1-5.2-2-10.4-2.9-15.6
				c-0.9-5.2-1.8-10.4-2.5-15.7C1170.1,378.8,1169.4,373.5,1168.9,368.2z"/>
		</g>
		<g>
			<path fill="#09494C" d="M1121.2,426.1c3.7,7.1,7,14.3,10.4,21.5c3.3,7.2,6.6,14.5,9.8,21.8c3.2,7.3,6.4,14.6,9.4,21.9
				c3.1,7.3,6.1,14.7,9.1,22.1l-4.3-2c8-2.7,16-5.3,24-7.9c8-2.6,16.1-5.1,24.2-7.5l12.1-3.6l12.2-3.5c8.2-2.2,16.3-4.5,24.6-6.4
				c-7.7,3.4-15.6,6.6-23.4,9.7l-11.8,4.6l-11.9,4.4c-7.9,3-15.9,5.8-23.8,8.6c-8,2.8-15.9,5.5-24,8.2l0,0c-1.8,0.6-3.7-0.3-4.3-2
				c-2.9-7.4-5.9-14.8-8.7-22.2c-2.9-7.4-5.6-14.9-8.3-22.4c-2.8-7.5-5.4-15-8-22.5C1126,441.3,1123.5,433.7,1121.2,426.1z"/>
		</g>
	</g>
</g>
<g>
	<path fill="#11A9BB" d="M727.7,561.2c0,0-37.2,1.3-50.2-11.7s-19-22-15-32s21-1,27-4s12-15-6-22s-28-18-17-22s21-2,4-16
		s-18-34-6-36s31,38,35,37s15-20,22-3s-7,52,11,41s41-23,40,3C770.8,539.5,727.7,561.2,727.7,561.2z"/>
	<g>
		<g>
			<path fill="#09494C" d="M734.5,602.5c-2.9-16.9-6.3-33.7-10.3-50.3c-2-8.3-4.1-16.6-6.4-24.8c-2.3-8.2-4.8-16.4-7.6-24.4
				c-2.7-8.1-5.7-16-9.1-23.9c-3.3-7.8-7-15.5-11.1-22.9c-2.1-3.7-4.3-7.3-6.6-10.9c-2.3-3.6-4.8-7-7.5-10.3
				c-5.3-6.6-11.4-12.7-18.4-17.6c7.5,4.2,14.1,9.9,19.9,16.3c5.8,6.4,10.8,13.5,15.3,20.9c4.5,7.4,8.3,15.1,11.9,23
				c3.5,7.9,6.6,15.9,9.4,24.1c2.7,8.2,5.2,16.4,7.4,24.7c2.2,8.3,4.2,16.7,5.8,25.1c1.7,8.4,3.2,16.9,4.4,25.4
				C732.9,585.4,733.9,593.9,734.5,602.5z"/>
		</g>
		<g>
			<path fill="#09494C" d="M715.5,442.5c-0.4,3.7-1,7.3-1.5,10.9c-0.6,3.6-1.2,7.2-1.9,10.8c-0.7,3.6-1.4,7.2-2.1,10.8
				c-0.7,3.6-1.5,7.1-2.3,10.7c-0.2,1.1-1.3,1.7-2.3,1.5l0,0l-0.1,0c-4-1-8-2.2-12.1-3.2c-4-1.1-8-2.3-12-3.5l-6-1.8l-5.9-1.9
				c-3.9-1.3-7.9-2.7-11.8-4.2c4.1,0.6,8.2,1.4,12.3,2.2l6.1,1.3l6.1,1.3c4.1,0.9,8.1,1.9,12.1,2.9c4,1,8.1,2,12.1,3.1l-2.4,1.5
				c0.9-3.6,1.7-7.1,2.6-10.7c0.9-3.5,1.8-7.1,2.8-10.6c0.9-3.5,2-7,3-10.6C713.2,449.5,714.3,446,715.5,442.5z"/>
		</g>
		<g>
			<path fill="#09494C" d="M748.5,482.5c-1.7,5.3-3.5,10.5-5.3,15.7c-1.8,5.2-3.7,10.4-5.6,15.5c-1.9,5.2-3.9,10.3-5.8,15.4
				c-2,5.1-4,10.2-6,15.4c-0.4,1-1.5,1.5-2.5,1.2l0,0c-5.5-1.8-11.1-3.8-16.6-5.6c-5.5-2-11-3.9-16.5-5.9l-8.2-3l-8.2-3.1
				c-5.4-2.1-10.9-4.2-16.3-6.5c5.7,1.4,11.3,3,16.9,4.6l8.4,2.5l8.4,2.5c5.6,1.7,11.1,3.5,16.7,5.3c5.5,1.8,11.1,3.6,16.6,5.5
				l-2.5,1.1c2.1-5.1,4.1-10.2,6.3-15.3c2.1-5.1,4.2-10.2,6.5-15.2c2.2-5.1,4.4-10.1,6.7-15.1C743.8,492.5,746.1,487.4,748.5,482.5z
				"/>
		</g>
	</g>
</g>
<g>
	<path fill="#11A9BB" d="M277.2,580.8c0,0-14.5-11.3-4.5-28.3s32-29,34-25s-5,14-7,18s-8,27-15,31S277.2,580.8,277.2,580.8z"/>
	<g>
		<path fill="#09494C" d="M275.7,592.5c-0.2-4.7,0.1-9.5,0.8-14.2c0.6-4.7,1.7-9.4,3.1-13.9c0.7-2.3,1.5-4.5,2.5-6.7
			c1-2.2,2-4.4,3.3-6.4c1.3-2,2.8-4,4.5-5.7c1.7-1.7,3.7-3.2,5.9-4.1c-3.7,3-6.2,6.9-8.3,10.9c-1,2.1-1.9,4.2-2.7,6.3
			c-0.8,2.1-1.6,4.3-2.3,6.5c-0.7,2.2-1.3,4.4-1.9,6.7c-0.6,2.2-1.1,4.5-1.7,6.8C277.7,583.3,276.7,587.9,275.7,592.5z"/>
	</g>
</g>
<g>
	<path fill="#CC5C00" d="M265.5,582.5c0,0,6.9-0.5,11.7-8.7c3.7-6.4,4.2-14.2,1.5-21.1c-1.7-4.3-3-10.1-0.1-14.3
		c5-7,0.2-12.4-2-17.7c-1.3-3.1-3-5.9-5.1-8.5c-2.6-3.3-6.5-10.2-5.8-21.7c1-17-19-29-24-19c-2.9,5.7-2.4,12.7-1.6,17.7
		c1.3,7.2,1.5,14.6,0.3,21.8c-1,6-4.4,10.2-5.8,13.5c-4,10,6,47,15,53S265.5,582.5,265.5,582.5z"/>
	<g>
		<g>
			<path fill="#FFFFFF" d="M247.5,468.5c4.3,20.5,8.2,41,11.7,61.6c1.7,10.3,3.3,20.7,4.5,31.1c0.6,5.2,1.1,10.4,1.3,15.6
				c0.2,5.2,0.4,10.5-0.5,15.7c0,0,0,0-0.1,0c0,0,0,0,0-0.1c0.4-2.6,0.4-5.2,0.3-7.8l-0.1-3.9l-0.3-3.9c-0.4-5.2-1-10.4-1.6-15.6
				c-0.6-5.2-1.3-10.4-2-15.5c-0.7-5.2-1.5-10.3-2.3-15.5c-1.6-10.3-3.4-20.6-5.2-30.9C251.4,489,249.5,478.8,247.5,468.5
				C247.4,468.5,247.5,468.5,247.5,468.5C247.5,468.4,247.5,468.5,247.5,468.5z"/>
		</g>
		<g>
			<path fill="#FFFFFF" d="M261.5,476.7c-3.2,3.7-6.3,7.3-9.5,10.9c-0.1,0.1-0.3,0.2-0.5,0.1l0,0c-2.1-0.8-4.2-1.6-6.2-2.6
				c-1-0.5-2-1-3-1.5c-1-0.5-2-1-3-1.6c0,0,0,0,0-0.1c0,0,0,0,0.1,0c1.1,0.3,2.1,0.7,3.2,1.1c1.1,0.4,2.1,0.8,3.1,1.2
				c2.1,0.8,4.1,1.8,6.1,2.7l-0.5,0.1C254.7,483.5,258,480.1,261.5,476.7C261.4,476.6,261.5,476.6,261.5,476.7
				C261.5,476.6,261.5,476.6,261.5,476.7z"/>
		</g>
		<g>
			<path fill="#FFFFFF" d="M265.6,489.3c-3.7,3.6-7.4,7.3-11.1,10.9c-0.1,0.1-0.3,0.1-0.4,0.1l0,0c-2.3-0.7-4.5-1.5-6.8-2.3
				c-1.1-0.4-2.2-0.9-3.3-1.3c-1.1-0.5-2.2-0.9-3.3-1.5c0,0,0,0,0-0.1c0,0,0,0,0.1,0c1.2,0.3,2.3,0.6,3.5,0.9
				c1.2,0.3,2.3,0.7,3.4,1.1c2.3,0.7,4.5,1.6,6.7,2.5l-0.4,0.1C257.8,496.1,261.6,492.6,265.6,489.3
				C265.5,489.2,265.6,489.2,265.6,489.3C265.6,489.2,265.6,489.3,265.6,489.3z"/>
		</g>
		<g>
			<path fill="#FFFFFF" d="M266.9,503.4c-3.4,2.9-6.7,5.7-10.1,8.6c-0.1,0.1-0.2,0.1-0.3,0.1l0,0c-2.6-0.7-5.3-1.2-7.9-1.9
				c-1.3-0.4-2.6-0.8-3.9-1.2c-1.3-0.4-2.6-0.9-3.9-1.4c0,0,0,0,0-0.1c0,0,0,0,0.1,0c1.4,0.2,2.7,0.5,4,0.7c1.3,0.3,2.7,0.6,4,0.9
				c2.6,0.7,5.2,1.5,7.9,2.2l-0.3,0.1C259.8,508.6,263.3,506,266.9,503.4C266.8,503.3,266.9,503.3,266.9,503.4
				C266.9,503.3,266.9,503.3,266.9,503.4z"/>
		</g>
		<g>
			<path fill="#FFFFFF" d="M273.9,515.9c-4.9,3.2-9.8,6.4-14.7,9.6c-0.1,0.1-0.2,0.1-0.3,0l0,0l-5.3-1.7c-1.8-0.6-3.6-1.1-5.3-1.7
				c-1.8-0.6-3.5-1.3-5.3-1.9c-1.7-0.7-3.5-1.3-5.2-2.1c0,0,0,0,0-0.1c0,0,0,0,0.1,0c1.8,0.4,3.6,0.9,5.4,1.5
				c1.8,0.5,3.6,1.1,5.3,1.6c1.8,0.6,3.5,1.2,5.3,1.8l5.3,1.9l-0.3,0C263.8,521.8,268.9,518.8,273.9,515.9
				C273.9,515.8,273.9,515.8,273.9,515.9C274,515.8,274,515.9,273.9,515.9z"/>
		</g>
		<g>
			<path fill="#FFFFFF" d="M279.4,527l-17.8,12.9c-0.1,0.1-0.2,0.1-0.3,0.1l0,0l-7-1.5c-2.3-0.5-4.7-1-7-1.5
				c-2.3-0.5-4.6-1.1-6.9-1.7c-2.3-0.6-4.6-1.2-6.9-1.9c0,0,0,0,0-0.1c0,0,0,0,0.1,0c2.4,0.4,4.7,0.8,7,1.3c2.3,0.5,4.7,0.9,7,1.5
				c2.3,0.5,4.6,1.1,6.9,1.6l6.9,1.7l-0.3,0.1L279.4,527C279.4,526.9,279.4,526.9,279.4,527C279.5,526.9,279.5,527,279.4,527z"/>
		</g>
		<g>
			<path fill="#FFFFFF" d="M277,547l-13,10.5c-0.1,0.1-0.2,0.1-0.3,0.1l0,0l-13.9-3.9c-2.3-0.7-4.6-1.4-6.9-2.2
				c-2.3-0.8-4.6-1.5-6.8-2.4c0,0,0,0,0-0.1c0,0,0,0,0.1,0c2.4,0.5,4.7,1.1,7,1.7c2.3,0.6,4.6,1.3,6.9,1.9l13.8,4.3l-0.3,0.1
				L277,547C277,546.9,277,546.9,277,547C277,546.9,277,547,277,547z"/>
		</g>
		<g>
			<path fill="#FFFFFF" d="M280.7,559.8l-16,13c-0.1,0.1-0.2,0.1-0.3,0.1l0,0c-3.9-1.4-7.9-2.7-11.8-4.1c-2-0.7-3.9-1.5-5.8-2.3
				c-1.9-0.8-3.9-1.6-5.8-2.4c0,0,0,0,0-0.1c0,0,0,0,0.1,0c2,0.6,4,1.2,6,1.8c2,0.7,4,1.3,5.9,2c3.9,1.4,7.8,2.9,11.7,4.4l-0.4,0.1
				L280.7,559.8C280.7,559.7,280.7,559.7,280.7,559.8C280.7,559.7,280.7,559.8,280.7,559.8z"/>
		</g>
	</g>
</g>
<g>
	<path fill="#11CEBB" d="M1153.3,555.2c0,0,1.1-18.2-11.8-23.6s-18.2-8.6-20.4-5.4c-2.1,3.2,6.4,25.7,13.9,28.9
		C1142.6,558.4,1149,563.8,1153.3,555.2z"/>
	<path fill="#11CEBB" d="M1170.3,527.5c0,0,9-9,11,4s-6,37-15,28S1166.3,530.5,1170.3,527.5z"/>
	<path fill="#0E8778" d="M1181.3,582.5c0,0-4,1-5,3s-9,5-9-2s3-9,7-9S1181.3,582.5,1181.3,582.5z"/>
	<g>
		<path fill="#0A5148" d="M1173.3,536.5l-3.2,17.9c-1.1,6-2.1,11.9-3.1,17.9c-1,6-1.9,12-2.5,18c-0.2,1.5-0.4,3-0.5,4.5
			c-0.1,1.5-0.3,3-0.4,4.5c-0.1,1.5-0.2,3-0.3,4.5c0,1.5,0,3-0.1,4.6c-0.9-6-0.7-12.2-0.4-18.3c0.2-3.1,0.5-6.1,0.8-9.1
			c0.4-3,0.8-6,1.3-9.1c0.5-3,1-6,1.6-9c0.6-3,1.2-6,1.9-8.9C1169.9,548.2,1171.5,542.3,1173.3,536.5z"/>
	</g>
	<g>
		<path fill="#0A5148" d="M1135.3,538.5c4.4,2.9,8.4,6.5,11.9,10.4c3.6,3.9,6.8,8.2,9.4,12.9c2.6,4.6,4.7,9.6,5.9,14.8
			c1.3,5.2,1.6,10.6,1,15.8c-0.3-5.3-1-10.4-2.6-15.4c-0.3-1.2-0.8-2.5-1.2-3.7c-0.5-1.2-0.9-2.4-1.5-3.6c-1-2.4-2.2-4.7-3.5-6.9
			c-2.5-4.5-5.5-8.8-8.8-12.8C1142.7,545.9,1139.2,542,1135.3,538.5z"/>
	</g>
	<g>
		<path fill="#0A5148" d="M1178.3,578.5c-3.1,3.2-6,6.3-8.6,9.7l-1,1.3l-0.9,1.3c-0.6,0.9-1.2,1.8-1.7,2.7c-1.1,1.8-2,3.7-3,5.8
			c0.1-2.2,0.7-4.4,1.6-6.5c0.9-2,2-4,3.4-5.8c1.4-1.7,2.9-3.4,4.6-4.8C1174.4,580.7,1176.3,579.4,1178.3,578.5z"/>
	</g>
	<path fill="#11CEBB" d="M1190.2,586.6c0,0,5.1-7.9-1.9-11c-7-3.1-15-3.2-18-0.2c0,0,9,2.1,10.9,7.1S1187.2,589.6,1190.2,586.6z"/>
</g>
<g>
	<path fill="#CC5C00" d="M1131.5,538.6c-0.5-1.3-2.1-1.5-3.1-0.6c-1.8,2-4.4,6.6-5,16.5c-1,16,3,21,3,21S1136.3,550.7,1131.5,538.6z
		"/>
	<path fill="#CC5C00" d="M1107.8,507.5c-1.1-1.3-3.1-1-3.8,0.5c-1.3,2.6-2.7,7.3-1.5,13.5c2,10,10,40,13,39
		C1118.3,559.6,1116.8,518.3,1107.8,507.5z"/>
	<path fill="#CC5C00" d="M1113.5,568.5c0,0-20-23.5-36.5-28.3c-1.4-0.4-2.6,1.1-1.9,2.4c3.1,5.4,10.8,16.5,23.4,20.9
		C1115.5,569.5,1111.5,569.5,1113.5,568.5z"/>
	<g>
		<g>
			<path d="M1115.5,559.5c1.4,2.9,2.7,5.8,3.9,8.6c1.3,2.9,2.5,5.8,3.8,8.6c0.6,1.4,1.3,2.8,2.1,4.1c0.2,0.3,0.4,0.6,0.6,0.8
				l0.4,0.3c0.2,0.2,0.4,0.3,0.5,0.5c0.6,0.8,0.9,1.6,1.2,2.4c0.5,1.6,0.6,3.2,0.7,4.8c0.1,1.6,0,3.2-0.2,4.8
				c-0.2-1.6-0.5-3.1-0.8-4.7c-0.3-1.5-0.7-3-1.2-4.4c-0.3-0.7-0.6-1.3-1-1.8c-0.1-0.1-0.2-0.2-0.3-0.3c-0.1-0.1-0.1-0.1-0.2-0.2
				l-0.3-0.3c-0.4-0.3-0.6-0.7-0.9-1c-1-1.4-1.7-2.8-2.4-4.3c-1.3-2.9-2.4-5.9-3.4-8.9C1117,565.7,1116.1,562.6,1115.5,559.5z"/>
		</g>
		<g>
			<path d="M1126.5,574.5c0.4,0.9,0.5,1.7,0.7,2.5c0.1,0.8,0.2,1.7,0.2,2.5c0,0.8,0,1.6-0.1,2.5c-0.1,0.8-0.2,1.7-0.4,2.6
				c-0.6-0.7-1-1.6-1.2-2.4c-0.2-0.8-0.4-1.7-0.4-2.6c0-0.9,0-1.7,0.2-2.6C1125.8,576.2,1126,575.3,1126.5,574.5z"/>
		</g>
		<g>
			<path d="M1112.5,568.5c1.1-0.4,2.2-0.4,3.3-0.1c1.1,0.3,2.2,0.8,3,1.6c0.9,0.8,1.6,1.7,2.1,2.7c0.3,0.5,0.4,1.1,0.6,1.6
				c0.1,0.5,0.2,1.1,0.2,1.7c-0.4-0.4-0.7-0.8-1.1-1.2c-0.4-0.4-0.6-0.8-1-1.1c-0.6-0.7-1.3-1.4-2-2
				C1116.1,570.3,1114.5,569.3,1112.5,568.5z"/>
		</g>
	</g>
</g>
<g>
	<path fill="#AF734A" d="M810.3,435c0,0,8.2-1.6,4.9-8.8c-3.3-7.2-7.6-4.3-7.6-4.3h-8.8C798.8,421.9,801.4,436.1,810.3,435z"/>
	<path fill="#FFFFFF" d="M812.1,424.8h13.3c0,0-10.7,60.1-25.2,55.8C785.6,476.3,796.3,429.5,812.1,424.8z"/>
	<path fill="#1E0D01" d="M760.4,659.6v1.3c0,1.6,1.3,2.8,2.8,2.8h6.6c1.6,0,2.8-1.3,2.8-2.8v-2.3c0-1.7-1.6-3.1-3.3-2.8l-6.6,1
		C761.4,657.1,760.4,658.2,760.4,659.6z"/>
	<path fill="#1E0D01" d="M736,658.4l0,2.1c0,1.7,1.6,3,3.3,2.7l7.2-1.4c1.5-0.3,2.5-1.7,2.2-3.2l-0.4-2.6c-0.3-1.6-1.8-2.6-3.4-2.2
		l-6.8,1.8C736.8,656,736,657.1,736,658.4z"/>
	<path fill="#AF734A" d="M794.6,534.7c0,0-6.6,20.4-9.7,27.8c-3.2,7.4-2.6,39.7-2.9,40.8s-5.2,29.3-4.7,32.8
		c0.5,3.6-14.2,7.4-15,3.6c-0.8-3.8-6.3-39.4,0-55.5c6.3-16.1-1.4-57.7-0.5-62.7c0,0,4.7,22.4-2.4,43c-7.1,20.5-4.7,33.1-6,41.6
		c-1.4,8.5-1.4,26-1.4,29.6s-13.1,1.4-13.1,1.4s-6.3-49.8,0-72s4.7-27.4,6.8-46.5C747.8,499.3,797.1,499.5,794.6,534.7z"/>
	<path fill="#0E8778" d="M750.8,362.5c0,0-20.5,3.3-13.1,28.2c7.4,24.9,20.8,32.1,11.8,53.1c-8.7,20.1-11.1,19.8-10.3,38.1
		c0.6,13.7,4.2,29.6,4.5,40.3c0.1,4.2,2.7,8,6.5,9.7c5.9,2.6,16.3,5.3,32.5,4.2c12.5-0.9,17.3-5.6,17.2-18.1
		c-0.2-16,1.6-36.1-3.6-51.3c-6.5-18.6-0.5-21.3-0.5-21.3s8.8,5.7,16.4-9.6c0,0-2.2-11.2-6.3-9.6c-4.1,1.6-2.7,2.5-2.7,2.5
		s-11.8-47.9-12-55.3C790.8,366.1,764.8,357.9,750.8,362.5z"/>
	<path fill="#AF734A" d="M807.3,324.5c0,0,13.5-11.4,16.4-11.8c2.9-0.4,10.8-2.5,12-3.6s5.6,0.5,0,2.9c-5.6,2.3-11.4,9.2-4.5,8.6
		c6.8-0.5,10.9,3.7,1.9,3.8c-9,0.1-14.5-0.3-16.6,1.5c-2.1,1.8-9.3,6.4-9.3,6.4V324.5z"/>
	<path fill="#0E8778" d="M777,361.2l35.1-28.2c0,0-1.1-11.3-6.6-9.2s-41.3,25.6-41.3,25.6L777,361.2z"/>
	<path fill="#AF734A" d="M783.7,314.4c0,0,8.8,28.7-6.6,31.7S766.7,310.8,783.7,314.4z"/>
	<path d="M779.3,309.7l-1.6,56.8c0,0-12.5,6.8-13.3,15.5s5,27.6-8.4,29.1c-13.4,1.5-29.4,4.4-28.7-2.9c0.7-7.3,5.5-56.4,10.4-61.9
		c4.9-5.5,5.2-31.6,5.2-32.1C742.8,313.6,779.3,309.7,779.3,309.7z"/>
	<path fill="none" stroke="#0A5449" stroke-linecap="round" stroke-linejoin="round" stroke-miterlimit="10" d="M774.1,398.4
		c0,0,11,23.5,12,27.9c1.1,4.4,2.7,16.1,9.5,19.2"/>
	<path fill="#3D1900" d="M792.4,643.8c0,0,5.8,3.9,0.9,8.8c-4.9,4.9-13.2,4.8-17.6,7.8c-3.1,2.2-9.7,1.2-13.1,0.5
		c-1.3-0.3-2.2-1.4-2.2-2.8v-19.1c0-1.4,1.1-2.6,2.5-2.8l12.6-1.5c1.6-0.2,3,1,3.1,2.5c0.2,1.9,0.2,4.4-0.4,5.9
		C777.1,646,786.7,641.9,792.4,643.8z"/>
	<path fill="#3D1900" d="M754,634.5c0.3-1-0.7-2-1.7-1.7c-4.6,1.2-11.3,3.2-13.1,1.8c-2-1.5-2.7,15.9-3,23.1c-0.1,2.3,0.7,3.4,3,3.2
		c2.8-0.2,9.7-2.3,14.5-5.3c1.7-1.1,3.6-1.9,5.6-2.5l6.1-1.9c0,0,3.3-8.4-11.2-11.8C754.1,639.4,753.4,637,754,634.5z"/>
	<path fill="#CC5C00" d="M793.5,314.4h-19.8c-0.6,0-1.2,0.2-1.8,0.5c-3.1,2-15.2,9-33.1,8.9c-1.6,0-3-1.2-3.3-2.8
		c-1.2-7.9-2.4-30.2,21.3-30.9c18.9-0.5,25.6,9.1,28,15.7C786.3,309.8,789.4,313,793.5,314.4L793.5,314.4z"/>
	<path fill="#FFFFFF" d="M770.3,316.1c0,0-7.2,21.8-29.1,20.7c0,0-8.4-3.6-5.2-13.1l5.2,0.1c0,0-0.5,9.8,8.5,5.1c9-4.7,9-8,9-8
		L770.3,316.1z"/>
</g>
<g opacity="0.13">
	<path fill="#9B9B9B" d="M774.5,633c0,0-67.5,0.8-70.4,24.5c17.3,25.7,153.1,12,111.4-6.7C780.8,628.2,779.4,643.8,774.5,633z"/>
</g>
</svg>
