<?xml version="1.0" encoding="utf-8"?>
<!-- Generator: Adobe Illustrator 22.0.0, SVG Export Plug-In . SVG Version: 6.00 Build 0)  -->
<svg version="1.1" xmlns="http://www.w3.org/2000/svg" xmlns:xlink="http://www.w3.org/1999/xlink" x="0px" y="0px"
	 viewBox="0 0 1366 768" enable-background="new 0 0 1366 768" xml:space="preserve">
<g id="Capa_8">
	<path opacity="0.52" fill="#E4EDF4" d="M264,583c0,0-0.9-320,153.6-323S581,473.3,701.7,473.3s135-126.2,175.8-150.2
		c24-14.1,78.1-22.5,108.3,49.6S1053.3,575.5,1103,583H264z"/>
	<path fill="#FFFFFF" d="M0,588.3c0,0,1304-21.2,1366,4.2C1366,592.5,576,694.3,0,588.3z"/>
	<g>
		<path fill="#FFFFFF" d="M1271.3,474.8c0,0-7.2-8.6-23.1,31.4s20.5,72.6,20.5,72.6s43.8-33.1,29.4-70.6
			C1283.7,470.8,1271.3,474.8,1271.3,474.8z"/>
		<g>
			<path d="M1269.8,568.7c0.1,2.7-0.1,5.3-0.3,7.9c-0.2,2.6-0.4,5.1-0.6,7.7c-0.2,2.5-0.4,5.1-0.5,7.6c0,1.3,0,2.5,0.1,3.7
				c0.1,1.2,0.4,2.4,1.3,3.4c-0.6-0.2-1.2-0.7-1.7-1.2c-0.2-0.3-0.4-0.6-0.6-0.9c-0.2-0.3-0.3-0.6-0.5-0.9c-0.5-1.3-0.9-2.6-1-4
				c-0.4-2.7-0.3-5.4-0.1-8c0.2-2.6,0.7-5.2,1.3-7.8C1267.9,573.7,1268.7,571.1,1269.8,568.7z"/>
		</g>
	</g>
	<g>
		<path fill="#FFFFFF" d="M393,365.5c0,0-13.3-16-42.6,58.1s37.8,134.2,37.8,134.2s81-61.2,54.3-130.5
			C415.9,358,393,365.5,393,365.5z"/>
		<g>
			<path d="M390.3,539.1c-0.2,4.9-0.7,9.6-1.1,14.4l-1.4,14.2c-0.4,4.7-0.8,9.4-0.8,14.1c0,2.3,0.1,4.7,0.5,7
				c0.2,1.1,0.4,2.3,0.9,3.3c0.4,1.1,1,2.1,2,2.9c-0.6-0.2-1.1-0.5-1.6-0.9c-0.5-0.4-0.9-0.9-1.3-1.4c-0.8-1-1.3-2.2-1.8-3.4
				c-0.9-2.4-1.4-4.8-1.7-7.3c-0.6-4.9-0.5-9.8-0.1-14.7c0.4-4.8,1.2-9.6,2.3-14.4C387.2,548.3,388.5,543.6,390.3,539.1z"/>
		</g>
	</g>
	<g>
		<path fill="#137277" d="M892.9,346.1l6.5-4.8c0.7-0.4,1.5-0.4,2.2,0l100.4,59c0.7,0.4,1.1,1.1,1.1,1.9v219c0,0.8-0.5,1.6-1.2,1.9
			l-8,4"/>
		<path fill="#11A9BB" d="M891.8,569.1l100.4,57.2c1.4,0.8,3.2-0.2,3.2-1.9l0.5-218c0-0.8-0.4-1.5-1.1-1.9L895,346.4
			c-1.4-0.8-3.3,0.2-3.3,1.9l-1.1,219C890.7,568,891.1,568.8,891.8,569.1z"/>
		<path fill="#11A9BB" d="M999.3,476.5l1.3-0.7c0.6-0.3,1.3,0.1,1.3,0.8v44.3c0,1-0.5,1.9-1.3,2.4l-1,0.7c-0.4,0.3-1,0-1-0.5v-45.8
			C998.7,477.1,998.9,476.7,999.3,476.5z"/>
		<path fill="#137277" d="M949.3,586.9v8.5c0,1-1.1,1.7-2,1.2l-21.1-12c-0.4-0.2-0.7-0.7-0.7-1.2l0.5-8.8c0-1,1.1-1.7,2-1.2
			l19.9,11.2C948.7,585,949.3,585.9,949.3,586.9z"/>
		<path fill="#FFFFFF" d="M897.1,366.5l94.2,57.8c0.9,0.5,1.4,1.4,1.4,2.5l0.2,171.2c0,2.2-2.3,3.5-4.2,2.5l-90.5-50.7
			c-3.3-1.9-5.4-5.4-5.4-9.3V369C892.9,366.8,895.2,365.5,897.1,366.5z"/>
		<path fill="#137277" d="M949.8,388.9c-1.6-1.1-14.6-8.7-14.6-8.7"/>
		<g>
			<path fill="#137277" d="M903.8,365.2c0.1,1.5,1.1,2.4,2.3,2.1c1.2-0.3,2.1-1.6,2-2.8s-1.1-2.2-2.3-2.1
				C904.6,362.4,903.7,363.7,903.8,365.2z"/>
		</g>
		<g>
			<path fill="#137277" d="M897.2,361.4c0.1,1.5,1.1,2.4,2.3,2.1c1.2-0.3,2.1-1.6,2-2.8s-1.1-2.2-2.3-2.1
				C898.1,358.6,897.2,359.9,897.2,361.4z"/>
		</g>
		<path fill="#E2EBF2" d="M898.5,393.1l87,53.5c1.8,1.1,4-0.2,4-2.3v-13.6c0-1.3-0.6-2.4-1.7-3.1l-86.6-53c-1.8-1.1-4,0.2-4,2.3
			v13.7C897.2,391.7,897.7,392.6,898.5,393.1z"/>
		<path fill="#B9C1C6" d="M899.1,546.4l85.4,48.8c1.8,1,3.9-0.3,3.8-2.4l-0.4-13.2c0-1.2-0.7-2.3-1.7-2.9l-85.9-48.7
			c-1.8-1-3.9,0.4-3.8,2.4l0.4,12.3C896.8,544.2,897.7,545.6,899.1,546.4z"/>
		<path fill="#E2EBF2" d="M946,438.4l37.2,21.4c1.1,0.6,2.4-0.2,2.4-1.4v-3.6c0-1.5-0.8-2.8-2.1-3.5l-36-20.5
			c-1.1-0.6-2.4,0.2-2.4,1.4v4.8C945.2,437.6,945.5,438.2,946,438.4z"/>
		<path fill="#E2EBF2" d="M944.4,451.4l37.2,21.4c1.1,0.6,2.4-0.2,2.4-1.4v-5c0-0.6-0.3-1.1-0.8-1.4L946,443.8
			c-1.1-0.6-2.4,0.2-2.4,1.4v4.8C943.6,450.6,943.9,451.1,944.4,451.4z"/>
		<path fill="#E2EBF2" d="M901.2,495.3l29.9,17.2c0.9,0.5,1.9-0.1,1.9-1.1v-4c0-0.5-0.2-0.9-0.6-1.1l-29.9-17
			c-0.9-0.5-1.9,0.1-1.9,1.1v3.8C900.6,494.6,900.9,495,901.2,495.3z"/>
		<g>
			<g>
				<path fill="#D8D8D8" d="M905.1,435.7l15.9,9.4c1.4,0.8,3-0.1,3-1.7v-18.7c0-1.3-0.7-2.5-1.8-3.1l-15.2-8.6
					c-1.4-0.8-2.7,0.2-2.8,1.8l-0.2,19C904,434.5,904.4,435.3,905.1,435.7z"/>
			</g>
			
				<linearGradient id="SVGID_1_" gradientUnits="userSpaceOnUse" x1="872.4042" y1="409.291" x2="866.7756" y2="445.4038" gradientTransform="matrix(-1 0 0 1 1787.9886 0)">
				<stop  offset="0" style="stop-color:#11CEBB"/>
				<stop  offset="0.601" style="stop-color:#0F8288"/>
			</linearGradient>
			<path fill="url(#SVGID_1_)" d="M923.2,445.1c0.7-0.6,0.7-1.5,0.7-2.5l-0.2-19.1c0-0.5-0.3-0.9-0.7-1.2c-3-1.8-15.1-8.7-16.1-9.2
				c-0.7-0.4-1.5-0.2-1.9-0.1c0,0-0.1,0,0-0.1l3.4-2.2c0.2-0.1,0.4-0.3,0.7-0.3c0.7-0.3,1.5-0.2,2.1,0.1l0,0
				c0.2,0.1,0.4,0.2,0.6,0.3l16,9.4c0.5,0.3,0.8,0.8,0.8,1.4l-0.3,19.1c0,0.5-0.3,0.9-0.7,1.2L923.2,445.1z"/>
		</g>
		<g>
			<g>
				<path fill="#D8D8D8" d="M928.8,490.2l15.9,9.4c1.4,0.8,3-0.1,3-1.7v-18.7c0-1.3-0.7-2.5-1.8-3.1l-15.2-8.6
					c-1.4-0.8-2.7,0.2-2.8,1.8l-0.2,19C927.6,489,928.1,489.8,928.8,490.2z"/>
			</g>
			
				<linearGradient id="SVGID_2_" gradientUnits="userSpaceOnUse" x1="848.7147" y1="463.7897" x2="843.0861" y2="499.9025" gradientTransform="matrix(-1 0 0 1 1787.9886 0)">
				<stop  offset="0" style="stop-color:#11CEBB"/>
				<stop  offset="0.601" style="stop-color:#0F8288"/>
			</linearGradient>
			<path fill="url(#SVGID_2_)" d="M946.9,499.6c0.7-0.6,0.7-1.5,0.7-2.5l-0.2-19.1c0-0.5-0.3-0.9-0.7-1.2c-3-1.8-15.1-8.7-16.1-9.2
				c-0.7-0.4-1.5-0.2-1.9-0.1c0,0-0.1,0,0-0.1l3.4-2.2c0.2-0.1,0.4-0.3,0.7-0.3c0.7-0.3,1.5-0.2,2.1,0.1l0,0
				c0.2,0.1,0.4,0.2,0.6,0.3l16,9.4c0.5,0.3,0.8,0.8,0.8,1.4l-0.3,19.1c0,0.5-0.3,0.9-0.7,1.2L946.9,499.6z"/>
		</g>
		<g>
			<g>
				<path fill="#D8D8D8" d="M901.3,475l15.9,9.4c1.4,0.8,3-0.1,3-1.7V464c0-1.3-0.7-2.5-1.8-3.1l-15.2-8.6c-1.4-0.8-2.7,0.2-2.8,1.8
					l-0.2,19C900.2,473.9,900.6,474.7,901.3,475z"/>
			</g>
			
				<linearGradient id="SVGID_3_" gradientUnits="userSpaceOnUse" x1="876.2018" y1="448.6377" x2="870.5732" y2="484.7506" gradientTransform="matrix(-1 0 0 1 1787.9886 0)">
				<stop  offset="0" style="stop-color:#11CEBB"/>
				<stop  offset="0.601" style="stop-color:#0F8288"/>
			</linearGradient>
			<path fill="url(#SVGID_3_)" d="M919.4,484.4c0.7-0.6,0.7-1.5,0.7-2.5l-0.2-19.1c0-0.5-0.3-0.9-0.7-1.2c-3-1.8-15.1-8.7-16.1-9.2
				c-0.7-0.4-1.5-0.2-1.9-0.1c0,0-0.1,0,0-0.1l3.4-2.2c0.2-0.1,0.4-0.3,0.7-0.3c0.7-0.3,1.5-0.2,2.1,0.1l0,0
				c0.2,0.1,0.4,0.2,0.6,0.3l16,9.4c0.5,0.3,0.8,0.8,0.8,1.4l-0.3,19.1c0,0.5-0.3,0.9-0.7,1.2L919.4,484.4z"/>
		</g>
		<g>
			<g>
				<path fill="#D8D8D8" d="M959.1,508.9l15.9,9.4c1.4,0.8,3-0.1,3-1.7v-18.7c0-1.3-0.7-2.5-1.8-3.1l-15.2-8.6
					c-1.4-0.8-2.7,0.2-2.8,1.8l-0.2,19C958,507.7,958.4,508.5,959.1,508.9z"/>
			</g>
			
				<linearGradient id="SVGID_4_" gradientUnits="userSpaceOnUse" x1="818.3932" y1="482.4759" x2="812.7646" y2="518.5887" gradientTransform="matrix(-1 0 0 1 1787.9886 0)">
				<stop  offset="0" style="stop-color:#11CEBB"/>
				<stop  offset="0.601" style="stop-color:#0F8288"/>
			</linearGradient>
			<path fill="url(#SVGID_4_)" d="M977.2,518.3c0.7-0.6,0.7-1.5,0.7-2.5l-0.2-19.1c0-0.5-0.3-0.9-0.7-1.2c-3-1.8-15.1-8.7-16.1-9.2
				c-0.7-0.4-1.5-0.2-1.9-0.1c0,0-0.1,0,0-0.1l3.4-2.2c0.2-0.1,0.4-0.3,0.7-0.3c0.7-0.3,1.5-0.2,2.1,0.1l0,0
				c0.2,0.1,0.4,0.2,0.6,0.3l16,9.4c0.5,0.3,0.8,0.8,0.8,1.4l-0.3,19.1c0,0.5-0.3,0.9-0.7,1.2L977.2,518.3z"/>
		</g>
		<g>
			<path fill="#913F02" d="M966.4,550.5l-28.3-16.8c-0.3-0.2-0.4-0.5-0.4-0.8l-2.6-24.5c0-0.7,3.4-1.6,4-1.3l0,0l41.5,23.9
				c0.5,0.3,0.9,0.9,0.9,1.5v25.6c0,0.3-0.2,0.7-0.5,0.8l-1.7,1c-0.1,0.1-0.4,0.1-0.6,0.2c-0.1,0-0.2,0-0.4,0l-0.4-0.1
				c-1-0.3-0.9,0.5-1,1.2l-0.2,7.2c0,0.9-0.3,1.3-1.1,1.5l-0.5,0.1c-0.7,0.1-1.1,0.1-1.4-0.6l-6.4-17.9
				C967,551,966.7,550.7,966.4,550.5z"/>
			<path fill="#CC5C00" d="M936.3,508.8l41.3,23.8c0.6,0.4,1,1,1,1.7v25.5c0,0.2-0.2,0.4-0.4,0.3l-2.9-1.3c-0.2-0.1-0.4,0.1-0.4,0.3
				l-0.5,10.3c0,0.3-0.4,0.4-0.6,0.1l-9.4-17.1c0-0.1-0.1-0.1-0.1-0.1l-26.9-16c-1.4-0.8-2.3-2.3-2.3-4v-23.9c0-0.2,0.3-0.4,0.5-0.3
				L936.3,508.8z"/>
			<g>
				<path fill="#FFFFFF" d="M941.9,527.5c0.2,2.4,1.6,3.6,3.2,2.8c1.5-0.8,2.7-2.9,2.5-4.7c-0.1-1.9-1.5-3.2-3.2-3
					C942.8,522.8,941.6,525,941.9,527.5z"/>
			</g>
			<g>
				<path fill="#FFFFFF" d="M952.1,533.5c0.2,2.4,1.6,3.6,3.2,2.8c1.5-0.8,2.7-2.9,2.5-4.7c-0.1-1.9-1.5-3.2-3.2-3
					C953,528.9,951.8,531.1,952.1,533.5z"/>
			</g>
			<g>
				<path fill="#FFFFFF" d="M963.1,539.3c0.2,2.4,1.6,3.6,3.2,2.8c1.5-0.8,2.7-2.9,2.5-4.7c-0.1-1.9-1.5-3.2-3.2-3
					C964,534.6,962.8,536.8,963.1,539.3z"/>
			</g>
		</g>
		<path opacity="0.13" fill="#9B9B9B" d="M949.8,632.6c0,0-62.3-24-43.6-5.8c18.7,18.2,96.4,40.8,76.2,25.8
			C955.8,632.9,954.9,639.2,949.8,632.6z"/>
	</g>
	<g>
		<g>
			<path fill="#11CEBB" d="M194.2,569.9c0,0-45-7.4-46-27.3c-1-19.9,16.6-4.5,20.1-6.8s-22.4-29-14.6-31c7.8-2.1,10.9,7,11.7,1.6
				c0.8-5.3-15.4-24.4-6.2-28.8s8.4,7.2,10.3,1.4s-4.3-24,7.4-29.2c11.7-5.1,6.9,12.7,6.9,12.7s-5.1,23.6-2.8,22s6-12.1,9-11.5
				c3.1,0.6,4.1,14.3-0.8,20.9c-4.9,6.6-2.5,8.5,7.6,5.2c10.1-3.3,10.9,6.6,5.1,16.2c-5.8,9.7-8,17.2,2.5,10.3
				c10.5-7,19.1-7.6,16.8,7.6C219,548.5,212,552,194.2,569.9z"/>
			<g>
				<g>
					<path fill="#0A564D" d="M198.5,572.8c-5.6-7.9-10-16.6-13.8-25.5c-1.9-4.5-3.5-9.1-5-13.7c-1.5-4.6-2.6-9.4-3.6-14.1
						c-1.9-9.5-3-19.3-2.6-29.1c0.3-9.7,2.1-19.5,5.5-28.5c-1.8,9.5-2.6,19-2.3,28.5l0,1.8l0.1,1.8c0.1,1.2,0.1,2.4,0.2,3.6
						c0.2,2.4,0.4,4.7,0.7,7.1c0.5,4.7,1.3,9.4,2.3,14.1c0.9,4.7,2.1,9.3,3.4,13.9c1.3,4.6,2.7,9.1,4.3,13.7
						C190.7,555.2,194.3,564.1,198.5,572.8z"/>
				</g>
				<g>
					<path fill="#0A564D" d="M202,537.4c-0.2,0.9-0.4,1.8-0.6,2.7c-0.3,0.8-0.6,1.7-1,2.6c-0.8,1.7-1.8,3.2-3,4.7
						c-1.2,1.4-2.7,2.7-4.2,3.8c-0.8,0.5-1.6,1-2.5,1.5c-0.4,0.2-0.9,0.4-1.3,0.6c-0.5,0.2-0.9,0.3-1.5,0.5c-0.2,0-0.3,0.1-0.5,0.1
						c-1.7-0.1-3.2-0.3-4.8-0.6c-1.6-0.3-3.1-0.7-4.6-1.3c-1.5-0.5-3-1.2-4.4-2c-1.4-0.8-2.7-1.7-3.9-2.8c1.6,0.4,3,0.8,4.5,1.1
						c1.5,0.3,3,0.6,4.4,0.8c1.5,0.2,3,0.4,4.4,0.5c1.5,0.1,3,0.2,4.4,0.3l-0.5,0.1c0.2-0.1,0.7-0.2,1-0.4c0.4-0.1,0.7-0.3,1.1-0.5
						c0.7-0.4,1.4-0.7,2.1-1.1c1.4-0.8,2.7-1.8,4-2.8c0.3-0.3,0.6-0.6,0.9-0.8c0.3-0.3,0.6-0.6,0.9-0.9l0.9-0.9l0.9-0.9
						c0.6-0.6,1.1-1.3,1.7-2C200.9,538.9,201.4,538.1,202,537.4z"/>
				</g>
				<g>
					<path fill="#0A564D" d="M191.3,510.1c-0.6,1.7-1.4,3.2-2.3,4.7c-0.9,1.5-1.8,2.9-2.8,4.3c-2,2.8-4.1,5.4-6.4,7.9l0,0
						c-0.4,0.5-1,0.7-1.6,0.6c-0.9-0.1-1.7-0.2-2.5-0.3c-0.8-0.1-1.6-0.3-2.4-0.6c-1.6-0.4-3.1-1-4.5-1.8c-1.4-0.8-2.8-1.8-3.9-2.9
						c-1.1-1.2-2-2.6-2.4-4.1c1.2,1.1,2.3,2,3.6,2.7c1.3,0.7,2.6,1.2,4,1.6c1.4,0.4,2.8,0.7,4.2,1c1.4,0.2,2.9,0.5,4.2,0.5l-1.6,0.7
						c2.2-2.5,4.5-5,6.9-7.4c1.2-1.2,2.4-2.4,3.7-3.5C188.7,512.4,189.9,511.2,191.3,510.1z"/>
				</g>
				<g>
					<path fill="#0A564D" d="M186.1,484.6c-0.3,1.9-1,3.6-1.7,5.3c-0.7,1.7-1.5,3.4-2.4,5c-1.7,3.3-3.6,6.4-5.6,9.5
						c-0.6,0.9-1.8,1.2-2.7,0.6c-0.1-0.1-0.2-0.2-0.3-0.3c-1.4-1.4-2.6-2.9-3.9-4.4c-1.2-1.5-2.3-3.1-3.3-4.8
						c-1-1.7-1.9-3.4-2.6-5.3c-0.7-1.8-1.3-3.8-1.1-5.8c0.7,1.8,1.7,3.3,2.8,4.8c1.1,1.5,2.2,2.9,3.5,4.3c1.2,1.4,2.4,2.8,3.7,4.2
						c1.2,1.4,2.5,2.8,3.8,4l-3.1,0.3c2-3,4.1-6,6.3-9c1.1-1.5,2.2-2.9,3.3-4.4C183.9,487.6,185.1,486.2,186.1,484.6z"/>
				</g>
			</g>
		</g>
		<g>
			<path fill="#11CEBB" d="M204.7,558.5c0,0,30.2-5,30.9-18.3s-11.2-3-13.5-4.5c-2.3-1.5,15-19.4,9.8-20.8c-5.2-1.4-7.3,4.7-7.9,1.1
				c-0.6-3.6,10.3-16.4,4.1-19.3c-6.2-2.9-5.6,4.8-6.9,1c-1.2-3.9,2.9-16.1-5-19.6c-7.9-3.4-4.6,8.5-4.6,8.5s3.4,15.8,1.9,14.7
				c-1.5-1.1-4-8.1-6.1-7.7c-2.1,0.4-2.8,9.6,0.6,14c3.3,4.4,1.7,5.7-5.1,3.5c-6.7-2.2-7.3,4.4-3.4,10.9c3.9,6.5,5.4,11.6-1.7,6.9
				c-7-4.7-12.8-5.1-11.3,5.1S192.7,546.5,204.7,558.5z"/>
			<g>
				<g>
					<path fill="#0A564D" d="M201.8,560.4c2.5-6,4.8-12,6.8-18c2-6.1,3.7-12.2,4.9-18.4c0.7-3.1,1.2-6.2,1.6-9.4
						c0.2-1.6,0.4-3.1,0.5-4.7c0.1-0.8,0.1-1.6,0.2-2.4c0.1-0.8,0.1-1.6,0.1-2.4c0.3-6.3-0.1-12.7-1.1-19.1c2.5,6,3.9,12.5,4.2,19.1
						c0.2,3.3,0.1,6.6-0.2,9.9c-0.3,3.3-0.7,6.5-1.4,9.8c-1.3,6.4-3.4,12.7-6,18.7C208.9,549.5,205.8,555.3,201.8,560.4z"/>
				</g>
				<g>
					<path fill="#0A564D" d="M199.5,536.8c0.9,0.9,1.7,1.8,2.5,2.5c0.8,0.8,1.7,1.5,2.5,2.2c0.9,0.7,1.7,1.2,2.7,1.7
						c0.4,0.3,0.9,0.5,1.4,0.7c0.2,0.1,0.5,0.2,0.7,0.3c0.2,0.1,0.5,0.2,0.6,0.2l-0.5-0.1c0.9,0,1.9-0.1,2.8-0.1
						c1-0.1,2-0.1,2.9-0.2c1-0.1,2-0.2,3-0.3c1-0.1,2-0.3,3.1-0.4c-0.7,0.8-1.6,1.6-2.5,2.2c-0.9,0.6-1.9,1.1-2.9,1.5
						c-1,0.4-2.1,0.7-3.1,1c-1.1,0.2-2.1,0.4-3.3,0.5c-0.2,0-0.3,0-0.5-0.1l0,0c-0.5-0.1-0.8-0.2-1.1-0.4c-0.3-0.1-0.6-0.3-0.9-0.4
						c-0.6-0.3-1.2-0.6-1.7-1c-1.1-0.8-2.1-1.7-2.9-2.7c-0.8-1-1.5-2.1-1.9-3.3c-0.3-0.6-0.4-1.2-0.6-1.8
						C199.6,538,199.5,537.4,199.5,536.8z"/>
				</g>
				<g>
					<path fill="#0A564D" d="M206.6,518.4c1,0.7,1.9,1.4,2.8,2.1c0.9,0.7,1.8,1.5,2.6,2.2c1.7,1.5,3.2,3.2,4.7,4.9l-1.6-0.7
						c0.8,0,1.8-0.2,2.7-0.3c0.9-0.1,1.8-0.3,2.7-0.5c0.9-0.2,1.8-0.5,2.7-0.9c0.9-0.4,1.7-0.9,2.6-1.5c-0.2,1.1-0.7,2.1-1.4,3
						c-0.7,0.9-1.7,1.6-2.6,2.2c-1,0.6-2,1-3.1,1.3c-0.5,0.2-1.1,0.3-1.6,0.4c-0.6,0.1-1.1,0.2-1.7,0.2c-0.6,0-1.2-0.2-1.5-0.6
						l0-0.1c-1.5-1.7-3-3.5-4.2-5.4c-0.6-1-1.2-2-1.7-3C207.4,520.7,206.9,519.6,206.6,518.4z"/>
				</g>
				<g>
					<path fill="#0A564D" d="M210.1,501.4l2.5,2.8c0.8,0.9,1.6,1.9,2.4,2.8c1.5,1.9,3,3.9,4.3,5.9l-3.1-0.3l2.5-2.7l2.5-2.7
						c0.8-0.9,1.7-1.8,2.4-2.8c0.8-0.9,1.6-1.9,2.2-3.1c0.3,1.3-0.1,2.7-0.4,4c-0.4,1.3-1,2.5-1.6,3.7c-0.6,1.2-1.4,2.3-2.2,3.3
						c-0.8,1-1.6,2-2.6,3c-0.8,0.8-2,0.8-2.8,0c-0.1-0.1-0.2-0.2-0.3-0.3c-1.3-2.1-2.6-4.2-3.6-6.5c-0.5-1.1-1-2.3-1.4-3.5
						C210.6,503.9,210.2,502.7,210.1,501.4z"/>
				</g>
			</g>
		</g>
		<g>
			<polygon fill="#9B9B9B" points="221.6,573 183.8,573 180.8,573 180.8,561.5 221.6,561.5 			"/>
			<polygon fill="#CED4D8" points="188.4,599.5 214.9,599.5 219.6,573 183.8,573 			"/>
		</g>
	</g>
	<g>
		<g>
			<path fill="#11CEBB" d="M870.8,569.2c0,0-36.9-6.1-37.8-22.4c-0.8-16.4,13.7-3.7,16.5-5.6c2.9-1.9-18.4-23.8-12-25.5
				c6.4-1.7,8.9,5.7,9.6,1.3s-12.6-20.1-5.1-23.6s6.9,5.9,8.4,1.2s-3.5-19.7,6.1-23.9c9.6-4.2,5.7,10.5,5.7,10.5s-4.2,19.4-2.3,18
				c1.9-1.3,4.9-9.9,7.4-9.4c2.5,0.5,3.4,11.7-0.7,17.2c-4,5.4-2,6.9,6.2,4.3c8.3-2.7,8.9,5.4,4.2,13.3s-6.6,14.1,2,8.4
				c8.6-5.7,15.7-6.2,13.8,6.2C891.2,551.7,885.5,554.5,870.8,569.2z"/>
			<g>
				<g>
					<path fill="#0A564D" d="M874.3,571.6c-4.7-6.4-8.4-13.5-11.6-20.8c-1.6-3.7-2.9-7.4-4.2-11.2c-1.2-3.8-2.2-7.7-3-11.6
						c-1.6-7.9-2.4-15.9-2-23.9c0.3-8,1.8-16,4.8-23.4c-1.3,7.8-1.9,15.6-1.6,23.4c0,1,0.1,1.9,0.1,2.9c0.1,1,0.1,1.9,0.2,2.9
						c0.2,1.9,0.3,3.9,0.6,5.8c0.5,3.9,1.1,7.7,1.9,11.5c0.8,3.8,1.7,7.6,2.7,11.4c1,3.8,2.2,7.5,3.4,11.2
						C868.2,557,871.1,564.3,874.3,571.6z"/>
				</g>
				<g>
					<path fill="#0A564D" d="M877.2,542.6c-0.1,0.7-0.2,1.5-0.4,2.2c-0.2,0.7-0.4,1.5-0.8,2.2c-0.6,1.4-1.5,2.7-2.4,4
						c-1,1.2-2.2,2.3-3.5,3.2c-0.7,0.5-1.3,0.9-2.1,1.2c-0.4,0.2-0.7,0.4-1.1,0.5c-0.4,0.2-0.7,0.3-1.3,0.4l0,0
						c-0.2,0-0.3,0.1-0.5,0.1c-1.4-0.1-2.7-0.2-4-0.5c-1.3-0.3-2.6-0.6-3.8-1.1c-1.2-0.5-2.4-1-3.6-1.7c-1.1-0.7-2.2-1.5-3.1-2.5
						c1.3,0.2,2.5,0.5,3.8,0.7c1.2,0.2,2.4,0.4,3.7,0.5c1.2,0.2,2.4,0.3,3.6,0.4c1.2,0.1,2.4,0.2,3.5,0.2l-0.5,0.1
						c0.2-0.1,0.5-0.2,0.8-0.3c0.3-0.1,0.6-0.2,0.9-0.4c0.6-0.3,1.2-0.6,1.7-0.9c1.1-0.7,2.2-1.4,3.3-2.2c1-0.9,2.1-1.8,3-2.8
						C875.3,544.8,876.2,543.7,877.2,542.6z"/>
				</g>
				<g>
					<path fill="#0A564D" d="M868.4,520.2c-0.4,1.4-1.1,2.7-1.7,4c-0.7,1.2-1.4,2.4-2.2,3.6c-1.6,2.3-3.3,4.5-5.2,6.6l0,0
						c-0.4,0.5-1,0.7-1.6,0.6c-0.8-0.1-1.4-0.1-2.1-0.3c-0.7-0.1-1.3-0.3-2-0.5c-1.3-0.4-2.6-0.9-3.7-1.6c-1.2-0.7-2.3-1.5-3.2-2.5
						c-0.9-1-1.6-2.3-1.9-3.5c1,0.9,2,1.5,3,2.1c1.1,0.5,2.2,0.9,3.3,1.2c1.1,0.3,2.3,0.5,3.4,0.7c1.1,0.2,2.3,0.3,3.4,0.4l-1.6,0.7
						c1.8-2.1,3.7-4.1,5.7-6c1-1,2-1.9,3.1-2.8C866.2,521.9,867.3,521,868.4,520.2z"/>
				</g>
				<g>
					<path fill="#0A564D" d="M864.2,499.2c-0.2,1.6-0.7,3-1.3,4.5c-0.5,1.4-1.2,2.8-1.8,4.2c-1.3,2.7-2.9,5.3-4.5,7.9
						c-0.6,0.9-1.8,1.2-2.7,0.6c-0.1-0.1-0.2-0.2-0.3-0.3c-1.2-1.2-2.2-2.4-3.2-3.6c-1-1.3-1.9-2.6-2.7-4c-0.8-1.4-1.5-2.8-2.1-4.4
						c-0.5-1.5-1-3.2-0.7-4.8c0.7,1.5,1.5,2.7,2.5,3.9c0.9,1.2,1.9,2.3,2.9,3.5c1,1.1,2,2.3,3,3.4c1,1.1,2.1,2.2,3.1,3.3l-3.1,0.3
						c1.6-2.5,3.4-4.9,5.2-7.3c0.9-1.2,1.9-2.4,2.8-3.5C862.3,501.6,863.3,500.5,864.2,499.2z"/>
				</g>
			</g>
		</g>
		<g>
			<path fill="#11CEBB" d="M879.5,559.9c0,0,24.8-4.1,25.3-15c0.6-11-9.2-2.5-11.1-3.7c-1.9-1.2,12.3-15.9,8-17.1
				c-4.3-1.1-6,3.8-6.4,0.9c-0.5-2.9,8.5-13.5,3.4-15.8c-5.1-2.4-4.6,4-5.7,0.8c-1-3.2,2.4-13.2-4.1-16s-3.8,7-3.8,7
				s2.8,13,1.5,12.1c-1.2-0.9-3.3-6.7-5-6.3c-1.7,0.3-2.3,7.9,0.5,11.5c2.7,3.6,1.4,4.7-4.2,2.9c-5.5-1.8-6,3.6-2.8,8.9
				c3.2,5.3,4.4,9.5-1.4,5.6c-5.8-3.8-10.5-4.2-9.3,4.2C865.8,548.1,869.6,550,879.5,559.9z"/>
			<g>
				<g>
					<path fill="#0A564D" d="M877.1,561.4c2-5,3.7-9.9,5.3-14.9c1.6-5,3-10,4-15.1c0.5-2.5,1-5.1,1.3-7.6c0.4-2.6,0.6-5.1,0.7-7.7
						c0.3-5.2,0-10.4-0.6-15.7c2.2,4.9,3.4,10.3,3.7,15.7c0.2,2.7,0.1,5.4-0.1,8.1c-0.2,2.7-0.6,5.4-1.2,8c-1.1,5.3-2.8,10.5-5,15.4
						C883.1,552.6,880.5,557.3,877.1,561.4z"/>
				</g>
				<g>
					<path fill="#0A564D" d="M875.2,542c0.4,0.3,0.8,0.7,1.2,1c0.4,0.3,0.7,0.7,1.1,1c0.7,0.6,1.4,1.2,2.1,1.7
						c0.7,0.5,1.4,0.9,2.2,1.3c0.4,0.2,0.7,0.4,1.1,0.5c0.2,0.1,0.4,0.2,0.5,0.2c0.2,0.1,0.4,0.1,0.4,0.2l-0.5-0.1
						c0.7,0,1.5,0,2.3-0.1l2.4-0.1l2.5-0.2c0.8,0,1.7-0.2,2.6-0.2c-0.5,0.8-1.2,1.4-2,1.9c-0.7,0.5-1.5,1-2.4,1.4
						c-0.8,0.4-1.7,0.7-2.6,0.9c-0.9,0.2-1.7,0.4-2.8,0.4c-0.2,0-0.3,0-0.5-0.1l0,0c-0.4-0.1-0.6-0.2-0.9-0.3
						c-0.3-0.1-0.5-0.2-0.8-0.4c-0.5-0.3-1-0.5-1.4-0.9c-0.9-0.7-1.7-1.4-2.4-2.3c-0.7-0.9-1.2-1.8-1.5-2.8
						C875.3,544.1,875.2,543.1,875.2,542z"/>
				</g>
				<g>
					<path fill="#0A564D" d="M881,527c0.9,0.5,1.7,1,2.5,1.6c0.8,0.6,1.5,1.1,2.2,1.7c1.4,1.2,2.7,2.5,3.9,3.9l-1.6-0.7
						c0.6,0,1.4-0.1,2.2-0.2c0.7-0.1,1.5-0.2,2.2-0.4c0.7-0.2,1.5-0.3,2.2-0.6c0.7-0.3,1.4-0.6,2.2-1.1c-0.1,0.9-0.5,1.8-1.1,2.6
						c-0.6,0.8-1.3,1.4-2.2,1.9c-0.8,0.5-1.7,0.9-2.6,1.2c-0.4,0.2-0.9,0.3-1.4,0.4c-0.5,0.1-0.9,0.2-1.5,0.2
						c-0.6,0-1.2-0.2-1.5-0.6l-0.1-0.1c-1.3-1.4-2.4-2.9-3.4-4.5c-0.5-0.8-0.9-1.7-1.3-2.6C881.6,528.9,881.2,528,881,527z"/>
				</g>
				<g>
					<path fill="#0A564D" d="M883.9,513c0.8,0.8,1.5,1.4,2.2,2.2c0.7,0.7,1.4,1.5,2.1,2.3c1.3,1.5,2.5,3.2,3.6,4.8l-3.1-0.3l2.1-2.2
						l2.1-2.2c0.7-0.7,1.4-1.4,2.1-2.2c0.7-0.8,1.4-1.5,2-2.5c0.3,1.1,0.1,2.3-0.2,3.4c-0.3,1.1-0.7,2.1-1.3,3.1
						c-0.5,1-1.1,1.9-1.8,2.8c-0.7,0.9-1.3,1.7-2.1,2.5l0,0c-0.8,0.8-2,0.8-2.8,0c-0.1-0.1-0.2-0.2-0.3-0.3
						c-1.1-1.7-2.1-3.5-2.9-5.4c-0.4-0.9-0.8-1.9-1.1-2.9C884.2,515.1,883.9,514.1,883.9,513z"/>
				</g>
			</g>
		</g>
		<g>
			<polygon fill="#9B9B9B" points="893.3,571.7 862.3,571.7 859.8,571.7 859.8,562.3 893.3,562.3 			"/>
			<polygon fill="#CED4D8" points="866.1,593.5 887.8,593.5 891.7,571.7 862.3,571.7 			"/>
		</g>
	</g>
	<g>
		<path fill="#11A9BB" d="M1135,554.7c0,0,40.3,1.4,54.4-12.7c14.1-14.1,20.6-23.8,16.3-34.7c-4.3-10.8-22.8-1.1-29.3-4.3
			c-6.5-3.3-13-16.3,6.5-23.8c19.5-7.6,30.3-19.5,18.4-23.8c-11.9-4.3-22.8-2.2-4.3-17.3s19.5-36.8,6.5-39
			c-13-2.2-33.6,41.2-37.9,40.1c-4.3-1.1-16.3-21.7-23.8-3.3c-7.6,18.4,7.6,56.3-11.9,44.4c-19.5-11.9-44.4-24.9-43.3,3.3
			C1088.3,531.3,1135,554.7,1135,554.7z"/>
		<g>
			<g>
				<path fill="#09494C" d="M1127.7,599.5c0.3-9.3,1.3-18.6,2.4-27.8c1.2-9.2,2.6-18.4,4.4-27.6c3.5-18.3,8.1-36.5,14.1-54.2
					c6.1-17.7,13.5-35.1,23.4-51.1c5-8,10.5-15.6,17-22.5c6.5-6.8,13.8-13,22.1-17.2c-7.5,5.6-13.9,12.2-19.5,19.5
					c-2.8,3.6-5.5,7.3-7.9,11.2c-2.4,3.9-4.8,7.8-7,11.8c-8.7,16.1-15.5,33.2-21.5,50.6c-5.9,17.4-10.9,35.2-15.4,53.1
					C1135.3,563.2,1131.3,581.3,1127.7,599.5z"/>
			</g>
			<g>
				<path fill="#09494C" d="M1148.3,426.2c1.6,3.7,2.9,7.5,4.2,11.2c1.3,3.8,2.5,7.5,3.6,11.3c1.1,3.8,2.2,7.6,3.2,11.4
					c1,3.8,2,7.7,2.9,11.5l-4.3-2.6c4.3-1.2,8.7-2.3,13.1-3.4c4.4-1.1,8.8-2,13.2-2.9c4.4-0.9,8.9-1.7,13.3-2.4
					c4.5-0.7,9-1.3,13.5-1.7c-4.2,1.9-8.4,3.6-12.6,5.2c-4.2,1.6-8.5,3.1-12.8,4.5c-4.3,1.4-8.6,2.7-12.9,4c-4.3,1.2-8.7,2.4-13,3.5
					l-0.1,0c-1.9,0.5-3.7-0.7-4.2-2.5c0,0,0-0.1,0-0.1c-0.9-3.9-1.7-7.7-2.4-11.6c-0.8-3.9-1.4-7.8-2.1-11.7
					c-0.6-3.9-1.2-7.8-1.7-11.8C1148.9,434.1,1148.4,430.2,1148.3,426.2z"/>
			</g>
			<g>
				<path fill="#09494C" d="M1112.5,469.5c2.9,5.3,5.6,10.6,8.2,16c2.6,5.4,5.1,10.8,7.6,16.2c2.4,5.4,4.9,10.9,7.2,16.4
					c2.3,5.5,4.6,11,6.9,16.5l-4.3-2c6-2,12-4,18-5.9c6-1.9,12.1-3.8,18.2-5.5c6.1-1.8,12.2-3.5,18.3-5.1c6.1-1.6,12.3-3.1,18.5-4.4
					c-5.7,2.8-11.6,5.3-17.4,7.7c-5.9,2.4-11.7,4.8-17.7,7c-5.9,2.3-11.9,4.4-17.8,6.6c-6,2.1-11.9,4.2-17.9,6.2l0,0
					c-1.8,0.6-3.6-0.3-4.3-2c-2.2-5.5-4.4-11.1-6.5-16.7c-2.1-5.6-4.1-11.2-6.1-16.8c-2-5.6-3.9-11.3-5.7-17
					C1115.8,481,1114,475.3,1112.5,469.5z"/>
			</g>
		</g>
	</g>
	<g>
		<path fill="#11A9BB" d="M740.7,564.7c0,0-22.3,0.8-30.1-7s-11.4-13.2-9-19.2s12.6-0.6,16.2-2.4c3.6-1.8,7.2-9-3.6-13.2
			s-16.8-10.8-10.2-13.2s12.6-1.2,2.4-9.6s-10.8-20.4-3.6-21.6c7.2-1.2,18.6,22.8,21,22.2s9-12,13.2-1.8c4.2,10.2-4.2,31.2,6.6,24.6
			c10.8-6.6,24.6-13.8,24,1.8C766.5,551.8,740.7,564.7,740.7,564.7z"/>
		<g>
			<g>
				<path fill="#09494C" d="M744.7,589.5c-2.1-10.1-4.3-20.1-6.8-30c-1.3-4.9-2.5-9.9-4-14.8c-1.4-4.9-2.9-9.8-4.6-14.6
					c-3.2-9.6-7.1-19-11.9-28c-2.4-4.4-5.1-8.7-8.2-12.7c-3.1-4-6.6-7.7-10.7-10.8c4.6,2.4,8.6,5.8,12.2,9.5c3.6,3.8,6.7,8,9.4,12.4
					c2.8,4.4,5.1,9.1,7.3,13.8c2.1,4.7,4,9.6,5.7,14.5c3.3,9.8,5.9,19.8,7.8,30C742.9,569,744.3,579.2,744.7,589.5z"/>
			</g>
			<g>
				<path fill="#09494C" d="M733.4,493.6c-0.1,2.2-0.3,4.4-0.6,6.6c-0.3,2.2-0.5,4.4-0.9,6.5c-0.7,4.3-1.5,8.6-2.5,12.9
					c-0.2,1.1-1.3,1.7-2.3,1.5l-0.1,0l0,0c-2.4-0.6-4.8-1.3-7.2-2c-2.4-0.7-4.8-1.4-7.1-2.2c-2.4-0.8-4.7-1.6-7.1-2.5
					c-2.3-0.9-4.7-1.8-7-2.9c2.5,0.2,5,0.5,7.5,0.9c2.5,0.4,4.9,0.8,7.4,1.3c2.4,0.5,4.9,1,7.3,1.6c2.4,0.6,4.8,1.2,7.2,1.9
					l-2.4,1.5c1-4.3,2.1-8.5,3.4-12.7c0.6-2.1,1.3-4.2,2-6.3C731.7,497.8,732.5,495.7,733.4,493.6z"/>
			</g>
			<g>
				<path fill="#09494C" d="M753.1,517.6c-0.8,3.2-1.8,6.4-2.8,9.5c-1,3.1-2,6.3-3.1,9.4c-1.1,3.1-2.2,6.2-3.4,9.3
					c-1.1,3.1-2.3,6.2-3.6,9.2c-0.4,1-1.5,1.5-2.5,1.2l0,0c-3.3-1.1-6.6-2.2-9.9-3.4c-3.3-1.2-6.6-2.4-9.8-3.6l-4.9-1.9l-4.9-2
					c-3.2-1.4-6.5-2.7-9.6-4.3c3.5,0.7,6.9,1.5,10.3,2.4l5.1,1.4l5.1,1.4c3.4,0.9,6.7,2,10.1,3c3.3,1.1,6.7,2.1,10,3.3l-2.5,1.1
					c1.2-3.1,2.5-6.1,3.8-9.1c1.3-3,2.6-6.1,4-9.1c1.3-3,2.8-6,4.2-9C750,523.5,751.5,520.5,753.1,517.6z"/>
			</g>
		</g>
	</g>
	<g>
		<path fill="#11A9BB" d="M283,583.1c0,0-11.7-9-3.6-22.7c8-13.7,25.7-23.3,27.3-20.1s-4,11.3-5.6,14.5s-6.4,21.7-12.1,24.9
			S283,583.1,283,583.1z"/>
		<g>
			<path fill="#09494C" d="M281.8,592.5c-0.3-3.8-0.1-7.6,0.4-11.4c0.5-3.8,1.3-7.5,2.4-11.2c1.1-3.7,2.7-7.3,4.8-10.6
				c1.1-1.6,2.3-3.2,3.7-4.6c1.4-1.3,3-2.5,4.8-3.2c-2.9,2.5-4.8,5.6-6.5,8.9c-1.6,3.3-2.8,6.8-3.9,10.3c-0.6,1.8-1.1,3.6-1.6,5.3
				c-0.5,1.8-0.9,3.6-1.4,5.4L281.8,592.5z"/>
		</g>
	</g>
	<g>
		<path fill="#CC5C00" d="M273.6,584.5c0,0,5.5-0.4,9.4-7c3-5.1,3.4-11.4,1.2-16.9c-1.4-3.5-2.5-8.2-0.1-11.5
			c4-5.6,0.1-9.9-1.6-14.3c-1-2.5-2.4-4.8-4.1-6.9c-2.1-2.6-5.2-8.2-4.7-17.5c0.8-13.7-15.3-23.3-19.3-15.3
			c-2.3,4.6-2,10.2-1.3,14.2c1,5.8,1.2,11.7,0.3,17.5c-0.8,4.8-3.6,8.2-4.6,10.9c-3.2,8,4.8,37.8,12.1,42.6S273.6,584.5,273.6,584.5
			z"/>
		<g>
			<g>
				<path fill="#FFFFFF" d="M259.2,492.8c3.5,16.4,6.7,33,9.4,49.5c0.7,4.1,1.4,8.3,2,12.5c0.6,4.2,1.2,8.3,1.7,12.5
					c0.4,4.2,0.8,8.4,1,12.6c0.2,4.2,0.3,8.5-0.5,12.6c0,0,0,0-0.1,0c0,0,0,0,0-0.1c0.3-2.1,0.3-4.2,0.2-6.3l-0.1-3.1l-0.2-3.1
					c-0.3-4.2-0.8-8.3-1.3-12.5c-0.5-4.2-1-8.3-1.6-12.5c-0.6-4.2-1.2-8.3-1.8-12.5c-1.3-8.3-2.7-16.6-4.2-24.9
					C262.3,509.4,260.7,501.1,259.2,492.8C259.1,492.8,259.1,492.8,259.2,492.8C259.2,492.8,259.2,492.8,259.2,492.8z"/>
			</g>
			<g>
				<path fill="#FFFFFF" d="M270.4,499.4c-2.5,3-5.1,5.9-7.6,8.8c-0.1,0.1-0.3,0.2-0.4,0.1l0,0c-1.7-0.7-3.4-1.3-5-2.1
					c-1.6-0.8-3.2-1.6-4.8-2.5c0,0,0,0,0-0.1c0,0,0,0,0.1,0c1.8,0.5,3.5,1.1,5.1,1.7c1.7,0.7,3.3,1.4,4.9,2.2l-0.5,0.1
					C264.9,504.9,267.6,502.1,270.4,499.4C270.4,499.3,270.4,499.3,270.4,499.4C270.4,499.3,270.4,499.4,270.4,499.4z"/>
			</g>
			<g>
				<path fill="#FFFFFF" d="M273.7,509.5c-2.9,3-5.9,5.9-8.8,8.8c-0.1,0.1-0.3,0.1-0.4,0.1l0,0c-1.8-0.6-3.7-1.1-5.4-1.8
					c-1.8-0.7-3.6-1.4-5.3-2.3c0,0,0,0,0-0.1c0,0,0,0,0.1,0c1.9,0.4,3.7,0.9,5.6,1.5c1.8,0.6,3.6,1.3,5.4,2l-0.4,0.1
					C267.4,515,270.5,512.2,273.7,509.5C273.7,509.5,273.7,509.5,273.7,509.5C273.7,509.5,273.7,509.5,273.7,509.5z"/>
			</g>
			<g>
				<path fill="#FFFFFF" d="M274.7,520.9c-2.7,2.3-5.4,4.6-8.1,6.9c-0.1,0.1-0.2,0.1-0.3,0.1l0,0c-2.1-0.5-4.3-0.9-6.4-1.5
					c-1.1-0.3-2.1-0.6-3.1-1c-1-0.4-2.1-0.7-3.1-1.1c0,0,0,0,0-0.1c0,0,0,0,0.1,0c1.1,0.1,2.2,0.3,3.3,0.5c1.1,0.2,2.1,0.4,3.2,0.7
					c2.1,0.5,4.2,1.2,6.3,1.8l-0.3,0.1C269,525,271.8,522.9,274.7,520.9C274.7,520.8,274.7,520.8,274.7,520.9
					C274.8,520.8,274.8,520.8,274.7,520.9z"/>
			</g>
			<g>
				<path fill="#FFFFFF" d="M280.4,530.9c-3.9,2.6-7.8,5.2-11.8,7.8c-0.1,0.1-0.2,0.1-0.3,0l0,0l-4.3-1.3c-1.4-0.4-2.9-0.9-4.3-1.4
					c-1.4-0.5-2.8-1-4.2-1.5c-1.4-0.6-2.8-1.1-4.2-1.7c0,0,0,0,0-0.1c0,0,0,0,0.1,0c1.5,0.3,2.9,0.7,4.4,1.1
					c1.4,0.4,2.9,0.8,4.3,1.3c1.4,0.4,2.8,1,4.3,1.5l4.2,1.5l-0.3,0C272.3,535.7,276.3,533.2,280.4,530.9
					C280.4,530.8,280.4,530.8,280.4,530.9C280.5,530.9,280.4,530.9,280.4,530.9z"/>
			</g>
			<g>
				<path fill="#FFFFFF" d="M284.9,539.8l-14.3,10.4c-0.1,0.1-0.2,0.1-0.3,0.1l0,0l-5.6-1.2c-1.9-0.4-3.7-0.8-5.6-1.2
					c-1.9-0.4-3.7-0.9-5.6-1.4c-1.8-0.5-3.7-1-5.5-1.6c0,0,0,0,0-0.1c0,0,0,0,0.1,0c1.9,0.3,3.8,0.6,5.7,1c1.9,0.4,3.8,0.7,5.6,1.1
					c1.9,0.4,3.7,0.9,5.6,1.3l5.6,1.4l-0.3,0.1L284.9,539.8C284.8,539.7,284.8,539.8,284.9,539.8
					C284.9,539.8,284.9,539.8,284.9,539.8z"/>
			</g>
			<g>
				<path fill="#FFFFFF" d="M282.9,555.9l-10.4,8.5c-0.1,0.1-0.2,0.1-0.3,0.1l0,0l-11.2-3.1c-1.9-0.6-3.7-1.2-5.5-1.8
					c-1.8-0.6-3.7-1.3-5.5-2c0,0,0,0,0-0.1c0,0,0,0,0.1,0c1.9,0.4,3.8,0.8,5.7,1.3c1.9,0.5,3.7,1,5.6,1.5l11.1,3.5l-0.3,0.1
					L282.9,555.9C282.9,555.8,282.9,555.8,282.9,555.9C282.9,555.9,282.9,555.9,282.9,555.9z"/>
			</g>
			<g>
				<path fill="#FFFFFF" d="M285.9,566.2c-4.3,3.5-8.5,7-12.8,10.5c-0.1,0.1-0.2,0.1-0.3,0.1l0,0c-3.2-1.1-6.4-2.1-9.5-3.3
					c-1.6-0.6-3.1-1.2-4.7-1.8c-1.5-0.6-3.1-1.3-4.6-2c0,0,0,0,0-0.1c0,0,0,0,0.1,0c1.6,0.4,3.2,0.9,4.8,1.4c1.6,0.5,3.2,1,4.8,1.6
					c3.2,1.1,6.3,2.4,9.4,3.5l-0.4,0.1C277,572.8,281.4,569.5,285.9,566.2C285.8,566.1,285.9,566.1,285.9,566.2
					C285.9,566.2,285.9,566.2,285.9,566.2z"/>
			</g>
		</g>
	</g>
	<g>
		<path fill="#11CEBB" d="M1117.2,565.5c0,0,0.8-14-9.1-18.1c-9.9-4.1-14-6.6-15.7-4.1s4.9,19.8,10.7,22.2
			C1109,568,1113.9,572.1,1117.2,565.5z"/>
		<path fill="#11CEBB" d="M1130.3,544.2c0,0,6.9-6.9,8.5,3.1c1.5,10-4.6,28.4-11.5,21.5C1120.3,561.9,1127.2,546.6,1130.3,544.2z"/>
		<path fill="#0E8778" d="M1138.8,586.5c0,0-3.1,0.8-3.8,2.3c-0.8,1.5-6.9,3.8-6.9-1.5s2.3-6.9,5.4-6.9S1138.8,586.5,1138.8,586.5z"
			/>
		<g>
			<path fill="#0A5148" d="M1132.6,551.2c-1.4,9.3-3.1,18.4-4.6,27.6c-0.8,4.6-1.4,9.2-2,13.8c-0.5,4.6-1,9.2-1.1,13.9
				c-0.8-4.6-0.7-9.4-0.5-14.1c0.1-2.4,0.4-4.7,0.6-7c0.3-2.3,0.6-4.7,1-7c0.8-4.6,1.7-9.2,2.7-13.8
				C1129.9,560.1,1131.1,555.6,1132.6,551.2z"/>
		</g>
		<g>
			<path fill="#0A5148" d="M1103.4,552.7c3.4,2.2,6.5,4.9,9.3,7.9c2.8,3,5.2,6.3,7.3,9.9c2,3.6,3.6,7.4,4.5,11.4
				c0.9,4,1.2,8.2,0.6,12.2c-0.3-4-0.9-8-2.1-11.8c-0.6-1.9-1.3-3.8-2.1-5.6c-0.8-1.8-1.7-3.6-2.7-5.3c-1.9-3.5-4.2-6.7-6.7-9.8
				C1109,558.5,1106.3,555.5,1103.4,552.7z"/>
		</g>
		<g>
			<path fill="#0A5148" d="M1136.4,583.4l-3.3,3.8c-1.1,1.2-2.1,2.5-3.1,3.8c-1,1.3-1.9,2.6-2.8,4c-0.9,1.4-1.6,2.8-2.4,4.3
				c0-1.7,0.4-3.5,1.1-5.1c0.7-1.6,1.5-3.1,2.6-4.5c1.1-1.4,2.3-2.6,3.6-3.7C1133.4,585,1134.8,584.1,1136.4,583.4z"/>
		</g>
		<path fill="#11CEBB" d="M1145.6,589.7c0,0,3.9-6.1-1.4-8.5c-5.4-2.4-11.5-2.4-13.8-0.2c0,0,6.9,1.6,8.4,5.5
			C1140.2,590.4,1143.3,592,1145.6,589.7z"/>
	</g>
	<g>
		<path fill="#CC5C00" d="M1100.5,552.8c-0.4-1-1.7-1.2-2.3-0.4c-1.4,1.6-3.4,5-3.8,12.7c-0.8,12.3,2.3,16.1,2.3,16.1
			S1104.2,562.1,1100.5,552.8z"/>
		<path fill="#CC5C00" d="M1082.3,528.9c-0.8-1-2.4-0.8-2.9,0.4c-1,2-2.1,5.6-1.1,10.4c1.5,7.7,7.7,30.7,10,30
			C1090.3,568.9,1089.2,537.2,1082.3,528.9z"/>
		<path fill="#CC5C00" d="M1086.7,575.8c0,0-15.4-18.1-28-21.7c-1.1-0.3-2,0.8-1.4,1.8c2.4,4.2,8.3,12.6,18,16.1
			C1088.2,576.5,1085.1,576.5,1086.7,575.8z"/>
		<g>
			<g>
				<path d="M1088.2,568.8c1.2,2.2,2.2,4.4,3.2,6.6c1,2.2,1.9,4.4,2.9,6.6c0.5,1.1,1,2.2,1.6,3.1l0.2,0.3c0.1,0.1,0.1,0.1,0.2,0.2
					l0.1,0.1c0,0,0.1,0.1,0.2,0.2c0.1,0.1,0.3,0.3,0.4,0.4c0.5,0.6,0.7,1.3,0.9,1.9c0.4,1.3,0.5,2.5,0.5,3.8c0,1.2,0,2.5-0.2,3.7
					c-0.5-2.4-0.9-4.8-1.7-6.9c-0.2-0.5-0.5-1-0.8-1.3c-0.1-0.1-0.1-0.1-0.2-0.2l-0.4-0.3c-0.2-0.1-0.3-0.3-0.4-0.4l-0.3-0.4
					c-0.8-1.1-1.3-2.2-1.8-3.3c-1-2.3-1.9-4.5-2.6-6.9C1089.2,573.6,1088.6,571.3,1088.2,568.8z"/>
			</g>
			<g>
				<path d="M1096.7,580.4c0.4,0.7,0.6,1.3,0.7,2c0.1,0.6,0.2,1.3,0.2,1.9c0,0.6,0,1.3-0.1,1.9c-0.1,0.6-0.2,1.3-0.5,2
					c-0.6-0.5-0.9-1.2-1.1-1.8c-0.2-0.7-0.3-1.3-0.3-2c0-0.7,0-1.3,0.2-2C1096,581.6,1096.2,581,1096.7,580.4z"/>
			</g>
			<g>
				<path d="M1085.9,575.8c0.8-0.4,1.8-0.4,2.6-0.3c0.9,0.2,1.7,0.6,2.4,1.2c0.7,0.6,1.2,1.3,1.6,2.1c0.2,0.4,0.3,0.8,0.4,1.3
					c0.1,0.4,0.1,0.9,0,1.3c-0.4-0.3-0.6-0.6-0.9-0.9c-0.3-0.3-0.5-0.6-0.8-0.8c-0.5-0.5-1-1-1.6-1.5c-0.5-0.4-1.1-0.9-1.7-1.3
					C1087.3,576.6,1086.7,576.2,1085.9,575.8z"/>
			</g>
		</g>
	</g>
	<g>
		<path fill="#AF734A" d="M822.3,532.3c0,0,4.7-0.9,2.8-5.1c-1.9-4.1-4.4-2.5-4.4-2.5h-5.1C815.7,524.8,817.2,532.9,822.3,532.3z"/>
		<path fill="#FFFFFF" d="M823.4,526.4h7.7c0,0-6.1,34.5-14.5,32.1C808.2,556,814.3,529.2,823.4,526.4z"/>
		<path fill="#1E0D01" d="M793.7,661.4v0.7c0,0.9,0.7,1.6,1.6,1.6h3.8c0.9,0,1.6-0.7,1.6-1.6v-1.3c0-1-0.9-1.8-1.9-1.6l-3.8,0.6
			C794.2,659.9,793.7,660.6,793.7,661.4z"/>
		<path fill="#1E0D01" d="M779.6,660.7l0,1.2c0,1,0.9,1.7,1.9,1.5l4.1-0.8c0.8-0.2,1.4-1,1.3-1.8l-0.2-1.5c-0.2-0.9-1.1-1.5-2-1.3
			l-3.9,1C780.1,659.3,779.6,659.9,779.6,660.7z"/>
		<path fill="#AF734A" d="M813.3,589.6c0,0-3.8,11.7-5.6,16c-1.8,4.2-1.5,22.8-1.7,23.4c-0.2,0.6-3,16.8-2.7,18.9
			c0.3,2-8.2,4.2-8.6,2s-3.6-22.6,0-31.9c3.6-9.3-0.8-33.2-0.3-36c0,0,2.7,12.9-1.4,24.7c-4.1,11.8-2.7,19-3.5,23.9
			c-0.8,4.9-0.8,14.9-0.8,17c0,2-7.5,0.8-7.5,0.8s-3.6-28.6,0-41.3s2.7-15.7,3.9-26.7C786.4,569.3,814.7,569.4,813.3,589.6z"/>
		<path fill="#0E8778" d="M788.1,490.7c0,0-11.8,1.9-7.5,16.2c4.2,14.3,12,18.4,6.8,30.5c-5,11.5-6.4,11.4-5.9,21.9
			c0.4,7.9,2.4,17,2.6,23.2c0.1,2.4,1.5,4.6,3.8,5.6c3.4,1.5,9.3,3.1,18.7,2.4c7.2-0.5,10-3.2,9.9-10.4c-0.1-9.2,0.9-20.8-2.1-29.5
			c-3.7-10.7-0.3-12.3-0.3-12.3s5,3.3,9.4-5.5c0,0-1.3-6.4-3.6-5.5c-2.4,0.9-1.6,1.4-1.6,1.4s-6.8-27.5-6.9-31.8
			S796.2,488,788.1,490.7z"/>
		<path fill="#AF734A" d="M820.6,468.8c0,0,7.8-6.5,9.4-6.8s6.2-1.4,6.9-2c0.7-0.6,3.2,0.3,0,1.7c-3.2,1.3-6.5,5.3-2.6,5
			c3.9-0.3,6.3,2.1,1.1,2.2s-8.3-0.2-9.5,0.9s-5.3,3.7-5.3,3.7V468.8z"/>
		<path fill="#0E8778" d="M803.2,489.9l20.2-16.2c0,0-0.6-6.5-3.8-5.3c-3.1,1.2-23.7,14.7-23.7,14.7L803.2,489.9z"/>
		<path fill="#AF734A" d="M807,463c0,0,5,16.5-3.8,18.2C794.4,483,797.3,461,807,463z"/>
		<path d="M804.5,460.3l-0.9,32.6c0,0-7.2,3.9-7.7,8.9c-0.5,5,2.9,15.9-4.8,16.7c-7.7,0.9-16.9,2.5-16.5-1.7
			c0.4-4.2,3.1-32.4,6-35.6c2.8-3.2,3-18.1,3-18.5C783.5,462.5,804.5,460.3,804.5,460.3z"/>
		<path fill="none" stroke="#0A5449" stroke-linecap="round" stroke-linejoin="round" stroke-miterlimit="10" d="M801.5,511.3
			c0,0,6.3,13.5,6.9,16c0.6,2.5,1.6,9.3,5.5,11"/>
		<path fill="#3D1900" d="M812,652.3c0,0,3.3,2.3,0.5,5.1c-2.8,2.8-7.6,2.8-10.1,4.5c-1.8,1.2-5.5,0.7-7.5,0.3
			c-0.8-0.2-1.3-0.8-1.3-1.6v-11c0-0.8,0.6-1.5,1.4-1.6l7.2-0.9c0.9-0.1,1.7,0.6,1.8,1.5c0.1,1.1,0.1,2.5-0.2,3.4
			C803.2,653.6,808.7,651.2,812,652.3z"/>
		<path fill="#3D1900" d="M790,647c0.1-0.6-0.4-1.1-1-1c-2.6,0.7-6.5,1.8-7.5,1c-1.1-0.9-1.6,9.1-1.7,13.3c0,1.3,0.4,1.9,1.7,1.8
			c1.6-0.1,5.6-1.3,8.3-3c1-0.6,2.1-1.1,3.2-1.4l3.5-1.1c0,0,1.9-4.8-6.5-6.8C790,649.8,789.6,648.4,790,647z"/>
		<path fill="#CC5C00" d="M812.7,463h-11.4c-0.4,0-0.7,0.1-1,0.3c-1.8,1.1-8.7,5.2-19,5.1c-0.9,0-1.7-0.7-1.9-1.6
			c-0.7-4.5-1.4-17.4,12.2-17.8c10.8-0.3,14.7,5.2,16.1,9C808.5,460.4,810.3,462.2,812.7,463L812.7,463z"/>
		<path fill="#FFFFFF" d="M799.4,464c0,0-4.1,12.5-16.7,11.9c0,0-4.8-2-3-7.5l3,0c0,0-0.3,5.6,4.9,2.9s5.2-4.6,5.2-4.6L799.4,464z"
			/>
	</g>
	<g opacity="0.13">
		<path fill="#9B9B9B" d="M801.5,636c0,0-67.5,0.8-70.4,24.5c17.3,25.7,153.1,12,111.4-6.7C807.8,631.2,806.4,646.8,801.5,636z"/>
	</g>
</g>
<g id="Capa_4">
</g>
<g id="Capa_7">
</g>
<g id="Capa_9">
</g>
<g id="Capa_5">
</g>
<g id="Capa_6">
</g>
<g id="Capa_2">
</g>
</svg>
