<svg xmlns="http://www.w3.org/2000/svg" xmlns:xlink="http://www.w3.org/1999/xlink" viewBox="0 0 616.85 569.62"><defs><style>.a-skills{fill:none;stroke:#fff;stroke-linecap:round;stroke-linejoin:round;stroke-width:4px;}.b-skills{fill:#fff;}.c-skills{fill:url(#a-skills);}.d-skills{fill:url(#b-skills);}.e-skills{fill:url(#c-skills);}.f-skills{fill:url(#d-skills);}.g-skills{fill:url(#e-skills);}.h-skills{fill:url(#f-skills);}.i-skills{fill:url(#g-skills);}.j-skills{fill:url(#h-skills);}.k-skills{fill:url(#i-skills);}.l-skills{fill:url(#j-skills);}.m-skills{fill:url(#k-skills);}.n-skills{fill:url(#l-skills);}.o-skills{fill:url(#m-skills);}.p-skills{fill:url(#n-skills);}.q-skills{fill:url(#o-skills);}.r-skills{fill:url(#p-skills);}.s-skills{fill:url(#q-skills);}.t-skills{fill:url(#r-skills);}.u-skills{fill:url(#s-skills);}.v-skills{fill:url(#t-skills);}.w-skills{fill:url(#u-skills);}.x-skills{fill:url(#v-skills);}.y-skills{fill:url(#w-skills);}</style><linearGradient id="a-skills" x1="439.54" y1="200.47" x2="611.24" y2="200.47" gradientUnits="userSpaceOnUse"><stop offset="0" stop-color="#11cebb"/><stop offset="0.12" stop-color="#11c3b4"/><stop offset="0.34" stop-color="#10a7a1"/><stop offset="0.57" stop-color="#0f8288"/></linearGradient><linearGradient id="b-skills" x1="509.46" y1="200.47" x2="541.33" y2="200.47" xlink:href="#a-skills"/><linearGradient id="c-skills" x1="91.74" y1="118.18" x2="262.36" y2="118.18" xlink:href="#a-skills"/><linearGradient id="d-skills" x1="423.31" y1="595.67" x2="564.51" y2="595.67" xlink:href="#a-skills"/><linearGradient id="e-skills" x1="423.31" y1="536.31" x2="498.61" y2="536.31" xlink:href="#a-skills"/><linearGradient id="f-skills" x1="471.17" y1="485.19" x2="519.21" y2="485.19" xlink:href="#a-skills"/><linearGradient id="g-skills" x1="465.03" y1="498" x2="505.92" y2="498" xlink:href="#a-skills"/><linearGradient id="h-skills" x1="8.32" y1="350.17" x2="60.74" y2="350.17" xlink:href="#a-skills"/><linearGradient id="i-skills" x1="71.25" y1="349.63" x2="131.18" y2="349.63" xlink:href="#a-skills"/><linearGradient id="j-skills" x1="264.35" y1="256.61" x2="291.71" y2="256.61" xlink:href="#a-skills"/><linearGradient id="k-skills" x1="305.37" y1="256.61" x2="332.73" y2="256.61" xlink:href="#a-skills"/><linearGradient id="l-skills" x1="536.98" y1="388.92" x2="573.57" y2="388.92" xlink:href="#a-skills"/><linearGradient id="m-skills" x1="584.3" y1="390.09" x2="619.95" y2="390.09" xlink:href="#a-skills"/><linearGradient id="n-skills" x1="74" y1="530.12" x2="106.32" y2="530.12" xlink:href="#a-skills"/><linearGradient id="o-skills" x1="110.59" y1="528.2" x2="138.78" y2="528.2" xlink:href="#a-skills"/><linearGradient id="p-skills" x1="144.29" y1="530.16" x2="176.98" y2="530.16" xlink:href="#a-skills"/><linearGradient id="q-skills" x1="291.2" y1="448.04" x2="370.02" y2="448.04" xlink:href="#a-skills"/><linearGradient id="r-skills" x1="34.43" y1="155.14" x2="54.48" y2="155.14" xlink:href="#a-skills"/><linearGradient id="s-skills" x1="576.18" y1="533.27" x2="596.24" y2="533.27" xlink:href="#a-skills"/><linearGradient id="t-skills" x1="511.85" y1="321.77" x2="522.73" y2="321.77" xlink:href="#a-skills"/><linearGradient id="u-skills" x1="339.98" y1="503.27" x2="350.85" y2="503.27" xlink:href="#a-skills"/><linearGradient id="v-skills" x1="511.85" y1="57.76" x2="522.73" y2="57.76" xlink:href="#a-skills"/><linearGradient id="w-skills" x1="339.98" y1="38.51" x2="350.85" y2="38.51" xlink:href="#a-skills"/></defs><title>skills</title><path class="a-skills" d="M528.69,144.17c1.93-1.66,3.93-3.45,6-5.14,6.14-5,12.66-9.33,20.23-11.89,4.28-1.45,8.66-2.15,13.12-.9,5.25,1.46,8.33,5.23,10.31,10.07a38.2,38.2,0,0,1,2.52,12.81,91.33,91.33,0,0,1-2.41,23.64,4,4,0,0,0-.06.47l2.44.83a82.38,82.38,0,0,1,21.82,10.43,32.85,32.85,0,0,1,9,8.86c3.77,5.82,3.78,11.67,0,17.49-2.88,4.44-6.92,7.67-11.33,10.47a90.3,90.3,0,0,1-20.95,9.36l-.73.26c.41,2.16.87,4.28,1.23,6.42,1.34,8,2,16,.57,24a27.55,27.55,0,0,1-3.1,9.11,15.18,15.18,0,0,1-15.89,7.81c-7-.91-13.18-3.83-18.89-7.73-4.23-2.9-8.16-6.24-12.22-9.39-.54-.42-1-.91-1.48-1.31-3,2.44-5.76,4.89-8.7,7.16A60.45,60.45,0,0,1,502,277.13a23.3,23.3,0,0,1-11.34,1.18c-6.06-1.08-9.64-5-11.85-10.46a38.48,38.48,0,0,1-2.52-13.16,90.93,90.93,0,0,1,2.39-23.07c0-.18.07-.36.12-.61-2.49-.88-4.95-1.69-7.38-2.62-7.48-2.87-14.66-6.34-20.71-11.73a32.8,32.8,0,0,1-4.57-5c-4.57-6.24-4.52-12.93,0-19.19,3.19-4.41,7.44-7.61,12.05-10.37a89.65,89.65,0,0,1,18.82-8.26c1.66-.54,1.67-.52,1.3-2.26A90,90,0,0,1,476.1,151a41.49,41.49,0,0,1,2.25-13.79c3.37-9.14,10.39-13,19.91-11,7,1.48,13.17,4.81,18.9,8.94C521.08,138,524.79,141.11,528.69,144.17Zm.86,29.8c-4.71.22-10.34.48-16,.79a2,2,0,0,0-1.27.76,179.75,179.75,0,0,0-14.84,25.92,2.06,2.06,0,0,0,0,1.58,176.09,176.09,0,0,0,14.9,25.76,2,2,0,0,0,1.26.77,186.43,186.43,0,0,0,29.89,0,2.12,2.12,0,0,0,1.39-.79,183.13,183.13,0,0,0,14.91-26,1.72,1.72,0,0,0,0-1.26,178.6,178.6,0,0,0-15.07-26.06,1.81,1.81,0,0,0-1.2-.66C539.23,174.47,534.86,174.25,529.55,174Zm-43.2,59.21c0,.06-.1.12-.11.19-1.68,7.63-2.74,15.33-2.09,23.17a26.52,26.52,0,0,0,2.43,9.76,7.47,7.47,0,0,0,7.46,4.56,24.61,24.61,0,0,0,9.69-2.64c6.57-3.06,12.26-7.42,17.65-12.18.59-.53,1.16-1.08,1.51-1.4-4.72-5.85-9.33-11.59-14-17.29a2.28,2.28,0,0,0-1.39-.61c-2.65-.4-5.33-.65-8-1.1C495.17,234.89,490.81,234,486.35,233.18Zm47.7-83.55c.22.31.29.45.39.56a177,177,0,0,1,13.84,16.61,1.86,1.86,0,0,0,1.14.59c5.29.86,10.6,1.66,15.89,2.54,1.87.31,3.71.78,5.64,1.2,1.85-8.65,3-17.2,1.85-25.92a22.21,22.21,0,0,0-2.38-7.76,7,7,0,0,0-5-3.9,15,15,0,0,0-6.82.52c-6,1.72-11.26,5-16.21,8.74C539.55,145,536.84,147.34,534.05,149.63Zm42.64,73.73c7.71-2.44,15.15-5.45,21.79-10.17a25.91,25.91,0,0,0,6.58-6.38c2.25-3.28,2.34-6.17,0-9.37A26.8,26.8,0,0,0,601,193c-5.69-4.84-12.37-7.92-19.32-10.46-1.68-.61-3.39-1.16-5.1-1.74a4.2,4.2,0,0,0-.25.54A170.28,170.28,0,0,1,569,201.39a2.08,2.08,0,0,0,0,1.39c1.13,2.85,2.39,5.65,3.45,8.52C573.93,215.25,575.25,219.25,576.69,223.36Zm-96,.08c.12-.3.21-.46.26-.64a176.28,176.28,0,0,1,7.28-20,2.38,2.38,0,0,0-.1-1.59c-2.13-5.7-4.3-11.39-6.44-17.09-.4-1.06-.69-2.17-1-3.26a4,4,0,0,0-.55.07,80.81,80.81,0,0,0-19.26,8.61,29.22,29.22,0,0,0-8.67,7.79c-2.27,3.33-2.34,6.2.06,9.46a26.45,26.45,0,0,0,4.31,4.6C463.59,217.28,472,220.59,480.67,223.44Zm5.46-52.32a5.18,5.18,0,0,0,.81-.07,157.87,157.87,0,0,1,20.6-3.57,2.33,2.33,0,0,0,1.67-1q6.45-7.87,13-15.71c.25-.32.52-.62.82-1a86.85,86.85,0,0,0-14.62-11.17c-4.08-2.41-8.31-4.5-13.1-5s-7.17.87-9,4.82a25.45,25.45,0,0,0-2.12,8.44,63.17,63.17,0,0,0,.52,15.84C485,165.48,485.61,168.26,486.13,171.12Zm48.13,83.26A86.79,86.79,0,0,0,549.64,266a34.92,34.92,0,0,0,11.73,4.54c5.16.84,8.21-.87,10.09-5.77a31.68,31.68,0,0,0,1.87-10,74.9,74.9,0,0,0-1.2-16.37c-.32-1.79-.74-3.57-1.11-5.36l-.62.09c-6.75,1.19-13.5,2.42-20.26,3.54a3.25,3.25,0,0,0-2.33,1.34c-2.44,3.21-4.91,6.39-7.47,9.5C538.42,249.8,536.35,252,534.26,254.38Zm-5.75-99.29-9.75,11.35h19.61Zm-9.68,82.66,9.87,11.36,9.75-11.36ZM488,178.63c1.66,4.8,3.24,9.34,4.88,14.07l9.68-16.86Zm76.36,32.85-9.68,16.91,14.56-2.86C567.54,220.69,566,216.16,564.34,211.48Zm0-18.91c1.59-4.68,3.14-9.2,4.76-14l-14.47-2.77C557.94,181.53,561.07,186.93,564.35,192.57Zm-76.26,33,14.49,2.78-9.72-16.72C491.26,216.3,489.73,220.78,488.09,225.58Z" transform="translate(-8.32 -32.5)"/><path class="a-skills" d="M512.69,202.08a15.94,15.94,0,1,1,15.91,16A16,16,0,0,1,512.69,202.08Z" transform="translate(-8.32 -32.5)"/><path class="a-skills" d="M180,205.12a11.15,11.15,0,0,1-8.05-3.46l-40.79-40.81q-16.34-16.35-32.68-32.68a11.49,11.49,0,0,1-3.12-11.27,10.61,10.61,0,0,1,2.92-5.24L135,74.93l17.17-17.19c6.7-6.69,13.37-13.39,20.09-20.06a11.78,11.78,0,0,1,16.13,0Q211.08,60.35,233.71,83c9.23,9.23,18.37,18.55,27.74,27.64,4.81,4.67,5.16,11.09,2.39,15.37a14.22,14.22,0,0,1-1.83,2.27q-26.14,26.18-52.3,52.31Q199.36,191,189,201.35A12.06,12.06,0,0,1,180,205.12ZM186.78,98l-.48.26v1.14q0,22.62,0,45.24a2.31,2.31,0,0,0,1.09,2.13,11.83,11.83,0,0,1,4.1,14.27,12.09,12.09,0,0,1-22.83-1.45,11.81,11.81,0,0,1,4.67-12.9,2.08,2.08,0,0,0,1-2c0-6.22,0-12.44,0-18.66,0-10.45,0-20.9,0-31.35a2,2,0,0,0-.59-1.45,12,12,0,0,1-5.22-12.55,1.54,1.54,0,0,0-.54-1.51q-4.5-4.47-9-9c-.35-.35-.72-.69-1.12-1.07-.35.31-.63.53-.88.78q-24.51,24.51-49,49c-.69.69-.64,1.06,0,1.72q9.61,9.56,19.18,19.17,26.13,26.12,52.23,52.25c.7.7,1.08.83,1.86,0q35.69-35.74,71.42-71.42c.76-.76.69-1.15,0-1.87q-16.26-16.19-32.46-32.43Q200.68,67,181.24,47.54c-.7-.72-1.11-.83-1.87,0-3.61,3.7-7.28,7.34-11,11-.72.71-1.55,1.29-2.33,1.92.39.49.48.65.6.78,3.3,3.3,6.58,6.61,9.91,9.88a1.64,1.64,0,0,0,1.24.26,12.14,12.14,0,0,1,14.34,14.07,1.63,1.63,0,0,0,.52,1.61q10.22,10.19,20.39,20.42a1.87,1.87,0,0,0,1.83.51,12.08,12.08,0,1,1-9.9,9.94,2,2,0,0,0-.58-1.93q-7.71-7.64-15.34-15.34C188.27,99.78,187.55,98.87,186.78,98Z" transform="translate(-8.32 -32.5)"/><path class="a-skills" d="M497.07,600.12H431.13c-2.95,0-4.67-1.12-4.59-3,0-1.21,1.21-2.26,2.9-2.55a12.61,12.61,0,0,1,1.95-.14H563c2.63,0,4.25.8,4.66,2.25.49,1.69-1.1,3.22-3.56,3.39-.5,0-1,0-1.52,0Z" transform="translate(-8.32 -32.5)"/><path class="a-skills" d="M430.26,583.26c2.08-2.88,4.08-5.66,6.08-8.45q15.53-21.51,31-43a1.39,1.39,0,0,1,1.65-.68,5.59,5.59,0,0,0,6.17-3.41,5.68,5.68,0,0,0-9-6.45,5.63,5.63,0,0,0-1.21,7,1.09,1.09,0,0,1,0,1.41Q446.47,555.31,428,581c-.08.11-.18.21-.27.32a4.93,4.93,0,0,1,1.79-7.7c1.69-.64,2.15-1.74,2.65-3.09a150.35,150.35,0,0,0,8.42-31.66c1.15-8.16,1.48-16.32-.48-24.44a1.43,1.43,0,0,1,.56-1.08c5.65-4.34,11.34-8.63,17-12.94,3.37-2.56,6.74-5.1,10.08-7.68a1.15,1.15,0,0,1,1.66,0q15.88,11.51,31.8,22.93a1.15,1.15,0,0,1,.5,1.58q-5.52,16.14-11,32.29c-.11.32-.49.75-.77.78-7.89.72-15.21,3.33-22.26,6.76a151,151,0,0,0-29.81,19.59,1.86,1.86,0,0,0-.66,1.67A5.25,5.25,0,0,1,430.26,583.26Z" transform="translate(-8.32 -32.5)"/><path class="a-skills" d="M507.26,507.74l-32.87-23.69,8.26-18.15,39.79,28.67Z" transform="translate(-8.32 -32.5)"/><path class="a-skills" d="M509.15,512.91c-.6.7-.94,1.46-1.49,1.66a2.65,2.65,0,0,1-2.07-.21c-2.76-1.86-5.43-3.85-8.13-5.8l-27.61-19.9-.69-.51a2,2,0,1,1,2.27-3.17c2.23,1.56,4.42,3.17,6.63,4.76q14.76,10.63,29.51,21.29A11.43,11.43,0,0,1,509.15,512.91Z" transform="translate(-8.32 -32.5)"/><path class="a-skills" d="M47.87,312.2H64v54.08a25.86,25.86,0,0,1-3.3,13.17,22.47,22.47,0,0,1-9.31,8.83,29.15,29.15,0,0,1-13.58,3.11q-12.39,0-19.31-6.31t-6.92-17.84h16.2q0,5.75,2.42,8.48c1.61,1.83,4.14,2.74,7.61,2.74a9.22,9.22,0,0,0,7.35-3.17q2.74-3.17,2.74-9Z" transform="translate(-8.32 -32.5)"/><path class="a-skills" d="M118.26,369.82a8.25,8.25,0,0,0-3.22-7q-3.23-2.44-11.59-5.15a82.5,82.5,0,0,1-13.25-5.34Q76.9,345.15,76.89,333a18.85,18.85,0,0,1,3.57-11.29,23.29,23.29,0,0,1,10.25-7.75,38.54,38.54,0,0,1,15-2.79,35.16,35.16,0,0,1,14.92,3,23.77,23.77,0,0,1,10.17,8.56,22.41,22.41,0,0,1,3.62,12.55h-16.1c0-3.58-1.12-6.36-3.38-8.34s-5.42-3-9.49-3-7,.83-9.18,2.49A7.89,7.89,0,0,0,93,333c0,2.54,1.28,4.66,3.84,6.38a43,43,0,0,0,11.29,4.83q13.72,4.13,20,10.25a20.4,20.4,0,0,1,6.28,15.23q0,10.14-7.68,15.91t-20.65,5.77a39.91,39.91,0,0,1-16.42-3.3,26,26,0,0,1-11.29-9,23.18,23.18,0,0,1-3.89-13.31H90.63q0,12.93,15.45,12.93c3.83,0,6.81-.78,9-2.33A7.59,7.59,0,0,0,118.26,369.82Z" transform="translate(-8.32 -32.5)"/><path class="a-skills" d="M292.36,304.47q-16.58-4.79-16.58-22v-9.4q0-10-8.2-10v-9.78q8,0,8.2-9.4v-10q0-8.73,4.14-14.12t12.44-7.8l2.58,7.61a9.81,9.81,0,0,0-5.3,4.6q-1.78,3.28-1.88,9.1v9.92q0,10.68-8.25,15,8.25,4.35,8.25,15.08v10q.23,11.06,7.18,13.51Z" transform="translate(-8.32 -32.5)"/><path class="a-skills" d="M308.6,296.81q7-2.55,7.18-13.7v-10q0-10.68,8.43-14.84-8.43-4.15-8.43-15.07v-9.87q-.18-11-7.18-13.7l2.58-7.61q8.24,2.37,12.39,7.73t4.19,14V244q.18,9.41,8.2,9.4v9.78q-8.2,0-8.2,9.87v10.25q-.37,16.54-16.58,21.22Z" transform="translate(-8.32 -32.5)"/><path class="a-skills" d="M576.8,386.51H540.2v-9.66h36.6Zm0,17.73H540.2v-9.66h36.6Z" transform="translate(-8.32 -32.5)"/><path class="a-skills" d="M611.31,391.63l-23.79-8.31V371.94l35.66,14.94v9.62l-35.66,15V400.06Z" transform="translate(-8.32 -32.5)"/><path class="a-skills" d="M88.15,531.83l21.39,8.48v11.8L77.23,536.72v-10l32.31-15.4v11.81Z" transform="translate(-8.32 -32.5)"/><path class="a-skills" d="M121.89,563.16h-8.07l20.11-66.67H142Z" transform="translate(-8.32 -32.5)"/><path class="a-skills" d="M169.32,531.7l-21.8-8.56V511.42l32.68,15.39v9.91l-32.68,15.44V540.39Z" transform="translate(-8.32 -32.5)"/><path class="a-skills" d="M295,405.05h77.7a.56.56,0,0,1,.56.56v13.9a.55.55,0,0,1-.33.51l-33.29,14.45a.56.56,0,0,0,.22,1.08h30.27a.56.56,0,0,1,.56.61l-4.39,47.42a.55.55,0,0,1-.38.48l-31.11,10.19a.58.58,0,0,1-.32,0l-31.92-8.81a.54.54,0,0,1-.41-.48l-2.56-24.89a.56.56,0,0,1,.56-.61H315a.55.55,0,0,1,.55.49l1.3,11.43a.54.54,0,0,0,.42.48l16,4.07a.49.49,0,0,0,.24,0l17.65-3.26a.55.55,0,0,0,.46-.49l1.86-19.95a.57.57,0,0,0-.56-.62H299.72a.55.55,0,0,1-.55-.47l-2.11-13.93a.57.57,0,0,1,.34-.6l34.05-14.7a.56.56,0,0,0-.23-1.07H296.93a.55.55,0,0,1-.55-.49l-1.95-14.69A.55.55,0,0,1,295,405.05Z" transform="translate(-8.32 -32.5)"/><circle class="a-skills" cx="47.68" cy="156.77" r="10.03"/><circle class="a-skills" cx="589.44" cy="534.9" r="10.03"/><circle class="a-skills" cx="520.52" cy="323.39" r="5.44"/><circle class="a-skills" cx="348.64" cy="504.89" r="5.44"/><circle class="a-skills" cx="520.52" cy="59.39" r="5.44"/><circle class="a-skills" cx="348.64" cy="40.14" r="5.44"/><path class="b-skills" d="M557.62,513.79c7.72,0,7.73-12,0-12s-7.74,12,0,12Z" transform="translate(-8.32 -32.5)"/><path class="b-skills" d="M266.12,440.91c7.72,0,7.73-12,0-12s-7.74,12,0,12Z" transform="translate(-8.32 -32.5)"/><path class="b-skills" d="M330.74,135.66c7.72,0,7.74-12,0-12s-7.73,12,0,12Z" transform="translate(-8.32 -32.5)"/><path class="b-skills" d="M55.67,482.16c7.72,0,7.74-12,0-12s-7.73,12,0,12Z" transform="translate(-8.32 -32.5)"/><path class="b-skills" d="M141.72,340.05c7.72,0,7.74-12,0-12s-7.73,12,0,12Z" transform="translate(-8.32 -32.5)"/><path class="b-skills" d="M107.56,263.34c7.72,0,7.73-12,0-12s-7.74,12,0,12Z" transform="translate(-8.32 -32.5)"/><path class="b-skills" d="M557.62,339.89c7.72,0,7.73-12,0-12s-7.74,12,0,12Z" transform="translate(-8.32 -32.5)"/><path class="b-skills" d="M32.42,353.57c7.72,0,7.74-12,0-12s-7.73,12,0,12Z" transform="translate(-8.32 -32.5)"/><path class="c-skills" d="M525.46,142.55c1.94-1.66,3.94-3.45,6-5.14,6.14-5,12.67-9.33,20.23-11.9,4.29-1.45,8.67-2.14,13.12-.9,5.25,1.47,8.34,5.23,10.31,10.08a38.14,38.14,0,0,1,2.52,12.8,90.81,90.81,0,0,1-2.41,23.64c0,.11,0,.23,0,.47.8.28,1.61.56,2.43.83a82.42,82.42,0,0,1,21.82,10.44,32.53,32.53,0,0,1,9,8.85c3.77,5.82,3.78,11.67,0,17.49-2.89,4.45-6.93,7.67-11.34,10.47a89.84,89.84,0,0,1-20.94,9.37l-.74.26c.42,2.15.87,4.28,1.23,6.41,1.34,8,2,16,.58,24.06a27.73,27.73,0,0,1-3.1,9.1,15.21,15.21,0,0,1-15.9,7.82c-7-.92-13.18-3.83-18.88-7.74-4.24-2.89-8.17-6.23-12.22-9.39-.54-.42-1-.9-1.48-1.31-3,2.44-5.76,4.89-8.71,7.16a60,60,0,0,1-18.11,10.08,23.26,23.26,0,0,1-11.33,1.19c-6.06-1.08-9.64-5-11.86-10.47a38.67,38.67,0,0,1-2.52-13.15A90.48,90.48,0,0,1,475.5,230c0-.18.06-.37.11-.62-2.48-.88-4.95-1.69-7.37-2.62-7.49-2.87-14.67-6.33-20.71-11.73a32.87,32.87,0,0,1-4.58-5c-4.57-6.23-4.52-12.93,0-19.19,3.2-4.4,7.45-7.6,12.06-10.37a90.32,90.32,0,0,1,18.81-8.26c1.66-.53,1.67-.51,1.3-2.25a91.16,91.16,0,0,1-2.27-20.55,41.26,41.26,0,0,1,2.26-13.8c3.36-9.13,10.39-13,19.91-11,7,1.47,13.16,4.81,18.9,8.93C517.86,136.36,521.56,139.48,525.46,142.55Zm.86,29.79c-4.7.23-10.34.48-16,.8a1.87,1.87,0,0,0-1.26.76,178.35,178.35,0,0,0-14.85,25.92,2.08,2.08,0,0,0,0,1.57,176,176,0,0,0,14.9,25.76,1.92,1.92,0,0,0,1.26.77,184.26,184.26,0,0,0,29.9,0,2.07,2.07,0,0,0,1.38-.78,182.27,182.27,0,0,0,14.91-26,1.62,1.62,0,0,0,0-1.26,178.74,178.74,0,0,0-15.07-26.06,1.76,1.76,0,0,0-1.2-.65C536,172.84,531.63,172.62,526.32,172.34Zm-43.19,59.22c0,.06-.11.11-.12.18-1.68,7.64-2.73,15.34-2.09,23.18a26.72,26.72,0,0,0,2.43,9.76,7.49,7.49,0,0,0,7.46,4.55,24.82,24.82,0,0,0,9.7-2.63c6.56-3.07,12.25-7.42,17.65-12.19.59-.52,1.16-1.07,1.5-1.4-4.71-5.85-9.33-11.59-14-17.29a2.34,2.34,0,0,0-1.39-.61c-2.65-.39-5.33-.64-8-1.1C491.94,233.26,487.59,232.39,483.13,231.56ZM530.83,148a6,6,0,0,0,.38.55,178.83,178.83,0,0,1,13.85,16.62,1.91,1.91,0,0,0,1.13.59c5.29.86,10.6,1.66,15.89,2.53,1.87.31,3.71.79,5.64,1.21,1.86-8.65,3.06-17.2,1.85-25.92a21.94,21.94,0,0,0-2.38-7.76,7,7,0,0,0-5-3.91,15,15,0,0,0-6.82.53c-6,1.72-11.26,5-16.2,8.73C536.32,143.35,533.62,145.72,530.83,148Zm42.63,73.73c7.71-2.45,15.15-5.45,21.79-10.18a25.75,25.75,0,0,0,6.59-6.37c2.24-3.28,2.33-6.18,0-9.37a25.64,25.64,0,0,0-4.11-4.47c-5.69-4.84-12.37-7.92-19.32-10.46-1.68-.61-3.38-1.16-5.09-1.75a4.86,4.86,0,0,0-.25.55,172.75,172.75,0,0,1-7.33,20.08,2,2,0,0,0,0,1.38c1.12,2.85,2.38,5.65,3.45,8.53C570.7,213.62,572,217.62,573.46,221.74Zm-96,.07c.12-.29.2-.46.25-.63a174.42,174.42,0,0,1,7.29-20,2.38,2.38,0,0,0-.11-1.59c-2.13-5.71-4.3-11.39-6.44-17.09-.4-1.07-.68-2.18-1-3.27a2.84,2.84,0,0,0-.56.08,81.28,81.28,0,0,0-19.25,8.6,29.13,29.13,0,0,0-8.67,7.8c-2.28,3.33-2.35,6.19.06,9.45a26.07,26.07,0,0,0,4.3,4.6C460.37,215.66,468.72,219,477.45,221.81Zm5.46-52.31c.42,0,.62,0,.8-.07a155,155,0,0,1,20.61-3.57,2.32,2.32,0,0,0,1.66-1q6.45-7.87,13-15.71l.82-.95A86.26,86.26,0,0,0,505.15,137c-4.08-2.42-8.32-4.51-13.11-5s-7.16.88-9,4.83a25.88,25.88,0,0,0-2.12,8.44,63.08,63.08,0,0,0,.52,15.83C481.81,163.86,482.39,166.63,482.91,169.5ZM531,252.75a87,87,0,0,0,15.39,11.61,35,35,0,0,0,11.72,4.53c5.17.85,8.21-.86,10.09-5.76a31.46,31.46,0,0,0,1.87-10,74.33,74.33,0,0,0-1.2-16.38c-.32-1.79-.73-3.57-1.1-5.35l-.63.09c-6.75,1.19-13.49,2.42-20.25,3.53a3.26,3.26,0,0,0-2.33,1.35c-2.44,3.2-4.92,6.38-7.48,9.49C535.19,248.18,533.12,250.39,531,252.75Zm-5.75-99.29-9.75,11.35h19.61Zm-9.68,82.66,9.88,11.37c3.33-3.9,6.46-7.54,9.74-11.37ZM484.75,177l4.89,14.06c3.29-5.73,6.41-11.16,9.67-16.86Zm76.37,32.84-9.69,16.92L566,223.91C564.32,219.07,562.74,214.53,561.12,209.85Zm0-18.9c1.6-4.68,3.14-9.2,4.76-14l-14.47-2.78C554.71,179.91,557.84,185.3,561.12,191Zm-76.26,33,14.49,2.78L489.63,210C488,214.67,486.5,219.16,484.86,224Z" transform="translate(-8.32 -32.5)"/><path class="d-skills" d="M509.46,200.46a15.94,15.94,0,1,1,15.91,16A16,16,0,0,1,509.46,200.46Z" transform="translate(-8.32 -32.5)"/><path class="e-skills" d="M176.74,203.49a11.12,11.12,0,0,1-8-3.45l-40.8-40.82q-16.34-16.33-32.67-32.67a11.5,11.5,0,0,1-3.13-11.27A10.53,10.53,0,0,1,95,110L131.76,73.3q8.6-8.58,17.18-17.18,10-10,20.08-20.07a11.78,11.78,0,0,1,16.13,0q22.69,22.63,45.34,45.32c9.23,9.23,18.37,18.56,27.73,27.65,4.81,4.66,5.17,11.08,2.4,15.36a13.44,13.44,0,0,1-1.84,2.27q-26.13,26.17-52.3,52.32-10.35,10.35-20.7,20.71A12,12,0,0,1,176.74,203.49Zm6.82-107.1-.49.25v1.15q0,22.62,0,45.24a2.3,2.3,0,0,0,1.09,2.12,11.82,11.82,0,0,1,4.09,14.28A12.1,12.1,0,0,1,165.41,158a11.8,11.8,0,0,1,4.68-12.9,2.05,2.05,0,0,0,1-1.95c0-6.22,0-12.44,0-18.66q0-15.67,0-31.35a2,2,0,0,0-.59-1.46,12,12,0,0,1-5.22-12.55,1.54,1.54,0,0,0-.54-1.5c-3-3-6-6-9-9-.35-.35-.71-.68-1.12-1.07-.34.31-.62.53-.87.78q-24.51,24.51-49,49c-.69.69-.64,1.06,0,1.72q9.63,9.56,19.19,19.17,26.12,26.11,52.22,52.25c.71.71,1.09.83,1.87.05q35.67-35.75,71.41-71.41c.76-.76.7-1.15,0-1.87q-16.26-16.2-32.46-32.44Q197.46,65.37,178,45.91c-.71-.71-1.11-.82-1.88,0-3.61,3.7-7.28,7.34-11,11-.71.7-1.55,1.28-2.33,1.92.4.48.48.65.61.77,3.29,3.3,6.58,6.61,9.9,9.88a1.61,1.61,0,0,0,1.25.27,12.12,12.12,0,0,1,14.33,14.06,1.67,1.67,0,0,0,.52,1.62q10.23,10.17,20.39,20.41a1.86,1.86,0,0,0,1.84.52,12.08,12.08,0,1,1-9.9,9.94,2,2,0,0,0-.59-1.93q-7.69-7.65-15.34-15.34C185.05,98.15,184.32,97.25,183.56,96.39Z" transform="translate(-8.32 -32.5)"/><path class="f-skills" d="M493.85,598.49h-66c-2.94,0-4.66-1.11-4.59-3,.06-1.21,1.22-2.26,2.9-2.55a11.49,11.49,0,0,1,2-.15H559.75c2.63,0,4.26.8,4.67,2.24.48,1.7-1.11,3.22-3.56,3.4-.51,0-1,0-1.52,0Z" transform="translate(-8.32 -32.5)"/><path class="g-skills" d="M427,581.64c2.07-2.88,4.07-5.67,6.08-8.45q15.51-21.53,31-43.05a1.38,1.38,0,0,1,1.65-.69,5.58,5.58,0,0,0,6.17-3.4,5.68,5.68,0,0,0-9-6.45,5.63,5.63,0,0,0-1.2,7,1.1,1.1,0,0,1,0,1.41q-18.52,25.63-37,51.31c-.08.12-.18.22-.27.33a4.94,4.94,0,0,1,1.79-7.71c1.69-.63,2.15-1.74,2.66-3.09a150.61,150.61,0,0,0,8.41-31.66c1.15-8.16,1.48-16.32-.47-24.43a1.39,1.39,0,0,1,.55-1.09q8.49-6.49,17-12.94c3.36-2.55,6.74-5.09,10.08-7.68a1.15,1.15,0,0,1,1.66,0Q482.06,502.55,498,514a1.16,1.16,0,0,1,.49,1.59q-5.5,16.13-11,32.28c-.11.32-.48.76-.77.78-7.89.72-15.2,3.34-22.25,6.76A151.15,151.15,0,0,0,434.65,575a1.86,1.86,0,0,0-.66,1.66A5.25,5.25,0,0,1,427,581.64Z" transform="translate(-8.32 -32.5)"/><path class="h-skills" d="M504,506.11c-11-7.9-21.89-15.77-32.87-23.69l8.25-18.15L519.21,493Z" transform="translate(-8.32 -32.5)"/><path class="i-skills" d="M505.92,511.29c-.59.69-.94,1.46-1.49,1.65a2.62,2.62,0,0,1-2.07-.21c-2.76-1.86-5.43-3.85-8.13-5.79L466.63,487c-.23-.17-.47-.33-.69-.51a2,2,0,1,1,2.27-3.17c2.22,1.56,4.42,3.16,6.62,4.75q14.78,10.65,29.51,21.3A10.58,10.58,0,0,1,505.92,511.29Z" transform="translate(-8.32 -32.5)"/><path class="j-skills" d="M44.64,310.58h16.1v54.07a25.87,25.87,0,0,1-3.3,13.18,22.39,22.39,0,0,1-9.31,8.82,29.11,29.11,0,0,1-13.57,3.11q-12.39,0-19.32-6.3T8.32,365.62H24.53c0,3.83.8,6.65,2.41,8.48s4.15,2.73,7.62,2.73a9.24,9.24,0,0,0,7.35-3.16q2.73-3.17,2.73-9Z" transform="translate(-8.32 -32.5)"/><path class="k-skills" d="M115,368.2a8.27,8.27,0,0,0-3.22-7q-3.21-2.43-11.59-5.15A82.43,82.43,0,0,1,87,350.71q-13.31-7.2-13.3-19.37a18.83,18.83,0,0,1,3.57-11.29,23.22,23.22,0,0,1,10.24-7.76,38.59,38.59,0,0,1,15-2.79,35.08,35.08,0,0,1,14.91,3,23.85,23.85,0,0,1,10.17,8.56,22.45,22.45,0,0,1,3.62,12.56H115.09a10.56,10.56,0,0,0-3.38-8.35q-3.39-3-9.5-3-5.89,0-9.17,2.49a7.84,7.84,0,0,0-3.28,6.57q0,3.81,3.84,6.39a43.56,43.56,0,0,0,11.29,4.82q13.74,4.14,20,10.25a20.4,20.4,0,0,1,6.28,15.24q0,10.14-7.67,15.9t-20.66,5.77a39.86,39.86,0,0,1-16.41-3.3,26,26,0,0,1-11.3-9,23.15,23.15,0,0,1-3.89-13.3H87.4q0,12.93,15.45,12.93,5.75,0,9-2.34A7.57,7.57,0,0,0,115,368.2Z" transform="translate(-8.32 -32.5)"/><path class="l-skills" d="M289.14,302.84q-16.59-4.77-16.59-22v-9.4q0-10-8.2-10v-9.78q8,0,8.2-9.4v-10q0-8.75,4.15-14.13t12.44-7.79l2.57,7.6a9.81,9.81,0,0,0-5.29,4.61q-1.8,3.28-1.89,9.09v9.92q0,10.68-8.25,15,8.25,4.35,8.25,15.07v10q.23,11.06,7.18,13.51Z" transform="translate(-8.32 -32.5)"/><path class="m-skills" d="M305.37,295.19q7-2.55,7.19-13.7v-10q0-10.68,8.43-14.83-8.43-4.15-8.43-15.07v-9.88q-.19-11-7.19-13.7l2.58-7.6q8.25,2.36,12.39,7.72t4.19,14v10.16q.2,9.41,8.2,9.4v9.78q-8.19,0-8.2,9.88v10.25q-.36,16.53-16.58,21.21Z" transform="translate(-8.32 -32.5)"/><path class="n-skills" d="M573.57,384.89H537v-9.66h36.59Zm0,17.72H537V393h36.59Z" transform="translate(-8.32 -32.5)"/><path class="o-skills" d="M608.08,390,584.3,381.7V370.32L620,385.26v9.62l-35.65,15V398.44Z" transform="translate(-8.32 -32.5)"/><path class="p-skills" d="M84.93,530.2l21.39,8.48v11.81L74,535.1v-10l32.32-15.39v11.81Z" transform="translate(-8.32 -32.5)"/><path class="q-skills" d="M118.66,561.54h-8.07l20.12-66.68h8.07Z" transform="translate(-8.32 -32.5)"/><path class="r-skills" d="M166.1,530.08l-21.81-8.56V509.79L177,525.18v9.92l-32.69,15.43V538.76Z" transform="translate(-8.32 -32.5)"/><path class="s-skills" d="M291.75,403.42h77.71a.56.56,0,0,1,.56.56v13.91a.57.57,0,0,1-.34.51L336.4,432.85a.56.56,0,0,0,.22,1.07h30.26a.56.56,0,0,1,.56.61L363.06,482a.57.57,0,0,1-.39.48l-31.1,10.18a.53.53,0,0,1-.33,0l-31.92-8.81a.56.56,0,0,1-.41-.48l-2.55-24.88a.55.55,0,0,1,.55-.62h14.83a.57.57,0,0,1,.56.5l1.3,11.43a.56.56,0,0,0,.41.48l16,4.07a.65.65,0,0,0,.24,0l17.65-3.26a.56.56,0,0,0,.45-.5l1.86-19.95a.55.55,0,0,0-.55-.61H296.49a.56.56,0,0,1-.55-.48l-2.1-13.92a.56.56,0,0,1,.33-.6l34.05-14.7a.56.56,0,0,0-.22-1.08H293.7a.56.56,0,0,1-.55-.48l-1.95-14.69A.57.57,0,0,1,291.75,403.42Z" transform="translate(-8.32 -32.5)"/><circle class="t-skills" cx="44.46" cy="155.14" r="10.03"/><circle class="u-skills" cx="586.21" cy="533.27" r="10.03"/><circle class="v-skills" cx="517.29" cy="321.77" r="5.44"/><circle class="w-skills" cx="345.41" cy="503.27" r="5.44"/><circle class="x-skills" cx="517.29" cy="57.76" r="5.44"/><circle class="y-skills" cx="345.41" cy="38.51" r="5.44"/><path d="M554.39,507.66a1.5,1.5,0,0,0,0-3,1.5,1.5,0,0,0,0,3Z" transform="translate(-8.32 -32.5)"/><path d="M262.89,434.79a1.5,1.5,0,0,0,0-3,1.5,1.5,0,0,0,0,3Z" transform="translate(-8.32 -32.5)"/><path d="M327.52,129.53a1.5,1.5,0,0,0,0-3,1.5,1.5,0,0,0,0,3Z" transform="translate(-8.32 -32.5)"/><path d="M52.45,477.54c3.86,0,3.86-6,0-6s-3.87,6,0,6Z" transform="translate(-8.32 -32.5)"/><path d="M138.5,335.42c3.86,0,3.86-6,0-6s-3.87,6,0,6Z" transform="translate(-8.32 -32.5)"/><path d="M104.33,258.71c3.86,0,3.87-6,0-6s-3.87,6,0,6Z" transform="translate(-8.32 -32.5)"/><path d="M554.39,335.27c3.86,0,3.87-6,0-6s-3.86,6,0,6Z" transform="translate(-8.32 -32.5)"/><path d="M29.2,347.45a1.5,1.5,0,0,0,0-3,1.5,1.5,0,0,0,0,3Z" transform="translate(-8.32 -32.5)"/></svg>